<?xml version="1.0" standalone="no"?>
<!DOCTYPE svg PUBLIC "-//W3C//DTD SVG 1.1//EN" "http://www.w3.org/Graphics/SVG/1.1/DTD/svg11.dtd" >
<svg xmlns="http://www.w3.org/2000/svg" xmlns:xlink="http://www.w3.org/1999/xlink" version="1.1">
<metadata>
Created by FontForge 20170731 at Mon Sep 27 08:49:17 2021
 By Aleksey,,,
Copyright (c) 2016 by Thomas Gillett. All rights reserved. |DCNT
</metadata>
<defs>
<font id="Gordita-Bold" horiz-adv-x="1392" >
  <font-face 
    font-family="Gordita"
    font-weight="700"
    font-stretch="normal"
    units-per-em="2048"
    panose-1="0 0 0 0 0 0 0 0 0 0"
    ascent="1544"
    descent="-504"
    x-height="1094"
    cap-height="1604"
    bbox="-514 -733 2628 2429"
    underline-thickness="102"
    underline-position="-307"
    unicode-range="U+0020-FB04"
  />
<missing-glyph horiz-adv-x="1636" 
d="M1536 1604v-1604h-1352v1604h1352zM1415 129v1356h-1100z" />
    <glyph glyph-name="ff" unicode="ff" horiz-adv-x="1673" 
d="M1546 1401q-93 0 -143.5 -50t-50.5 -143v-114h286v-273h-284v-821h-320v821h-465v-821h-319v821h-197v273h197v108q0 220 117.5 345.5t343.5 125.5q75 0 149 -22v-262q-41 12 -98 12q-93 0 -144 -50t-51 -143v-114h467v108q0 220 117.5 345.5t343.5 125.5q76 0 150 -22
v-262q-41 12 -99 12z" />
    <glyph glyph-name="fi" unicode="fi" horiz-adv-x="1503" 
d="M567 1094h789v-1094h-322v821h-465v-821h-319v821h-197v273h197v108q0 220 117.5 345.5t343.5 125.5q75 0 149 -22v-262q-41 12 -98 12q-93 0 -144 -50t-51 -143v-114zM1192 1278q-80 0 -138.5 58t-58.5 139t58.5 139.5t138.5 58.5q85 0 143 -57t58 -141
q0 -82 -58.5 -139.5t-142.5 -57.5z" />
    <glyph glyph-name="fl" unicode="fl" horiz-adv-x="1503" 
d="M1034 1669h322v-1669h-322v821h-465v-821h-319v821h-197v273h197v108q0 220 117.5 345.5t343.5 125.5q75 0 149 -22v-262q-41 12 -98 12q-93 0 -144 -50t-51 -143v-114h467v575z" />
    <glyph glyph-name="ffi" unicode="ffi" horiz-adv-x="2289" 
d="M1352 1094h790v-1094h-321v821h-467v-821h-320v821h-465v-821h-319v821h-197v273h197v108q0 220 117.5 345.5t343.5 125.5q75 0 149 -22v-262q-41 12 -98 12q-93 0 -144 -50t-51 -143v-114h467v108q0 220 117.5 345.5t343.5 125.5q76 0 150 -22v-262q-41 12 -99 12
q-93 0 -143.5 -50t-50.5 -143v-114zM1978 1278q-80 0 -138 58t-58 139t58 139.5t138 58.5q85 0 143 -57t58 -141q0 -82 -58.5 -139.5t-142.5 -57.5z" />
    <glyph glyph-name="ffl" unicode="ffl" horiz-adv-x="2287" 
d="M1819 1669h321v-1669h-321v821h-465v-821h-320v821h-465v-821h-319v821h-197v273h197v108q0 220 117.5 345.5t343.5 125.5q75 0 149 -22v-262q-41 12 -98 12q-93 0 -144 -50t-51 -143v-114h467v108q0 220 117.5 345.5t343.5 125.5q76 0 150 -22v-262q-41 12 -99 12
q-93 0 -143.5 -50t-50.5 -143v-114h467v575z" />
    <glyph glyph-name=".notdef" horiz-adv-x="1636" 
d="M1536 1604v-1604h-1352v1604h1352zM1415 129v1356h-1100z" />
    <glyph glyph-name=".null" horiz-adv-x="0" 
 />
    <glyph glyph-name="nonmarkingreturn" horiz-adv-x="682" 
 />
    <glyph glyph-name="space" unicode=" " horiz-adv-x="514" 
 />
    <glyph glyph-name="exclam" unicode="!" horiz-adv-x="694" 
d="M201 555l-31 725v324h352v-324l-30 -725h-291zM348 -23q-80 0 -138 58t-58 139q0 82 58 141.5t138 59.5q82 0 141.5 -58.5t59.5 -142.5q0 -82 -58.5 -139.5t-142.5 -57.5z" />
    <glyph glyph-name="quotedbl" unicode="&#x22;" horiz-adv-x="1046" 
d="M397 950l-26 -135h-164q-105 537 -105 594q0 82 52.5 134t134.5 52t134 -52t52 -134q0 -30 -26 -174zM866 950l-26 -135h-164q-105 537 -105 594q0 82 52.5 134t134.5 52t134 -52t52 -134q0 -30 -26 -174q-19 -116 -52 -285z" />
    <glyph glyph-name="numbersign" unicode="#" horiz-adv-x="1728" 
d="M1522 647v-233h-320l-92 -414h-256l94 414h-350l-92 -414h-256l92 414h-264v233h317l76 340h-264v236h317l86 383h256l-86 -383h350l89 383h254l-87 -383h267v-236h-320l-78 -340h267zM1004 643l77 350h-356l-78 -350h357z" />
    <glyph glyph-name="dollar" unicode="$" horiz-adv-x="1335" 
d="M1247 475q0 -200 -131.5 -332t-363.5 -155v-197h-170v197q-192 19 -333 115.5t-204 252.5l283 148q76 -172 258 -213v375q-258 77 -357 182q-120 117 -120 293q0 190 135 319q135 132 338 156v209h170v-209q164 -20 284.5 -107.5t182.5 -230.5l-273 -150
q-56 140 -196 183v-361q260 -80 378.5 -189.5t118.5 -285.5zM436 1161q0 -101 150 -160v318q-71 -13 -110.5 -55t-39.5 -103zM750 612v-323q77 18 122.5 60.5t45.5 101.5q0 54 -37 89t-131 72z" />
    <glyph glyph-name="percent" unicode="%" horiz-adv-x="1820" 
d="M72 1257q0 153 106 259t256 106t256 -106q107 -107 107 -259q0 -149 -107 -256q-106 -106 -256 -106t-256 106t-106 256zM248 0l1044 1604h277l-1043 -1604h-278zM307 1257q0 -51 38 -87.5t89 -36.5t89 36.5t38 87.5q0 54 -36.5 90.5t-90.5 36.5t-90.5 -36.5t-36.5 -90.5
zM1024 352q0 152 106 258q107 107 256 107t256 -107t107 -258q0 -149 -107 -256q-107 -104 -256 -104t-256 104q-106 106 -106 256zM1260 352q0 -51 37.5 -88t88.5 -37t89 37t38 88q0 54 -36.5 90.5t-90.5 36.5t-90 -36.5t-36 -90.5z" />
    <glyph glyph-name="ampersand" unicode="&#x26;" horiz-adv-x="1536" 
d="M1501 0h-391l-90 102q-186 -125 -410 -125q-221 0 -370 113q-150 114 -150 332q0 233 287 422l-62 67q-120 132 -120 287q0 176 133 303q132 129 331 129q189 0 326 -125q141 -123 141 -297q0 -227 -223 -358l-96 -57l231 -265q81 130 129 310l271 -64
q-58 -263 -205 -467zM666 1341q-68 0 -115 -43t-47 -100q0 -62 59 -127l68 -76l117 70q77 47 77 133q0 57 -46.5 100t-112.5 43zM633 264q110 0 201 55l-281 322q-141 -89 -141 -188q0 -94 63.5 -141.5t157.5 -47.5z" />
    <glyph glyph-name="quotesingle" unicode="'" horiz-adv-x="577" 
d="M397 950l-26 -135h-164q-105 537 -105 594q0 82 52.5 134t134.5 52t134 -52t52 -134q0 -30 -26 -174z" />
    <glyph glyph-name="parenleft" unicode="(" horiz-adv-x="843" 
d="M803 -94l-139 -187q-276 156 -424 409.5t-148 588.5v76q0 333 148 586t424 409l139 -186q-422 -308 -422 -811v-74q0 -506 422 -811z" />
    <glyph glyph-name="parenright" unicode=")" horiz-adv-x="837" 
d="M172 -281l-133 181q418 304 418 817v74q0 513 -418 817l133 180q278 -155 425.5 -407.5t147.5 -587.5v-76q0 -336 -147.5 -589.5t-425.5 -408.5z" />
    <glyph glyph-name="asterisk" unicode="*" horiz-adv-x="1030" 
d="M682 772l-168 227l-166 -227l-168 123l162 225l-264 88l65 197l263 -86v285h215v-285l264 86l67 -197l-264 -88l162 -225z" />
    <glyph glyph-name="plus" unicode="+" horiz-adv-x="1269" 
d="M793 199h-306v399h-399v299h399v397h306v-397h389v-299h-389v-399z" />
    <glyph glyph-name="comma" unicode="," horiz-adv-x="657" 
d="M551 147v-10q0 -135 -77 -262t-212 -219l-121 117q149 98 217 250q-40 -15 -71 -15q-79 0 -131 54.5t-52 140.5q0 88 62.5 150.5t150.5 62.5q103 0 168.5 -74t65.5 -195z" />
    <glyph glyph-name="hyphen" unicode="-" horiz-adv-x="937" 
d="M807 823v-315h-676v315h676z" />
    <glyph glyph-name="period" unicode="." horiz-adv-x="643" 
d="M322 -25q-90 0 -156 66t-66 156q0 92 65 157.5t157 65.5t156.5 -65.5t64.5 -157.5q0 -90 -66 -156t-155 -66z" />
    <glyph glyph-name="slash" unicode="/" horiz-adv-x="1150" 
d="M795 1669h297l-734 -1679h-295z" />
    <glyph glyph-name="zero" unicode="0" horiz-adv-x="1572" 
d="M100 803q0 218 72 403q73 179 234 301q160 121 385 121q221 0 376 -119q156 -114 232 -293t76 -405q0 -129 -27 -249.5t-84 -226.5t-137.5 -185t-194.5 -124.5t-248 -45.5q-167 0 -302 67t-218 186q-164 241 -164 570zM467 1032q-33 -108 -34.5 -223.5t36 -230.5
t115.5 -195q84 -84 202 -84q119 0 203 84q82 85 117 197q33 112 34.5 226.5t-36 227.5t-115.5 191q-83 86 -203 86q-119 0 -202 -86q-81 -81 -117 -193z" />
    <glyph glyph-name="one" unicode="1" horiz-adv-x="1011" 
d="M492 1208l-338 -192l-148 268l545 320h272v-1604h-331v1208z" />
    <glyph glyph-name="two" unicode="2" horiz-adv-x="1382" 
d="M96 0v291l559 459q147 120 207 196q58 73 58 162q0 87 -66.5 148t-163.5 61q-198 0 -278 -201l-306 129q60 191 218 285q162 98 368 98q259 0 414 -149q156 -147 156 -369q0 -169 -93 -291q-86 -116 -321 -301l-270 -215h692v-303h-1174z" />
    <glyph glyph-name="three" unicode="3" horiz-adv-x="1353" 
d="M1251 461q0 -210 -166 -348q-167 -138 -413 -138q-213 0 -371 88.5t-229 253.5l290 150q41 -87 125 -135.5t193 -48.5q106 0 170.5 50.5t64.5 135.5q0 90 -62 139t-173 49h-170v308h152q104 0 164.5 49.5t60.5 130.5q0 77 -62.5 125.5t-169.5 48.5q-180 0 -262 -178
l-297 141q67 165 218.5 255.5t353.5 90.5q245 0 399 -127t154 -334q0 -220 -220 -338v-2q132 -55 191 -143t59 -223z" />
    <glyph glyph-name="four" unicode="4" horiz-adv-x="1492" 
d="M854 317h-791v326l719 961h396v-988h227v-297h-227v-319h-324v317zM854 1214l-446 -598h446v598z" />
    <glyph glyph-name="five" unicode="5" horiz-adv-x="1349" 
d="M1255 537q0 -256 -170 -406q-168 -149 -428 -149q-414 0 -577 313l282 168q91 -172 304 -172q114 0 185 64t71 173q0 104 -73 167t-196 63q-121 0 -219 -94l-311 127l117 813h944v-301h-680l-51 -361q131 107 288 107q222 0 367 -136q147 -132 147 -376z" />
    <glyph glyph-name="six" unicode="6" horiz-adv-x="1423" 
d="M453 881q138 163 354 163q232 0 375 -149q147 -147 147 -360q0 -255 -180 -404q-183 -151 -418 -151q-318 0 -493 225q-136 177 -136 545q0 392 187 634t538 242q248 0 455 -160l-172 -254q-141 111 -289 111q-178 0 -270 -127q-89 -127 -98 -315zM453 524
q0 -104 82 -174q83 -71 192 -71q116 0 191 69q77 71 77 174q0 108 -75.5 175t-194.5 67q-114 0 -193 -66.5t-79 -173.5z" />
    <glyph glyph-name="seven" unicode="7" horiz-adv-x="1294" 
d="M858 1303h-795v301h1176v-285l-709 -1319h-372z" />
    <glyph glyph-name="eight" unicode="8" horiz-adv-x="1404" 
d="M1300 453q0 -215 -172 -344t-428 -129q-254 0 -426 129q-172 132 -172 337q0 261 281 385v3q-113 45 -180.5 140.5t-67.5 215.5q0 187 156 313q155 125 411 125q255 0 410 -125q156 -126 156 -313q0 -120 -67.5 -215.5t-180.5 -140.5v-3q280 -120 280 -378zM936 1149
q0 87 -65.5 144t-170.5 57q-102 0 -167.5 -57t-65.5 -142q0 -88 69 -144.5t164 -56.5q97 0 166.5 55.5t69.5 143.5zM967 473q0 92 -80 145q-82 54 -185 54q-111 0 -188.5 -54.5t-77.5 -144.5q0 -92 73 -153.5t189 -61.5q121 0 195 60.5t74 154.5z" />
    <glyph glyph-name="nine" unicode="9" horiz-adv-x="1423" 
d="M979 725q-144 -170 -361 -170q-229 0 -376 150q-148 151 -148 364q0 255 180 404q182 153 418 153q160 0 286.5 -61t205.5 -164q137 -177 137 -555q0 -396 -180 -631q-177 -235 -523 -235q-260 0 -466 159l172 256q140 -110 294 -110q177 0 265 125q87 124 96 315z
M971 1077q0 101 -84 176q-83 74 -191 74q-110 0 -190 -74q-78 -72 -78 -174q0 -110 74.5 -177.5t193.5 -67.5q110 0 193 65q82 67 82 178z" />
    <glyph glyph-name="colon" unicode=":" horiz-adv-x="688" 
d="M344 676q-93 0 -156 63q-65 65 -65 156q0 94 64.5 159.5t156.5 65.5q93 0 157 -65.5t64 -159.5q0 -91 -65 -156q-63 -63 -156 -63zM344 -25q-90 0 -156 66q-65 65 -65 156q0 94 63 157q66 66 158 66q90 0 156 -66q41 -37 57 -89t4.5 -103t-39 -95t-75.5 -69.5t-103 -22.5
z" />
    <glyph glyph-name="semicolon" unicode=";" horiz-adv-x="698" 
d="M346 676q-93 0 -156 63t-63 156q0 95 63 158q65 65 156 65q93 0 158 -65t65 -158q0 -91 -65 -156q-63 -63 -158 -63zM571 147v-10q0 -135 -76.5 -262.5t-211.5 -218.5l-121 117q149 98 217 250q-41 -15 -72 -15q-79 0 -130.5 54.5t-51.5 140.5q0 88 62.5 150.5
t150.5 62.5q103 0 168 -74t65 -195z" />
    <glyph glyph-name="less" unicode="&#x3c;" horiz-adv-x="1298" 
d="M1147 1362v-303l-709 -307v-4l709 -308v-311l-1071 492v251z" />
    <glyph glyph-name="equal" unicode="=" horiz-adv-x="1296" 
d="M1157 1178v-297h-1018v297h1018zM1157 616v-299h-1018v299h1018z" />
    <glyph glyph-name="greater" unicode="&#x3e;" horiz-adv-x="1298" 
d="M860 743v7l-708 307v305l1071 -490v-251l-1071 -492v309z" />
    <glyph glyph-name="question" unicode="?" horiz-adv-x="1130" 
d="M549 1329q-137 0 -211 -153l-277 145q62 141 197.5 224t298.5 83q218 0 356 -123q138 -120 138 -311q0 -128 -62 -217q-57 -87 -188 -193q-79 -65 -115.5 -119t-36.5 -124v-15h-311v68q0 87 34.5 153t116.5 138l99 86q129 114 129 205q0 67 -47 110t-121 43zM504 375
q85 0 143 -58t58 -143q0 -82 -58.5 -139.5t-142.5 -57.5q-80 0 -138.5 58t-58.5 139q0 82 58.5 141.5t138.5 59.5z" />
    <glyph glyph-name="at" unicode="@" horiz-adv-x="1773" 
d="M1274 242q-75 0 -140.5 32.5t-91.5 85.5q-40 -53 -109 -86.5t-132 -33.5q-141 0 -236 108q-96 110 -96 240q0 193 119 330q120 141 299 141q59 0 113 -31.5t77 -83.5l19 105h237l-86 -510q-21 -113 64 -113t157 100q76 101 76 250q0 238 -168 393q-172 158 -436 158
q-280 0 -483 -203q-201 -201 -201 -483q0 -280 180 -469q181 -190 492 -190q106 0 221.5 38t206.5 105l80 -125q-83 -74 -232 -121q-146 -49 -276 -49q-365 0 -596 231q-232 235 -232 578q0 349 246 592q250 244 592 244q326 0 543 -199q219 -198 219 -500q0 -234 -127 -385
q-125 -149 -299 -149zM907 834q-78 0 -137 -68q-58 -67 -55 -154q2 -59 40.5 -103t96.5 -44q77 0 135 67q57 69 57 158q0 63 -38 103.5t-99 40.5z" />
    <glyph glyph-name="A" unicode="A" horiz-adv-x="1622" 
d="M332 0h-334l612 1604h400l614 -1604h-342l-121 324h-710zM807 1282l-242 -651h484z" />
    <glyph glyph-name="B" unicode="B" horiz-adv-x="1523" 
d="M1434 442q0 -95 -33 -171t-87.5 -126t-129 -83t-154.5 -47.5t-168 -14.5h-676v1604h666q210 0 360 -111q152 -112 152 -313q0 -225 -225 -342v-4q152 -57 223.5 -149t71.5 -243zM1038 1128q0 88 -63 129t-168 41h-297v-346h274q254 0 254 176zM1110 485q0 181 -262 181
h-338v-359h348q252 0 252 178z" />
    <glyph glyph-name="C" unicode="C" horiz-adv-x="1703" 
d="M88 801q0 346 242 585q242 242 590 242q243 0 444 -127q203 -126 283 -346l-304 -139q-51 134 -164 211.5t-261 77.5q-207 0 -347 -146q-139 -145 -139 -354q0 -215 137 -361q139 -145 349 -145q146 0 260.5 81t169.5 216l305 -141q-80 -222 -289 -351
q-207 -127 -451 -127q-351 0 -587 236q-238 238 -238 588z" />
    <glyph glyph-name="D" unicode="D" horiz-adv-x="1675" 
d="M1583 805q0 -363 -246 -584q-247 -221 -665 -221h-486v1604h492q421 0 663 -211t242 -588zM1243 805q0 230 -156 356q-156 129 -401 129h-168v-977h164q255 0 408 129q153 132 153 363z" />
    <glyph glyph-name="E" unicode="E" horiz-adv-x="1357" 
d="M186 1604h1051v-312h-723v-325h647v-312h-647v-346h727v-309h-1055v1604z" />
    <glyph glyph-name="F" unicode="F" horiz-adv-x="1329" 
d="M518 948h649v-315h-649v-633h-332v1604h1057v-316h-725v-340z" />
    <glyph glyph-name="G" unicode="G" horiz-adv-x="1755" 
d="M426 803q0 -212 139 -363q137 -149 355 -149q159 0 270.5 74t142.5 196h-487v301h833v-125q0 -241 -110 -418q-106 -172 -274 -258t-375 -86q-366 0 -601 238q-231 240 -231 588q0 347 244 588q245 239 592 239q278 0 467 -139q186 -137 251 -313l-292 -144
q-48 118 -152 197q-106 86 -278 86q-206 0 -351 -148q-143 -146 -143 -364z" />
    <glyph glyph-name="H" unicode="H" horiz-adv-x="1708" 
d="M518 649v-649h-332v1604h332v-633h672v633h332v-1604h-332v649h-672z" />
    <glyph glyph-name="I" unicode="I" horiz-adv-x="706" 
d="M518 1604v-1604h-332v1604h332z" />
    <glyph glyph-name="J" unicode="J" horiz-adv-x="1273" 
d="M768 1604h332v-1117q0 -237 -152 -374q-151 -133 -375 -133q-376 0 -514 344l281 155q71 -182 227 -182q94 0 147.5 56.5t53.5 158.5v1092z" />
    <glyph glyph-name="K" unicode="K" horiz-adv-x="1507" 
d="M516 0h-330v1604h330v-699l551 699h414l-613 -766l654 -838h-428l-578 762v-762z" />
    <glyph glyph-name="L" unicode="L" horiz-adv-x="1236" 
d="M186 1604h330v-1289h686v-315h-1016v1604z" />
    <glyph glyph-name="M" unicode="M" horiz-adv-x="2142" 
d="M1626 1059l-446 -1059h-222l-444 1051h-2v-1051h-326v1604h428l455 -1076l447 1076h440v-1604h-328v1059h-2z" />
    <glyph glyph-name="N" unicode="N" horiz-adv-x="1777" 
d="M514 1106v-1106h-328v1604h379l697 -1047v1047h327v-1604h-338z" />
    <glyph glyph-name="O" unicode="O" horiz-adv-x="1841" 
d="M88 801q0 342 246 585q245 242 592 242q345 0 585 -237q242 -236 242 -582q0 -349 -246 -592q-242 -242 -589 -242q-345 0 -588 240q-242 239 -242 586zM571 1159q-143 -146 -143 -356t143 -359q144 -147 351 -147q206 0 350 147q143 149 143 359t-143 356
q-145 148 -350 148q-206 0 -351 -148z" />
    <glyph glyph-name="P" unicode="P" horiz-adv-x="1417" 
d="M1356 1090q0 -258 -162 -392q-160 -133 -424 -133h-252v-565h-332v1604h596q252 0 412 -136q162 -131 162 -378zM1022 1081q0 104 -73 156.5t-195 52.5h-236v-416h238q116 0 191 53.5t75 153.5z" />
    <glyph glyph-name="Q" unicode="Q" horiz-adv-x="1843" 
d="M1757 195l-203 -236l-174 158q-215 -140 -462 -140q-346 0 -590 238q-240 240 -240 586q0 341 244 585q245 242 594 242q345 0 585 -237q242 -236 242 -582q0 -266 -151 -479zM922 295q106 0 206 47l-254 219l203 240l275 -248q63 111 63 250q0 205 -145 356
q-144 150 -348 150q-207 0 -351 -150q-145 -148 -145 -356t145 -359q143 -149 351 -149z" />
    <glyph glyph-name="R" unicode="R" horiz-adv-x="1497" 
d="M1419 0h-368l-332 575h-201v-575h-332v1604h633q245 0 406 -134q161 -130 161 -374q0 -349 -329 -469zM518 1290v-407h277q110 0 183 53.5t73 153.5q0 101 -71 150.5t-187 49.5h-275z" />
    <glyph glyph-name="S" unicode="S" horiz-adv-x="1335" 
d="M692 969q296 -84 428.5 -197.5t132.5 -300.5q0 -221 -155 -358q-156 -138 -432 -138q-223 0 -388.5 101t-238.5 276l287 148q48 -106 139 -165t211 -59q106 0 175 48t69 122q0 71 -64 111q-62 43 -240 96q-278 82 -391 195q-123 120 -123 297q0 211 164 346
q162 137 396 137q201 0 347.5 -90t215.5 -256l-275 -149q-82 196 -303 196q-97 0 -155 -45.5t-58 -118.5q0 -70 59 -113.5t199 -82.5z" />
    <glyph glyph-name="T" unicode="T" horiz-adv-x="1378" 
d="M524 0v1282h-481v322h1292v-322h-481v-1282h-330z" />
    <glyph glyph-name="U" unicode="U" horiz-adv-x="1628" 
d="M1130 1604h328v-957q0 -319 -165.5 -494.5t-481.5 -175.5q-315 0 -478 174.5t-163 483.5v969h334l-2 -961q0 -166 85 -256t226 -90q151 0 234 90.5t83 247.5v969z" />
    <glyph glyph-name="V" unicode="V" horiz-adv-x="1605" 
d="M31 1604h358l416 -1219l418 1219h352l-582 -1604h-383z" />
    <glyph glyph-name="W" unicode="W" horiz-adv-x="2439" 
d="M866 0h-356l-471 1604h354l305 -1139l346 1139h355l346 -1147l315 1147h342l-475 -1604h-358l-348 1163h-4z" />
    <glyph glyph-name="X" unicode="X" horiz-adv-x="1546" 
d="M373 0h-375l577 825l-544 779h389l354 -521l359 521h387l-549 -777l577 -827h-387l-391 578z" />
    <glyph glyph-name="Y" unicode="Y" horiz-adv-x="1562" 
d="M616 0v635l-587 969h383l370 -641l375 641h379l-588 -955v-649h-332z" />
    <glyph glyph-name="Z" unicode="Z" horiz-adv-x="1402" 
d="M84 0v293l799 1003h-766v308h1177v-285l-796 -1012h813l2 -307h-1229z" />
    <glyph glyph-name="bracketleft" unicode="[" horiz-adv-x="917" 
d="M846 1776v-250h-389v-1534h389v-250h-664v2034h664z" />
    <glyph glyph-name="backslash" unicode="\" horiz-adv-x="1150" 
d="M1087 -10h-294l-734 1679h297z" />
    <glyph glyph-name="bracketright" unicode="]" horiz-adv-x="917" 
d="M463 -8v1534h-389v250h661v-2034h-661v250h389z" />
    <glyph glyph-name="asciicircum" unicode="^" horiz-adv-x="1335" 
d="M408 924h-326l465 680h244l462 -680h-323l-262 424z" />
    <glyph glyph-name="underscore" unicode="_" horiz-adv-x="1132" 
d="M1133 -131v-260h-1133v260h1133z" />
    <glyph glyph-name="grave" unicode="`" horiz-adv-x="634" 
d="M344 1276l-324 383h367l219 -383h-262z" />
    <glyph glyph-name="a" unicode="a" horiz-adv-x="1218" 
d="M455 -20q-155 0 -262 88t-107 237v4q0 95 43.5 165t118.5 106q138 65 325 65h109q86 0 86 80q0 59 -46.5 97t-129.5 38q-162 0 -244 -147l-244 145q140 260 502 260q221 0 348 -114t127 -326v-678h-295v135l-4 2q-112 -157 -327 -157zM547 213q101 0 160 59t59 152v25
h-193q-72 0 -118.5 -33t-46.5 -92q0 -54 38 -82.5t101 -28.5z" />
    <glyph glyph-name="b" unicode="b" horiz-adv-x="1404" 
d="M467 1667v-704h4q121 151 332 151q231 0 375 -172q145 -174 145 -393q0 -223 -149 -397q-150 -172 -379 -172q-217 0 -332 151h-4v-131h-312v1667h320zM459 549q0 -122 78 -203q78 -78 192 -78q115 0 193 78q77 80 77 203t-79 199q-77 77 -193 77q-113 0 -190 -77
q-78 -78 -78 -199z" />
    <glyph glyph-name="c" unicode="c" horiz-adv-x="1259" 
d="M670 -25q-257 0 -422 162q-166 163 -166 408q0 241 172 407t418 166q185 0 324 -89.5t192 -248.5l-281 -116q-69 161 -235 161q-113 0 -187.5 -75.5t-74.5 -200.5q0 -123 72.5 -201t189.5 -78q171 0 241 162l283 -117q-62 -165 -201 -252.5t-325 -87.5z" />
    <glyph glyph-name="d" unicode="d" horiz-adv-x="1404" 
d="M946 0v139h-4q-108 -159 -340 -159q-233 0 -375 167q-145 171 -145 402q0 220 149 391q149 174 375 174q204 0 328 -145h4v698h317v-1667h-309zM946 549q0 121 -77 198.5t-193 77.5t-193 -77.5t-77 -198.5q0 -123 77 -203q78 -78 193 -78q114 0 192 78q78 81 78 203z" />
    <glyph glyph-name="e" unicode="e" horiz-adv-x="1284" 
d="M1200 459h-794q13 -98 89 -156.5t181 -58.5q73 0 140.5 36t103.5 95l231 -152q-137 -248 -471 -248q-251 0 -428 160q-172 163 -172 414q0 233 170 403q171 168 409 168q243 0 394 -151t151 -396q0 -64 -4 -114zM414 670h471q-6 78 -68.5 134t-165.5 56q-101 0 -164 -63
q-64 -61 -73 -127z" />
    <glyph glyph-name="f" unicode="f" horiz-adv-x="888" 
d="M860 1651v-262q-41 12 -98 12q-93 0 -144 -50t-51 -143v-114h287v-273h-285v-821h-319v821h-197v273h197v108q0 220 117.5 345.5t343.5 125.5q75 0 149 -22z" />
    <glyph glyph-name="g" unicode="g" horiz-adv-x="1396" 
d="M104 -233l261 149q91 -184 290 -184q128 0 201.5 65.5t73.5 190.5v166h-4q-116 -146 -316 -146q-232 0 -381 158q-147 156 -147 391q0 220 143 385q143 168 373 168q207 0 332 -149h4v133h313v-1098q0 -255 -166 -399q-163 -144 -424 -144q-406 0 -553 314zM938 557
q0 118 -75 193t-191 75q-114 0 -190 -75.5t-76 -192.5q0 -121 75 -195.5t191 -74.5q114 0 190 75t76 195z" />
    <glyph glyph-name="h" unicode="h" horiz-adv-x="1308" 
d="M1171 0h-317v606q0 97 -49.5 155t-140.5 58q-93 0 -145 -59.5t-52 -149.5v-610h-320v1667h320v-702h2q59 86 145 116q85 33 156 33q196 0 299 -127q102 -126 102 -307v-680z" />
    <glyph glyph-name="i" unicode="i" horiz-adv-x="616" 
d="M305 1673q85 0 143 -57t58 -141q0 -82 -58.5 -139.5t-142.5 -57.5q-80 0 -138 58t-58 139t58 139.5t138 58.5zM469 0h-322v1094h322v-1094z" />
    <glyph glyph-name="j" unicode="j" horiz-adv-x="632" 
d="M322 1673q84 0 142 -58t58 -140t-58 -139.5t-142 -57.5q-82 0 -139.5 57.5t-57.5 139.5t57.5 140t139.5 58zM164 1094h319v-1176q0 -234 -115.5 -346.5t-353.5 -112.5q-66 0 -112 15v268q27 -6 55 -6q107 0 157 46t50 152v1160z" />
    <glyph glyph-name="k" unicode="k" horiz-adv-x="1267" 
d="M467 518v-518h-320v1669h320v-1005l379 430h407l-440 -504l453 -590h-404l-387 518h-8z" />
    <glyph glyph-name="l" unicode="l" horiz-adv-x="616" 
d="M469 1669v-1669h-322v1669h322z" />
    <glyph glyph-name="m" unicode="m" horiz-adv-x="1988" 
d="M1354 819q-93 0 -145 -56t-52 -153v-610h-317v606q0 213 -178 213q-95 0 -145 -57t-50 -156v-606h-320v1094h314v-144h4q43 78 131 123t188 45q229 0 320 -174q81 92 164.5 133t197.5 41q188 0 286.5 -116.5t98.5 -319.5v-682h-319v610q0 209 -178 209z" />
    <glyph glyph-name="n" unicode="n" horiz-adv-x="1308" 
d="M1171 0h-317v606q0 99 -49 156t-141 57q-94 0 -145.5 -59.5t-51.5 -153.5v-606h-320v1094h318v-144h2q41 69 108 107q99 57 201 57q197 0 295 -125q100 -124 100 -309v-680z" />
    <glyph glyph-name="o" unicode="o" horiz-adv-x="1353" 
d="M80 545q0 245 174 407q175 166 426 166q249 0 422 -164q172 -163 172 -403q0 -247 -174 -412q-176 -164 -424 -164q-253 0 -424 162q-172 163 -172 408zM408 549q0 -123 77 -203q78 -78 193 -78q116 0 192 79t76 202q0 121 -78 199q-76 79 -192 79q-115 0 -191 -79
q-77 -77 -77 -199z" />
    <glyph glyph-name="p" unicode="p" horiz-adv-x="1404" 
d="M465 1094v-136h4q114 156 334 156q231 0 375 -172q145 -174 145 -393q0 -223 -149 -397q-150 -172 -379 -172q-207 0 -324 141h-4v-662h-320v1635h318zM459 549q0 -122 78 -203q78 -78 192 -78q115 0 193 78q77 80 77 203t-79 199q-77 77 -193 77q-113 0 -190 -77
q-78 -78 -78 -199z" />
    <glyph glyph-name="q" unicode="q" horiz-adv-x="1404" 
d="M938 -541v666h-4q-109 -145 -332 -145q-233 0 -375 167q-145 171 -145 402q0 220 149 391q149 174 375 174q208 0 332 -145h2v125h315v-1635h-317zM946 549q0 121 -77 198.5t-193 77.5t-193 -77.5t-77 -198.5q0 -123 77 -203q78 -78 193 -78q114 0 192 78q78 81 78 203z
" />
    <glyph glyph-name="r" unicode="r" horiz-adv-x="870" 
d="M840 1098v-316q-38 6 -76 6q-150 0 -223.5 -86t-73.5 -239v-463h-320v1094h318v-168h2q37 78 120.5 129t188.5 51q43 0 64 -8z" />
    <glyph glyph-name="s" unicode="s" horiz-adv-x="1048" 
d="M971 330q0 -160 -117.5 -257.5t-318.5 -97.5q-346 0 -478 252l236 140q69 -134 246 -134q59 0 96 23.5t37 56.5q0 35 -37.5 60t-136.5 47q-389 85 -389 354q0 154 122 248q125 98 297 98q148 0 257 -59t165 -162l-231 -137q-61 104 -199 104q-49 0 -81.5 -23.5
t-32.5 -56.5q0 -70 143 -100q211 -44 316.5 -130t105.5 -226z" />
    <glyph glyph-name="t" unicode="t" horiz-adv-x="921" 
d="M823 270v-264q-67 -20 -149 -20q-211 0 -322.5 108t-111.5 303v420h-197v277h201v342h315v-342h270v-277h-270v-381q0 -92 47.5 -133t143.5 -41q42 0 73 8z" />
    <glyph glyph-name="u" unicode="u" horiz-adv-x="1308" 
d="M137 1094h320v-611q0 -99 47 -154t141 -55t145.5 57.5t51.5 151.5v611h319v-1094h-315v135h-2q-109 -158 -305 -158q-194 0 -299 123q-103 127 -103 308v686z" />
    <glyph glyph-name="v" unicode="v" horiz-adv-x="1271" 
d="M29 1094h338l270 -729l270 729h338l-448 -1094h-326z" />
    <glyph glyph-name="w" unicode="w" horiz-adv-x="1828" 
d="M1268 410l207 684h319l-344 -1094h-313l-224 698h-2l-225 -698h-309l-340 1094h328l196 -678h2l205 678h295z" />
    <glyph glyph-name="x" unicode="x" horiz-adv-x="1177" 
d="M377 0h-354l393 551l-381 543h358l197 -310l203 310h352l-385 -537l395 -557h-358l-209 322z" />
    <glyph glyph-name="y" unicode="y" horiz-adv-x="1251" 
d="M487 117l-460 977h352l272 -625l244 625h330l-664 -1633h-342z" />
    <glyph glyph-name="z" unicode="z" horiz-adv-x="1107" 
d="M598 821h-494v273h906v-244l-516 -578h520v-272h-926v248z" />
    <glyph glyph-name="braceleft" unicode="{" horiz-adv-x="925" 
d="M852 -8v-250h-154q-254 0 -370 104q-118 106 -78 371l31 219q17 108 -34.5 152.5t-172.5 44.5h-33v252h33q121 0 172.5 44t34.5 152l-31 217q-37 255 75.5 366.5t372.5 111.5h154v-250h-121q-110 0 -157.5 -30.5t-51 -97.5t14.5 -175l26 -181q15 -106 -37 -181.5
t-186 -100.5v-2q59 -11 103.5 -34.5t69.5 -52.5t40.5 -63.5t15.5 -67.5t-6 -65l-26 -180q-18 -108 -14.5 -175t51 -97.5t157.5 -30.5h121z" />
    <glyph glyph-name="bar" unicode="|" horiz-adv-x="641" 
d="M459 1825v-2063h-277v2063h277z" />
    <glyph glyph-name="braceright" unicode="}" horiz-adv-x="925" 
d="M76 -258v250h121q158 0 192 69q35 71 0 234l-27 180q-4 32 -3.5 65t16 67.5t40 63.5t69 52.5t102.5 34.5v2q-133 25 -186 101t-38 181l27 181q34 161 0 231q-35 72 -192 72h-121v250h151q262 0 374.5 -110.5t76.5 -367.5l-33 -217q-17 -108 35.5 -152t173.5 -44h31v-252
h-31q-121 0 -173.5 -44.5t-35.5 -152.5l33 -219q37 -266 -82 -371q-116 -104 -369 -104h-151z" />
    <glyph glyph-name="asciitilde" unicode="~" horiz-adv-x="1292" 
d="M831 442q-61 -2 -125.5 22.5t-107 55.5t-81.5 55.5t-56 22.5q-77 0 -80 -147h-272q-11 205 81.5 320.5t270.5 115.5q68 0 131 -23t102 -55q98 -78 137 -78q77 0 80 148h273q11 -205 -82 -321t-271 -116z" />
    <glyph glyph-name="exclamdown" unicode="&#xa1;" horiz-adv-x="661" 
d="M330 723q-85 0 -143 57t-58 142q0 82 58 139t143 57q80 0 138 -57.5t58 -138.5q0 -82 -58 -140.5t-138 -58.5zM156 -186l30 727h291l31 -725v-324h-352v322z" />
    <glyph glyph-name="cent" unicode="&#xa2;" horiz-adv-x="1267" 
d="M915 434l277 -115q-53 -146 -167 -230t-273 -103v-195h-168v197q-217 27 -357 182q-137 155 -137 375q0 213 139 370q141 156 355 191v199h168v-197q157 -19 272 -105t162 -225l-277 -114q-53 124 -161 151v-534q111 26 167 153zM416 549q0 -96 46 -166t126 -96v522
q-77 -27 -124.5 -95.5t-47.5 -164.5z" />
    <glyph glyph-name="sterling" unicode="&#xa3;" horiz-adv-x="1388" 
d="M1104 381l225 -156q-43 -121 -144 -184.5t-239 -63.5q-104 0 -229 52q-127 53 -197 53q-108 0 -266 -94l-156 276q159 94 235.5 175.5t76.5 176.5q0 5 -4 37h-289v260h172q-70 143 -70 234q0 197 156 338q155 143 383 143q200 0 334 -93t182 -257l-299 -139
q-58 178 -213 178q-89 0 -145 -47.5t-56 -128.5q0 -69 78 -228h397v-260h-313v-20q0 -165 -154 -268q27 6 52 6q81 0 172 -39t157 -39q102 0 154 88z" />
    <glyph glyph-name="currency" unicode="&#xa4;" horiz-adv-x="1384" 
d="M1294 145l-194 -196l-176 180q-113 -55 -232 -55q-117 0 -227 55l-178 -178l-197 196l174 172q-61 104 -61 236q0 121 59 236l-172 174l197 194l178 -180q104 55 227 55q129 0 230 -55l176 178l194 -192l-170 -174q64 -113 64 -236q0 -122 -64 -238zM690 756
q-89 0 -147 -56.5t-58 -146.5q0 -88 58.5 -145.5t146.5 -57.5q90 0 148.5 57.5t58.5 145.5q0 90 -58 146.5t-149 56.5z" />
    <glyph glyph-name="yen" unicode="&#xa5;" horiz-adv-x="1591" 
d="M963 637v-121h469v-211h-469v-305h-332v305h-469v211h469v121h-469v211h358l-448 756h383l340 -631l346 631h379l-455 -756h367v-211h-469z" />
    <glyph glyph-name="brokenbar" unicode="&#xa6;" horiz-adv-x="636" 
d="M180 1825h277v-799h-277v799zM457 -238h-277v799h277v-799z" />
    <glyph glyph-name="section" unicode="&#xa7;" horiz-adv-x="1363" 
d="M1167 336q0 -163 -129 -262t-348 -99q-408 0 -543 289l226 135q44 -80 126.5 -127t190.5 -47q70 0 112 27t42 67q0 38 -41 63t-154 54l-170 41q-185 43 -286 122.5t-101 186.5q0 198 207 275q-100 75 -100 211q0 162 131.5 258t353.5 96q351 0 473 -242l-223 -137
q-76 131 -256 131q-66 0 -111 -27.5t-45 -64.5t34 -62.5t124 -47.5l207 -50q387 -88 387 -311q0 -194 -205 -270q98 -76 98 -209zM516 942q-56 0 -91.5 -26.5t-35.5 -75.5q0 -79 232 -135q166 -41 231 -41q54 0 89.5 27.5t35.5 76.5q0 78 -219 131l-13 2q-166 41 -229 41z
" />
    <glyph glyph-name="dieresis" unicode="&#xa8;" horiz-adv-x="901" 
d="M27 1442q0 73 51 125.5t125 52.5q73 0 125.5 -53t52.5 -125q0 -74 -52.5 -126t-125.5 -52q-74 0 -125 51.5t-51 126.5zM514 1442q0 73 51.5 125.5t124.5 52.5q74 0 126 -52t52 -126q0 -75 -52 -126.5t-126 -51.5t-125 51.5t-51 126.5z" />
    <glyph glyph-name="copyright" unicode="&#xa9;" horiz-adv-x="1830" 
d="M909 -20q-338 0 -577 239q-240 243 -240 584q0 337 244 581t579 244q340 0 582 -239t242 -580q4 -163 -64.5 -317.5t-182 -267.5t-268 -180.5t-315.5 -63.5zM1391 1290q-200 203 -478 203q-277 0 -477 -203q-198 -201 -198 -485t198 -488q199 -202 477 -202
q279 0 478 202q202 205 202 488t-202 485zM926 299q-229 0 -375 143q-145 145 -145 361q0 213 151 358q151 148 371 148q163 0 286 -79t170 -220l-249 -103q-59 144 -207 144q-100 0 -167 -68t-67 -178q0 -107 65.5 -176.5t168.5 -69.5q152 0 213 143l248 -102
q-55 -147 -177 -224t-286 -77z" />
    <glyph glyph-name="ordfeminine" unicode="&#xaa;" horiz-adv-x="1128" 
d="M739 793v88h-4q-74 -103 -231 -103q-161 0 -262 119q-103 121 -103 279q0 152 105 272q105 123 264 123q144 0 227 -103h4v86h222v-761h-222zM688 1036q55 55 55 140t-55 137q-54 55 -133 55t-135 -55q-53 -53 -53 -137t53 -140q56 -56 135 -56t133 56zM961 606v-198
h-811v198h811z" />
    <glyph glyph-name="guillemotleft" unicode="&#xab;" horiz-adv-x="1380" 
d="M403 618l308 -303l-176 -170l-478 471l480 474l172 -170zM967 618l307 -303l-174 -170l-477 471l479 474l172 -170z" />
    <glyph glyph-name="logicalnot" unicode="&#xac;" horiz-adv-x="1470" 
d="M1325 1145v-664h-309v373h-916v291h1225z" />
    <glyph glyph-name="registered" unicode="&#xae;" horiz-adv-x="1335" 
d="M1231 1057q0 -234 -166 -400q-163 -163 -397 -163q-235 0 -398 163q-164 167 -164 400t164 397q163 166 398 166q234 0 397 -166q166 -166 166 -397zM346 729q133 -133 322 -133t321 135q135 135 135 326q0 190 -135 325q-133 136 -321 136q-189 0 -322 -136
q-133 -133 -133 -325t133 -328zM932 1176q0 -142 -133 -189l145 -252h-147l-133 232h-80v-232h-133v643h254q101 0 164 -53t63 -149zM584 1253v-163h110q44 0 73.5 21t29.5 60q0 82 -105 82h-108z" />
    <glyph glyph-name="overscore" unicode="&#xaf;" horiz-adv-x="827" 
d="M41 1286v240h745v-240h-745z" />
    <glyph glyph-name="degree" unicode="&#xb0;" horiz-adv-x="944" 
d="M471 844q-160 0 -272 112q-113 113 -113 277q0 157 113 270q115 115 272 115t272 -115t115 -270q0 -164 -113 -277q-112 -112 -274 -112zM471 1395q-69 0 -116.5 -47t-47.5 -115q0 -69 47.5 -117.5t116.5 -48.5t116.5 48.5t47.5 117.5q0 63 -49.5 112.5t-114.5 49.5z" />
    <glyph glyph-name="plusminus" unicode="&#xb1;" horiz-adv-x="1349" 
d="M537 770h-406v295h406v340h288v-340h394v-295h-394v-342h-288v342zM141 0v285h1067v-285h-1067z" />
    <glyph glyph-name="uni00B2" unicode="&#xb2;" horiz-adv-x="960" 
d="M463 1085h373v-213h-719v201l360 291q62 50 85.5 81t23.5 66q0 40 -30.5 67.5t-82.5 27.5q-87 0 -127 -105l-215 90q30 107 124 170.5t228 63.5q176 0 279 -115q69 -81 69 -188q0 -93 -47 -158q-44 -59 -168 -156z" />
    <glyph glyph-name="uni00B3" unicode="&#xb3;" horiz-adv-x="923" 
d="M678 1352q67 -25 105 -79t38 -126q0 -130 -101.5 -211.5t-266.5 -81.5q-278 0 -355 215l199 96q46 -100 152 -100q57 0 91.5 25.5t34.5 66.5q0 92 -126 92h-103v187h94q121 0 121 90t-121 90q-96 0 -139 -100l-199 96q37 100 128.5 156.5t222.5 56.5q157 0 254.5 -76.5
t97.5 -202.5q0 -60 -35 -114t-92 -80z" />
    <glyph glyph-name="acute" unicode="&#xb4;" horiz-adv-x="624" 
d="M281 1276h-263l220 383h366z" />
    <glyph glyph-name="uni00B5" unicode="&#xb5;" horiz-adv-x="1363" 
d="M170 1094h319v-611q0 -99 48 -154t143 -55q92 0 143 58t51 151v611h320v-1094h-315v135h-2q-103 -151 -277 -151q-72 0 -121 32v-352h-309v1430z" />
    <glyph glyph-name="paragraph" unicode="&#xb6;" horiz-adv-x="1155" 
d="M635 0v737h-107q-189 0 -325 127q-133 130 -133 307q0 179 133 306q136 127 325 127h424v-1604h-317z" />
    <glyph glyph-name="middot" unicode="&#xb7;" horiz-adv-x="661" 
d="M330 424q-93 0 -156 63q-65 65 -65 156q0 95 65 160t156 65q94 0 158.5 -65.5t64.5 -159.5q0 -90 -66 -156q-63 -63 -157 -63z" />
    <glyph glyph-name="cedilla" unicode="&#xb8;" horiz-adv-x="618" 
d="M578 -207q0 -328 -388 -328q-87 0 -149 19v215q65 -10 109 -10q86 0 130 50.5t44 143.5q0 59 -25 117h233q46 -88 46 -207z" />
    <glyph glyph-name="uni00B9" unicode="&#xb9;" horiz-adv-x="768" 
d="M350 872v654l-213 -121l-106 192l352 203h240v-928h-273z" />
    <glyph glyph-name="ordmasculine" unicode="&#xba;" horiz-adv-x="1107" 
d="M555 1571q174 0 293 -113q121 -115 121 -282q0 -169 -123 -283q-121 -115 -293 -115q-176 0 -295 113t-119 280q0 168 121 283q123 117 295 117zM367 1176q0 -85 54 -140t134 -55q79 0 132.5 55t53.5 140q0 84 -54 138t-134 54q-79 0 -132.5 -54t-53.5 -138zM150 408v198
h808v-198h-808z" />
    <glyph glyph-name="guillemotright" unicode="&#xbb;" horiz-adv-x="1380" 
d="M758 616l-477 -471l-175 170l308 301l-308 304l175 170zM1323 616l-477 -471l-174 170l305 301l-305 304l172 170z" />
    <glyph glyph-name="onequarter" unicode="&#xbc;" horiz-adv-x="2021" 
d="M381 1327l-213 -121l-107 195l353 203h237v-930h-270v653zM313 0l1045 1604h276l-1042 -1604h-279zM1540 0v168h-469v256l412 506h297v-549h153v-213h-153v-168h-240zM1540 381v301l-242 -301h242z" />
    <glyph glyph-name="onehalf" unicode="&#xbd;" horiz-adv-x="2033" 
d="M170 1206l-109 195l355 203h237v-930l-270 2v651zM1360 1604h276l-1042 -1604h-281zM1554 213h375v-213h-719v201l359 291q63 51 85.5 81.5t22.5 67.5q0 40 -29 66t-81 26q-89 0 -129 -104l-215 92q29 106 123.5 168.5t228.5 62.5q179 0 278 -114q72 -84 72 -189
q0 -90 -47 -155q-48 -64 -168 -158z" />
    <glyph glyph-name="threequarters" unicode="&#xbe;" horiz-adv-x="2091" 
d="M666 1153q67 -25 105 -79t38 -126q0 -130 -102 -211.5t-267 -81.5q-277 0 -354 215l199 97q46 -101 151 -101q57 0 92 25.5t35 66.5q0 93 -127 93h-102v186h94q121 0 121 90t-121 90q-96 0 -139 -100l-199 96q37 100 128 156.5t222 56.5q157 0 255 -76t98 -202
q0 -60 -35 -114.5t-92 -80.5zM399 0l1043 1604h278l-1042 -1604h-279zM1626 0v168h-469v256l412 506h297v-549h153v-213h-153v-168h-240zM1626 381v301l-242 -301h242z" />
    <glyph glyph-name="questiondown" unicode="&#xbf;" horiz-adv-x="1097" 
d="M612 721q-85 0 -142.5 58t-57.5 143q0 82 58 139t142 57q80 0 138.5 -57.5t58.5 -138.5q0 -82 -58.5 -141.5t-138.5 -59.5zM567 -233q137 0 211 153l277 -145q-62 -141 -197.5 -224t-298.5 -83q-219 0 -356 122q-137 119 -137 312q0 126 59 215q63 91 190 194
q79 65 115.5 119.5t36.5 124.5v14h311v-67q0 -87 -34.5 -153t-116.5 -138l-99 -86q-129 -114 -129 -205q0 -67 47 -110t121 -43z" />
    <glyph glyph-name="Agrave" unicode="&#xc0;" horiz-adv-x="1622" 
d="M358 2134h367l219 -383h-262zM332 0h-334l612 1604h400l614 -1604h-342l-121 324h-710zM807 1282l-242 -651h484z" />
    <glyph glyph-name="Aacute" unicode="&#xc1;" horiz-adv-x="1622" 
d="M944 1751h-262l219 383h367zM332 0h-334l612 1604h400l614 -1604h-342l-121 324h-710zM807 1282l-242 -651h484z" />
    <glyph glyph-name="Acircumflex" unicode="&#xc2;" horiz-adv-x="1622" 
d="M410 1749l245 356h301l246 -356h-270l-125 186l-125 -186h-272zM332 0h-334l612 1604h400l614 -1604h-342l-121 324h-710zM807 1282l-242 -651h484z" />
    <glyph glyph-name="Atilde" unicode="&#xc3;" horiz-adv-x="1622" 
d="M678 2087q65 0 126 -31.5t102.5 -62.5t60.5 -31q69 0 69 119h199q8 -156 -63 -245t-205 -89q-62 0 -123.5 31.5t-104.5 62.5t-61 31q-67 0 -70 -119h-196q-11 155 60 244.5t206 89.5zM332 0h-334l612 1604h400l614 -1604h-342l-121 324h-710zM807 1282l-242 -651h484z
" />
    <glyph glyph-name="Adieresis" unicode="&#xc4;" horiz-adv-x="1622" 
d="M735 1911q0 -73 -52.5 -125.5t-125.5 -52.5t-124.5 52t-51.5 126t51.5 126t124.5 52t125.5 -53t52.5 -125zM1190 1784q-51 -51 -125 -51t-125 51q-51 54 -51 127.5t51 124.5q51 54 125 54t125 -54q54 -51 54 -124.5t-54 -127.5zM332 0h-334l612 1604h400l614 -1604h-342
l-121 324h-710zM807 1282l-242 -651h484z" />
    <glyph glyph-name="Aring" unicode="&#xc5;" horiz-adv-x="1622" 
d="M1624 0h-342l-121 324h-710l-119 -324h-334l573 1505q-79 85 -79 203q0 125 94 213t223 88t223 -88t94 -213q0 -116 -79 -201zM809 1831q-59 0 -96 -35.5t-37 -87.5t38.5 -89.5t94.5 -37.5q55 0 93 37.5t38 89.5q0 47 -40 85t-91 38zM1049 631l-242 651l-242 -651h484z
" />
    <glyph glyph-name="AE" unicode="&#xc6;" horiz-adv-x="2158" 
d="M2036 1604v-312h-711v-325h637v-312h-637v-346h717v-309h-1045v322h-508l-157 -322h-359l813 1604h1250zM997 1294h-18l-336 -665h354v665z" />
    <glyph glyph-name="Ccedilla" unicode="&#xc7;" horiz-adv-x="1703" 
d="M1348 596l305 -141q-70 -193 -244 -320q-171 -124 -385 -151q37 -84 37 -191q0 -328 -387 -328q-88 0 -150 19v215q65 -10 109 -10q86 0 131 51t45 143q0 51 -21 103q-305 44 -503 270q-197 232 -197 545q0 346 242 585q242 242 590 242q243 0 444 -127
q203 -126 283 -346l-304 -139q-51 134 -164 211.5t-261 77.5q-207 0 -347 -146q-139 -145 -139 -354q0 -215 137 -361q139 -145 349 -145q146 0 260.5 81t169.5 216z" />
    <glyph glyph-name="Egrave" unicode="&#xc8;" horiz-adv-x="1366" 
d="M336 2134h366l220 -383h-263zM522 967h647v-312h-647v-346h727v-309h-1063v1604h1057v-312h-721v-325z" />
    <glyph glyph-name="Eacute" unicode="&#xc9;" horiz-adv-x="1366" 
d="M770 1751h-260l217 383h369zM522 309h727v-309h-1063v1604h1057v-312h-721v-325h647v-312h-647v-346z" />
    <glyph glyph-name="Ecircumflex" unicode="&#xca;" horiz-adv-x="1366" 
d="M319 1749l252 356h299l248 -356h-270l-127 186l-123 -186h-279zM522 967h647v-312h-647v-346h727v-309h-1063v1604h1057v-312h-721v-325z" />
    <glyph glyph-name="Edieresis" unicode="&#xcb;" horiz-adv-x="1357" 
d="M455 2089q73 0 125.5 -52.5t52.5 -125.5t-52.5 -125.5t-125.5 -52.5t-124.5 52t-51.5 126t51 126t125 52zM963 2089q73 0 125.5 -52.5t52.5 -125.5t-52.5 -125.5t-125.5 -52.5t-125 52t-52 126t51 126t126 52zM1237 1292h-723v-325h647v-312h-647v-346h727v-309h-1055
v1604h1051v-312z" />
    <glyph glyph-name="Igrave" unicode="&#xcc;" horiz-adv-x="706" 
d="M-102 2134h366l219 -383h-262zM518 1604v-1604h-332v1604h332z" />
    <glyph glyph-name="Iacute" unicode="&#xcd;" horiz-adv-x="706" 
d="M483 1751h-262l219 383h369zM186 0v1604h332v-1604h-332z" />
    <glyph glyph-name="Icircumflex" unicode="&#xce;" horiz-adv-x="706" 
d="M-47 1749l252 356h301l246 -356h-271l-127 186l-123 -186h-278zM518 1604v-1604h-332v1604h332z" />
    <glyph glyph-name="Idieresis" unicode="&#xcf;" horiz-adv-x="706" 
d="M115 1733q-73 0 -125.5 52.5t-52.5 125.5q0 74 51.5 126t126.5 52q73 0 125.5 -53t52.5 -125q0 -73 -53 -125.5t-125 -52.5zM594 1733q-74 0 -126 52.5t-52 125.5q0 74 51.5 126t126.5 52q73 0 124.5 -52t51.5 -126q0 -73 -52 -125.5t-124 -52.5zM186 0v1604h332v-1604
h-332z" />
    <glyph glyph-name="Eth" unicode="&#xd0;" horiz-adv-x="1718" 
d="M229 963v641h492q421 0 663 -211t242 -588q0 -363 -246 -584q-247 -221 -665 -221h-486v655h-194v308h194zM561 655v-342h164q255 0 408 129q153 132 153 363q0 230 -156 356q-156 129 -401 129h-168v-327h342v-308h-342z" />
    <glyph glyph-name="Ntilde" unicode="&#xd1;" horiz-adv-x="1777" 
d="M748 2087q51 0 100.5 -19.5t80.5 -43t61 -43t46 -19.5q70 0 70 119h199q8 -156 -63.5 -245t-205.5 -89q-62 0 -123 31.5t-104 62.5t-61 31q-67 0 -70 -119h-197q-11 155 60.5 244.5t206.5 89.5zM514 1106v-1106h-328v1604h379l697 -1047v1047h327v-1604h-338z" />
    <glyph glyph-name="Ograve" unicode="&#xd2;" horiz-adv-x="1841" 
d="M479 2134h367l219 -383h-262zM88 801q0 342 246 585q245 242 592 242q345 0 585 -237q242 -236 242 -582q0 -349 -246 -592q-242 -242 -589 -242q-345 0 -588 240q-242 239 -242 586zM571 444q144 -147 351 -147q206 0 350 147q143 149 143 359t-143 356
q-145 148 -350 148q-206 0 -351 -148q-143 -146 -143 -356t143 -359z" />
    <glyph glyph-name="Oacute" unicode="&#xd3;" horiz-adv-x="1841" 
d="M1042 1751h-262l219 383h367zM88 801q0 342 246 585q245 242 592 242q345 0 585 -237q242 -236 242 -582q0 -349 -246 -592q-242 -242 -589 -242q-345 0 -588 240q-242 239 -242 586zM571 1159q-143 -146 -143 -356t143 -359q144 -147 351 -147q206 0 350 147
q143 149 143 359t-143 356q-145 148 -350 148q-206 0 -351 -148z" />
    <glyph glyph-name="Ocircumflex" unicode="&#xd4;" horiz-adv-x="1841" 
d="M530 1749l248 356h299l248 -356h-270l-127 186l-123 -186h-275zM88 801q0 342 246 585q245 242 592 242q345 0 585 -237q242 -236 242 -582q0 -349 -246 -592q-242 -242 -589 -242q-345 0 -588 240q-242 239 -242 586zM571 444q144 -147 351 -147q206 0 350 147
q143 149 143 359t-143 356q-145 148 -350 148q-206 0 -351 -148q-143 -146 -143 -356t143 -359z" />
    <glyph glyph-name="Otilde" unicode="&#xd5;" horiz-adv-x="1841" 
d="M776 2087q65 0 126 -31.5t102.5 -62.5t60.5 -31q70 0 70 119h198q8 -156 -63 -245t-205 -89q-62 0 -123.5 31.5t-104.5 62.5t-61 31q-66 0 -69 -119h-197q-11 155 60 244.5t206 89.5zM88 801q0 342 246 585q245 242 592 242q345 0 585 -237q242 -236 242 -582
q0 -349 -246 -592q-242 -242 -589 -242q-345 0 -588 240q-242 239 -242 586zM571 1159q-143 -146 -143 -356t143 -359q144 -147 351 -147q206 0 350 147q143 149 143 359t-143 356q-145 148 -350 148q-206 0 -351 -148z" />
    <glyph glyph-name="Odieresis" unicode="&#xd6;" horiz-adv-x="1841" 
d="M670 2089q73 0 125.5 -53t52.5 -125q4 -55 -29 -100t-81 -64.5t-102.5 -11.5t-90.5 49q-40 37 -48.5 91.5t10 102.5t63 81t100.5 30zM1178 2089q74 0 126 -52.5t52 -125.5t-52 -125.5t-126 -52.5q-73 0 -125 52t-52 126t51 126t126 52zM88 801q0 342 246 585
q245 242 592 242q345 0 585 -237q242 -236 242 -582q0 -349 -246 -592q-242 -242 -589 -242q-345 0 -588 240q-242 239 -242 586zM571 1159q-143 -146 -143 -356t143 -359q144 -147 351 -147q206 0 350 147q143 149 143 359t-143 356q-145 148 -350 148q-206 0 -351 -148z
" />
    <glyph glyph-name="multiply" unicode="&#xd7;" horiz-adv-x="1363" 
d="M487 745l-381 381l197 195l379 -381l381 381l194 -195l-380 -381l380 -380l-194 -195l-381 381l-379 -381l-197 195z" />
    <glyph glyph-name="Oslash" unicode="&#xd8;" horiz-adv-x="1847" 
d="M1589 1669l166 -153l-180 -191q180 -223 180 -516q0 -348 -244 -592q-242 -242 -591 -242q-268 0 -482 152l-180 -186l-166 153l180 189q-182 226 -182 518q0 342 246 585q245 242 592 242q270 0 481 -147zM426 803q0 -147 80 -277l678 711q-119 72 -258 72
q-208 0 -355 -150q-145 -148 -145 -356zM926 297q206 0 350 147q145 151 145 359q0 151 -80 278l-677 -710q115 -74 262 -74z" />
    <glyph glyph-name="Ugrave" unicode="&#xd9;" horiz-adv-x="1628" 
d="M373 2134h366l219 -383h-262zM1130 1604h328v-957q0 -319 -165.5 -494.5t-481.5 -175.5q-315 0 -478 174.5t-163 483.5v969h334l-2 -961q0 -166 85 -256t226 -90q151 0 234 90.5t83 247.5v969z" />
    <glyph glyph-name="Uacute" unicode="&#xda;" horiz-adv-x="1628" 
d="M942 1751h-262l219 383h367zM1130 1604h328v-957q0 -319 -165.5 -494.5t-481.5 -175.5q-315 0 -478 174.5t-163 483.5v969h334l-2 -961q0 -166 85 -256t226 -90q151 0 234 90.5t83 247.5v969z" />
    <glyph glyph-name="Ucircumflex" unicode="&#xdb;" horiz-adv-x="1628" 
d="M416 1749l250 356h301l245 -356h-270l-127 186l-123 -186h-276zM1130 1604h328v-957q0 -319 -165.5 -494.5t-481.5 -175.5q-315 0 -478 174.5t-163 483.5v969h334l-2 -961q0 -166 85 -256t226 -90q151 0 234 90.5t83 247.5v969z" />
    <glyph glyph-name="Udieresis" unicode="&#xdc;" horiz-adv-x="1628" 
d="M686 1784q-51 -51 -125 -51t-125 51q-51 54 -51 127.5t51 124.5q51 54 125 54t125 -54q54 -51 54 -124.5t-54 -127.5zM1069 1733q-72 0 -124 52.5t-52 125.5q0 74 51.5 126t124.5 52t125.5 -52.5t52.5 -125.5t-52.5 -125.5t-125.5 -52.5zM1130 1604h328v-957
q0 -319 -165.5 -494.5t-481.5 -175.5q-315 0 -478 174.5t-163 483.5v969h334l-2 -961q0 -166 85 -256t226 -90q151 0 234 90.5t83 247.5v969z" />
    <glyph glyph-name="Yacute" unicode="&#xdd;" horiz-adv-x="1568" 
d="M922 1751h-263l220 383h366zM29 1604h389l368 -641l375 641h379l-586 -955v-649h-331v635z" />
    <glyph glyph-name="Thorn" unicode="&#xde;" horiz-adv-x="1415" 
d="M518 1604v-273h264q255 0 414 -135q162 -131 162 -379q0 -256 -162 -387q-165 -133 -426 -133h-252v-297h-332v1604h332zM1022 811q0 104 -73 156.5t-195 52.5h-236v-418h238q116 0 191 54.5t75 154.5z" />
    <glyph glyph-name="germandbls" unicode="&#xdf;" horiz-adv-x="1480" 
d="M1411 338q0 -171 -121 -266q-123 -97 -303 -97q-294 0 -397 213l217 144q61 -107 160 -107q63 0 101 26.5t38 76.5q0 41 -45 67q-52 36 -174 90q-252 114 -252 330q0 73 38 144.5t91 119.5q131 117 131 174q0 60 -50 94.5t-136 34.5q-111 0 -176.5 -73t-65.5 -193v-1116
h-320v1122q0 256 154 404q156 147 414 147q123 3 237 -37.5t192.5 -129t78.5 -206.5q0 -85 -34 -147.5t-108 -136.5q-87 -81 -112 -117t-25 -74q0 -36 34.5 -62.5t147.5 -84.5q26 -11 37 -19q125 -65 186.5 -138t61.5 -183z" />
    <glyph glyph-name="agrave" unicode="&#xe0;" horiz-adv-x="1218" 
d="M168 1659h367l219 -383h-262zM455 -20q-155 0 -262 88t-107 237v4q0 95 43.5 165t118.5 106q138 65 325 65h109q86 0 86 80q0 59 -46.5 97t-129.5 38q-162 0 -244 -147l-244 145q140 260 502 260q221 0 348 -114t127 -326v-678h-295v135l-4 2q-112 -157 -327 -157z
M547 213q101 0 160 59t59 152v25h-193q-72 0 -118.5 -33t-46.5 -92q0 -54 38 -82.5t101 -28.5z" />
    <glyph glyph-name="aacute" unicode="&#xe1;" horiz-adv-x="1218" 
d="M733 1276h-262l219 383h367zM455 -20q-155 0 -262 88t-107 237v4q0 95 43.5 165t118.5 106q138 65 325 65h109q86 0 86 80q0 59 -46.5 97t-129.5 38q-162 0 -244 -147l-244 145q140 260 502 260q221 0 348 -114t127 -326v-678h-295v135l-4 2q-112 -157 -327 -157z
M547 213q101 0 160 59t59 152v25h-193q-72 0 -118.5 -33t-46.5 -92q0 -54 38 -82.5t101 -28.5z" />
    <glyph glyph-name="acircumflex" unicode="&#xe2;" horiz-adv-x="1218" 
d="M215 1278l246 356h301l246 -356h-271l-127 186l-123 -186h-272zM455 -20q-155 0 -262 88t-107 237v4q0 95 43.5 165t118.5 106q138 65 325 65h109q86 0 86 80q0 59 -46.5 97t-129.5 38q-162 0 -244 -147l-244 145q140 260 502 260q221 0 348 -114t127 -326v-678h-295v135
l-4 2q-112 -157 -327 -157zM547 213q101 0 160 59t59 152v25h-193q-72 0 -118.5 -33t-46.5 -92q0 -54 38 -82.5t101 -28.5z" />
    <glyph glyph-name="atilde" unicode="&#xe3;" horiz-adv-x="1218" 
d="M446 1616q51 0 101 -19.5t81 -43t61 -43t46 -19.5q70 0 70 119h199q8 -156 -63.5 -245t-205.5 -89q-49 0 -98.5 19.5t-81.5 43t-63 43t-46 19.5q-66 0 -69 -119h-197q-11 155 60 244.5t206 89.5zM455 -20q-155 0 -262 88t-107 237v4q0 95 43.5 165t118.5 106
q138 65 325 65h109q86 0 86 80q0 59 -46.5 97t-129.5 38q-162 0 -244 -147l-244 145q140 260 502 260q221 0 348 -114t127 -326v-678h-295v135l-4 2q-112 -157 -327 -157zM547 213q101 0 160 59t59 152v25h-193q-72 0 -118.5 -33t-46.5 -92q0 -54 38 -82.5t101 -28.5z" />
    <glyph glyph-name="adieresis" unicode="&#xe4;" horiz-adv-x="1218" 
d="M186 1442q0 73 51.5 125.5t124.5 52.5q74 0 126.5 -52.5t52.5 -125.5q0 -75 -52.5 -126.5t-126.5 -51.5t-125 51.5t-51 126.5zM676 1442q0 73 51 125.5t125 52.5q73 0 125.5 -53t52.5 -125q0 -74 -52 -126t-126 -52t-125 51.5t-51 126.5zM455 -20q-155 0 -262 88
t-107 237v4q0 95 43.5 165t118.5 106q138 65 325 65h109q86 0 86 80q0 59 -46.5 97t-129.5 38q-162 0 -244 -147l-244 145q140 260 502 260q221 0 348 -114t127 -326v-678h-295v135l-4 2q-112 -157 -327 -157zM547 213q101 0 160 59t59 152v25h-193q-72 0 -118.5 -33
t-46.5 -92q0 -54 38 -82.5t101 -28.5z" />
    <glyph glyph-name="aring" unicode="&#xe5;" horiz-adv-x="1218" 
d="M874 1059q207 -109 207 -381v-678h-295v135l-4 2q-112 -157 -327 -157q-155 0 -262 88t-107 237v4q0 95 43.5 165t118.5 106q138 65 325 65h109q86 0 86 80q0 59 -46.5 97t-129.5 38q-162 0 -244 -147l-244 145q75 142 232 211q-45 68 -45 156q0 125 94 213t223 88
q132 0 223 -88q95 -89 95 -213q0 -93 -52 -166zM608 1350q-57 0 -95 -35.5t-38 -89.5q0 -52 38.5 -88.5t94.5 -36.5q55 0 93 37t38 88q0 50 -38.5 87.5t-92.5 37.5zM766 424v25h-193q-72 0 -118.5 -33t-46.5 -92q0 -54 38 -82.5t101 -28.5q101 0 160 59t59 152z" />
    <glyph glyph-name="ae" unicode="&#xe6;" horiz-adv-x="1953" 
d="M471 -20h-18q-153 0 -260 88t-107 237v12q0 76 29.5 134.5t77 94.5t113 59t130 31.5t135.5 8.5h111q86 0 86 80q0 59 -46.5 97t-129.5 38q-166 0 -242 -147l-244 145q137 260 500 260q237 0 359 -131q160 133 364 133q240 0 391 -151q154 -151 154 -391q0 -78 -6 -119
h-793q13 -98 89 -156.5t182 -58.5q73 0 140 35.5t103 95.5l232 -152q-140 -248 -473 -248q-279 0 -449 191q-171 -186 -428 -186zM1081 670h471q-5 78 -66.5 134t-164.5 56q-101 0 -164 -63q-67 -64 -76 -127zM766 424v25h-195q-72 0 -117.5 -32.5t-45.5 -92.5
q0 -54 37 -82.5t100 -28.5q103 0 162 60t59 151z" />
    <glyph glyph-name="ccedilla" unicode="&#xe7;" horiz-adv-x="1239" 
d="M913 432l283 -117q-108 -279 -416 -331q39 -85 39 -191q0 -328 -387 -328q-87 0 -149 19v215q65 -10 106 -10q86 0 131 51t45 143q0 54 -18 103q-211 41 -338 192q-127 154 -127 367q0 241 172 407t418 166q185 0 324 -89.5t192 -248.5l-281 -116q-69 161 -235 161
q-113 0 -187.5 -75.5t-74.5 -200.5q0 -123 72.5 -201t189.5 -78q171 0 241 162z" />
    <glyph glyph-name="egrave" unicode="&#xe8;" horiz-adv-x="1284" 
d="M541 1276l-326 383h369l219 -383h-262zM1200 459h-794q13 -98 89 -156.5t181 -58.5q73 0 140.5 36t103.5 95l231 -152q-137 -248 -471 -248q-251 0 -428 160q-172 163 -172 414q0 233 170 403q171 168 409 168q243 0 394 -151t151 -396q0 -64 -4 -114zM414 670h471
q-6 78 -68.5 134t-165.5 56q-101 0 -164 -63q-64 -61 -73 -127z" />
    <glyph glyph-name="eacute" unicode="&#xe9;" horiz-adv-x="1284" 
d="M1106 1659l-324 -383h-262l219 383h367zM1200 459h-794q13 -98 89 -156.5t181 -58.5q73 0 140.5 36t103.5 95l231 -152q-137 -248 -471 -248q-251 0 -428 160q-172 163 -172 414q0 233 170 403q171 168 409 168q243 0 394 -151t151 -396q0 -64 -4 -114zM414 670h471
q-6 78 -68.5 134t-165.5 56q-101 0 -164 -63q-64 -61 -73 -127z" />
    <glyph glyph-name="ecircumflex" unicode="&#xea;" horiz-adv-x="1284" 
d="M535 1278h-273l248 356h299l248 -356h-273l-125 186zM1200 459h-794q13 -98 89 -156.5t181 -58.5q73 0 140.5 36t103.5 95l231 -152q-137 -248 -471 -248q-251 0 -428 160q-172 163 -172 414q0 233 170 403q171 168 409 168q243 0 394 -151t151 -396q0 -64 -4 -114z
M414 670h471q-6 78 -68.5 134t-165.5 56q-101 0 -164 -63q-64 -61 -73 -127z" />
    <glyph glyph-name="edieresis" unicode="&#xeb;" horiz-adv-x="1284" 
d="M236 1442q0 73 51 125.5t125 52.5t126 -52t52 -126q0 -75 -52 -126.5t-126 -51.5t-125 51.5t-51 126.5zM723 1442q0 73 51.5 125.5t124.5 52.5t125.5 -52t52.5 -126q0 -75 -52 -126.5t-126 -51.5t-125 51.5t-51 126.5zM1200 459h-794q13 -98 89 -156.5t181 -58.5
q73 0 140.5 36t103.5 95l231 -152q-137 -248 -471 -248q-251 0 -428 160q-172 163 -172 414q0 233 170 403q171 168 409 168q243 0 394 -151t151 -396q0 -64 -4 -114zM414 670h471q-6 78 -68.5 134t-165.5 56q-101 0 -164 -63q-64 -61 -73 -127z" />
    <glyph glyph-name="igrave" unicode="&#xec;" horiz-adv-x="616" 
d="M-145 1659h366l219 -383h-262zM147 1094h322v-1094h-322v1094z" />
    <glyph glyph-name="iacute" unicode="&#xed;" horiz-adv-x="616" 
d="M436 1276h-262l219 383h369zM469 0h-322v1094h322v-1094z" />
    <glyph glyph-name="icircumflex" unicode="&#xee;" horiz-adv-x="616" 
d="M-90 1278l250 356h299l248 -356h-273l-125 186l-125 -186h-274zM147 1094h322v-1094h-322v1094z" />
    <glyph glyph-name="idieresis" unicode="&#xef;" horiz-adv-x="616" 
d="M-109 1442q0 73 51.5 125.5t125.5 52.5t126 -52t52 -126q0 -75 -52 -126.5t-126 -51.5t-125.5 51.5t-51.5 126.5zM369 1442q0 73 52 125.5t126 52.5q73 0 125.5 -53t52.5 -125q0 -74 -52.5 -126t-125.5 -52q-74 0 -126 51.5t-52 126.5zM469 0h-322v1094h322v-1094z" />
    <glyph glyph-name="eth" unicode="&#xf0;" horiz-adv-x="1372" 
d="M1071 1647l72 -177l-248 -100q379 -355 379 -770q0 -266 -160 -446q-156 -179 -438 -179q-256 0 -428 152q-166 153 -166 412q0 231 149 383q150 153 379 153q179 0 289 -110q-85 131 -293 286l-383 -159l-73 176l268 110l-76 43l-55 33l162 242q134 -81 280 -191z
M676 264q123 0 199.5 77.5t76.5 197.5q0 116 -75.5 195t-200.5 79q-123 0 -198 -77t-75 -197q0 -119 76 -197t197 -78z" />
    <glyph glyph-name="ntilde" unicode="&#xf1;" horiz-adv-x="1312" 
d="M518 1616q51 0 101 -19.5t81 -43t61 -43t46 -19.5q70 0 70 119h198q8 -156 -63 -245t-205 -89q-49 0 -98.5 19.5t-81.5 43t-63 43t-46 19.5q-66 0 -69 -119h-197q-11 155 60 244.5t206 89.5zM1176 0h-320v606q0 100 -48 156.5t-142 56.5t-145.5 -59.5t-51.5 -153.5v-606
h-322v1094h320v-144h2q42 68 111 107q45 26 85 39t61.5 15.5t51.5 2.5q196 0 297 -125t101 -309v-680z" />
    <glyph glyph-name="ograve" unicode="&#xf2;" horiz-adv-x="1353" 
d="M236 1659h366l219 -383h-262zM80 545q0 245 174 407q175 166 426 166q249 0 422 -164q172 -163 172 -403q0 -247 -174 -412q-176 -164 -424 -164q-253 0 -424 162q-172 163 -172 408zM408 549q0 -123 77 -203q78 -78 193 -78q116 0 192 79t76 202q0 121 -78 199
q-76 79 -192 79q-115 0 -191 -79q-77 -77 -77 -199z" />
    <glyph glyph-name="oacute" unicode="&#xf3;" horiz-adv-x="1353" 
d="M799 1276h-262l219 383h366zM80 545q0 245 174 407q175 166 426 166q249 0 422 -164q172 -163 172 -403q0 -247 -174 -412q-176 -164 -424 -164q-253 0 -424 162q-172 163 -172 408zM408 549q0 -123 77 -203q78 -78 193 -78q116 0 192 79t76 202q0 121 -78 199
q-76 79 -192 79q-115 0 -191 -79q-77 -77 -77 -199z" />
    <glyph glyph-name="ocircumflex" unicode="&#xf4;" horiz-adv-x="1353" 
d="M285 1278l245 356h301l246 -356h-270l-125 186l-125 -186h-272zM80 545q0 245 174 407q175 166 426 166q249 0 422 -164q172 -163 172 -403q0 -247 -174 -412q-176 -164 -424 -164q-253 0 -424 162q-172 163 -172 408zM408 549q0 -123 77 -203q78 -78 193 -78
q116 0 192 79t76 202q0 121 -78 199q-76 79 -192 79q-115 0 -191 -79q-77 -77 -77 -199z" />
    <glyph glyph-name="otilde" unicode="&#xf5;" horiz-adv-x="1353" 
d="M530 1616q51 0 101 -19.5t81 -43t61 -43t46 -19.5q70 0 70 119h198q8 -156 -63 -245t-205 -89q-49 0 -98.5 19.5t-81.5 43t-63 43t-46 19.5q-66 0 -69 -119h-197q-11 155 60 244.5t206 89.5zM80 545q0 245 174 407q175 166 426 166q249 0 422 -164q172 -163 172 -403
q0 -247 -174 -412q-176 -164 -424 -164q-253 0 -424 162q-172 163 -172 408zM408 549q0 -123 77 -203q78 -78 193 -78q116 0 192 79t76 202q0 121 -78 199q-76 79 -192 79q-115 0 -191 -79q-77 -77 -77 -199z" />
    <glyph glyph-name="odieresis" unicode="&#xf6;" horiz-adv-x="1353" 
d="M258 1442q0 73 51.5 125.5t124.5 52.5q74 0 126 -52t52 -126q0 -75 -52 -126.5t-126 -51.5t-125 51.5t-51 126.5zM745 1442q0 72 52 125t125 53q74 0 126 -52t52 -126q0 -75 -52 -126.5t-126 -51.5t-125.5 51.5t-51.5 126.5zM80 545q0 245 174 407q175 166 426 166
q249 0 422 -164q172 -163 172 -403q0 -247 -174 -412q-176 -164 -424 -164q-253 0 -424 162q-172 163 -172 408zM408 549q0 -123 77 -203q78 -78 193 -78q116 0 192 79t76 202q0 121 -78 199q-76 79 -192 79q-115 0 -191 -79q-77 -77 -77 -199z" />
    <glyph glyph-name="divide" unicode="&#xf7;" horiz-adv-x="1212" 
d="M606 1405q73 0 123.5 -51.5t50.5 -124.5q0 -72 -51 -123t-123 -51t-123 51t-51 123t51 124t123 52zM96 604v295h1020v-295h-1020zM606 96q-72 0 -123 52t-51 124q0 73 50.5 125t123.5 52t123.5 -52t50.5 -125t-50.5 -124.5t-123.5 -51.5z" />
    <glyph glyph-name="oslash" unicode="&#xf8;" horiz-adv-x="1357" 
d="M1157 1143l117 -115l-123 -123q125 -149 125 -354q0 -247 -174 -412q-176 -164 -424 -164q-197 0 -352 107l-129 -129l-117 115l125 125q-123 150 -123 352q0 242 174 407q175 166 426 166q196 0 346 -102zM408 549q0 -78 26 -129l379 377q-57 32 -133 32
q-116 0 -195 -79q-77 -77 -77 -201zM680 266q114 0 192 78q78 81 78 205q0 69 -26 131l-383 -379q65 -35 139 -35z" />
    <glyph glyph-name="ugrave" unicode="&#xf9;" horiz-adv-x="1310" 
d="M207 1659h366l220 -383h-263zM137 1094h320v-611q0 -99 47 -154t141 -55t145.5 57.5t51.5 151.5v611h319v-1094h-315v135h-2q-109 -158 -305 -158q-194 0 -299 123q-103 127 -103 308v686z" />
    <glyph glyph-name="uacute" unicode="&#xfa;" horiz-adv-x="1312" 
d="M784 1276h-262l219 383h369zM137 1094h320v-611q0 -99 47 -154t141 -55t145.5 57.5t51.5 151.5v611h319v-1094h-315v135h-2q-109 -158 -305 -158q-194 0 -299 123q-103 127 -103 308v686z" />
    <glyph glyph-name="ucircumflex" unicode="&#xfb;" horiz-adv-x="1310" 
d="M252 1278l248 356h301l246 -356h-271l-127 186l-123 -186h-274zM137 1094h320v-611q0 -99 47 -154t141 -55t145.5 57.5t51.5 151.5v611h319v-1094h-315v135h-2q-109 -158 -305 -158q-194 0 -299 123q-103 127 -103 308v686z" />
    <glyph glyph-name="udieresis" unicode="&#xfc;" horiz-adv-x="1308" 
d="M229 1442q0 73 51.5 125.5t125.5 52.5t126 -52t52 -126q0 -75 -52 -126.5t-126 -51.5t-125.5 51.5t-51.5 126.5zM717 1442q0 73 51.5 125.5t124.5 52.5t125.5 -52t52.5 -126q0 -75 -52 -126.5t-126 -51.5t-125 51.5t-51 126.5zM137 1094h320v-611q0 -99 47 -154t141 -55
t145.5 57.5t51.5 151.5v611h319v-1094h-315v135h-2q-109 -158 -305 -158q-194 0 -299 123q-103 127 -103 308v686z" />
    <glyph glyph-name="yacute" unicode="&#xfd;" horiz-adv-x="1271" 
d="M788 1276h-262l219 383h367zM487 117l-460 977h352l272 -625l244 625h330l-664 -1633h-342z" />
    <glyph glyph-name="thorn" unicode="&#xfe;" horiz-adv-x="1404" 
d="M467 1667v-706h4q120 153 332 153q231 0 375 -172q145 -174 145 -393q0 -223 -149 -397q-150 -172 -379 -172q-207 0 -324 141h-4v-662h-320v2208h320zM459 549q0 -122 78 -203q78 -78 192 -78q115 0 193 78q77 80 77 203t-79 199q-77 77 -193 77q-113 0 -190 -77
q-78 -78 -78 -199z" />
    <glyph glyph-name="ydieresis" unicode="&#xff;" horiz-adv-x="1271" 
d="M221 1442q0 73 51.5 125.5t124.5 52.5t125.5 -52t52.5 -126q0 -75 -52 -126.5t-126 -51.5t-125 51.5t-51 126.5zM709 1442q0 73 51.5 125.5t124.5 52.5t125.5 -52t52.5 -126q0 -75 -52 -126.5t-126 -51.5t-125 51.5t-51 126.5zM487 117l-460 977h352l272 -625l244 625
h330l-664 -1633h-342z" />
    <glyph glyph-name="Amacron" unicode="&#x100;" horiz-adv-x="1622" 
d="M436 1778v237h748v-237h-748zM332 0h-334l612 1604h400l614 -1604h-342l-121 324h-710zM807 1282l-242 -651h484z" />
    <glyph glyph-name="amacron" unicode="&#x101;" horiz-adv-x="1218" 
d="M213 1286v240h745v-240h-745zM455 -20q-155 0 -262 88t-107 237v4q0 95 43.5 165t118.5 106q138 65 325 65h109q86 0 86 80q0 59 -46.5 97t-129.5 38q-162 0 -244 -147l-244 145q140 260 502 260q221 0 348 -114t127 -326v-678h-295v135l-4 2q-112 -157 -327 -157z
M547 213q101 0 160 59t59 152v25h-193q-72 0 -118.5 -33t-46.5 -92q0 -54 38 -82.5t101 -28.5z" />
    <glyph glyph-name="Abreve" unicode="&#x102;" horiz-adv-x="1622" 
d="M807 1759q-155 0 -264 103q-110 104 -125 264h237q12 -69 51.5 -109.5t100.5 -40.5t100.5 40.5t50.5 109.5h238q-17 -166 -124 -266.5t-265 -100.5zM332 0h-334l612 1604h400l614 -1604h-342l-121 324h-710zM807 1282l-242 -651h484z" />
    <glyph glyph-name="abreve" unicode="&#x103;" horiz-adv-x="1218" 
d="M227 1634h240q11 -69 49 -108t100 -39q61 0 101 40t51 107h240q-15 -160 -125 -264q-106 -100 -267 -100q-160 0 -266 100q-108 102 -123 264zM455 -20q-155 0 -262 88t-107 237v4q0 95 43.5 165t118.5 106q138 65 325 65h109q86 0 86 80q0 59 -46.5 97t-129.5 38
q-162 0 -244 -147l-244 145q140 260 502 260q221 0 348 -114t127 -326v-678h-295v135l-4 2q-112 -157 -327 -157zM547 213q101 0 160 59t59 152v25h-193q-72 0 -118.5 -33t-46.5 -92q0 -54 38 -82.5t101 -28.5z" />
    <glyph glyph-name="Aogonek" unicode="&#x104;" horiz-adv-x="1622" 
d="M1425 -229q0 -53 45.5 -83t104.5 -30q25 0 43 2v-184q-62 -21 -158 -21q-128 0 -223 62q-94 58 -94 172q0 159 227 311h-88l-121 324h-710l-119 -324h-334l612 1604h400l614 -1604q-199 -126 -199 -229zM565 631h484l-242 651z" />
    <glyph glyph-name="aogonek" unicode="&#x105;" horiz-adv-x="1222" 
d="M1081 678v-678l-55 -43q-29 -23 -88 -88q-53 -62 -53 -98q0 -53 45 -83t102 -30q27 0 45 2v-184q-62 -21 -157 -21q-129 0 -224 62q-94 58 -94 172q0 156 227 311h-43v135l-4 2q-112 -157 -327 -157q-155 0 -262 88t-107 237v4q0 95 43.5 165t118.5 106q138 65 325 65
h109q86 0 86 80q0 59 -46.5 97t-129.5 38q-162 0 -244 -147l-244 145q140 260 502 260q221 0 348 -114t127 -326zM766 424v25h-193q-72 0 -118.5 -33t-46.5 -92q0 -54 38 -82.5t101 -28.5q101 0 160 59t59 152z" />
    <glyph glyph-name="Cacute" unicode="&#x106;" horiz-adv-x="1703" 
d="M1024 1751h-262l219 383h367zM88 801q0 346 242 585q242 242 590 242q243 0 444 -127q203 -126 283 -346l-304 -139q-51 134 -164 211.5t-261 77.5q-207 0 -347 -146q-139 -145 -139 -354q0 -215 137 -361q139 -145 349 -145q146 0 260.5 81t169.5 216l305 -141
q-80 -222 -289 -351q-207 -127 -451 -127q-351 0 -587 236q-238 238 -238 588z" />
    <glyph glyph-name="cacute" unicode="&#x107;" horiz-adv-x="1239" 
d="M805 1276h-264l221 383h366zM670 -25q-257 0 -422 162q-166 163 -166 408q0 241 172 407t418 166q185 0 324 -89.5t192 -248.5l-281 -116q-69 161 -235 161q-113 0 -187.5 -75.5t-74.5 -200.5q0 -123 72.5 -201t189.5 -78q171 0 241 162l283 -117q-62 -165 -201 -252.5
t-325 -87.5z" />
    <glyph glyph-name="Ccircumflex" unicode="&#x108;" horiz-adv-x="1703" 
d="M526 1749l248 356h299l248 -356h-270l-127 186l-123 -186h-275zM88 801q0 346 242 585q242 242 590 242q243 0 444 -127q203 -126 283 -346l-304 -139q-51 134 -164 211.5t-261 77.5q-207 0 -347 -146q-139 -145 -139 -354q0 -215 137 -361q139 -145 349 -145
q146 0 260.5 81t169.5 216l305 -141q-80 -222 -289 -351q-207 -127 -451 -127q-351 0 -587 236q-238 238 -238 588z" />
    <glyph glyph-name="ccircumflex" unicode="&#x109;" horiz-adv-x="1239" 
d="M283 1278l247 356h301l246 -356h-270l-125 186l-127 -186h-272zM670 -25q-257 0 -422 162q-166 163 -166 408q0 241 172 407t418 166q185 0 324 -89.5t192 -248.5l-281 -116q-69 161 -235 161q-113 0 -187.5 -75.5t-74.5 -200.5q0 -123 72.5 -201t189.5 -78
q171 0 241 162l283 -117q-62 -165 -201 -252.5t-325 -87.5z" />
    <glyph glyph-name="Cdotaccent" unicode="&#x10a;" horiz-adv-x="1703" 
d="M737 1929q0 81 57.5 139t137.5 58q82 0 140 -57.5t58 -139.5q0 -80 -58 -137t-140 -57q-80 0 -137.5 57.5t-57.5 136.5zM88 801q0 346 242 585q242 242 590 242q243 0 444 -127q203 -126 283 -346l-304 -139q-51 134 -164 211.5t-261 77.5q-207 0 -347 -146
q-139 -145 -139 -354q0 -215 137 -361q139 -145 349 -145q146 0 260.5 81t169.5 216l305 -141q-80 -222 -289 -351q-207 -127 -451 -127q-351 0 -587 236q-238 238 -238 588z" />
    <glyph glyph-name="cdotaccent" unicode="&#x10b;" horiz-adv-x="1239" 
d="M485 1460q0 80 57.5 137.5t137.5 57.5q82 0 140.5 -57.5t58.5 -137.5q0 -81 -58.5 -138.5t-140.5 -57.5q-80 0 -137.5 57.5t-57.5 138.5zM670 -25q-257 0 -422 162q-166 163 -166 408q0 241 172 407t418 166q185 0 324 -89.5t192 -248.5l-281 -116q-69 161 -235 161
q-113 0 -187.5 -75.5t-74.5 -200.5q0 -123 72.5 -201t189.5 -78q171 0 241 162l283 -117q-62 -165 -201 -252.5t-325 -87.5z" />
    <glyph glyph-name="Ccaron" unicode="&#x10c;" horiz-adv-x="1703" 
d="M924 1919l127 186h270l-248 -356h-299l-248 356h275zM88 801q0 346 242 585q242 242 590 242q243 0 444 -127q203 -126 283 -346l-304 -139q-51 134 -164 211.5t-261 77.5q-207 0 -347 -146q-139 -145 -139 -354q0 -215 137 -361q139 -145 349 -145q146 0 260.5 81
t169.5 216l305 -141q-80 -222 -289 -351q-207 -127 -451 -127q-351 0 -587 236q-238 238 -238 588z" />
    <glyph glyph-name="ccaron" unicode="&#x10d;" horiz-adv-x="1239" 
d="M682 1448l125 186h270l-246 -356h-301l-247 356h272zM670 -25q-257 0 -422 162q-166 163 -166 408q0 241 172 407t418 166q185 0 324 -89.5t192 -248.5l-281 -116q-69 161 -235 161q-113 0 -187.5 -75.5t-74.5 -200.5q0 -123 72.5 -201t189.5 -78q171 0 241 162l283 -117
q-62 -165 -201 -252.5t-325 -87.5z" />
    <glyph glyph-name="Dcaron" unicode="&#x10e;" horiz-adv-x="1677" 
d="M692 1919l127 186h271l-246 -356h-301l-246 356h272zM1585 805q0 -363 -246 -584q-247 -221 -665 -221h-488v1604h494q416 0 661 -213q244 -212 244 -586zM1249 805q0 231 -155 356q-156 129 -402 129h-168v-977h162q257 0 410 129q153 132 153 363z" />
    <glyph glyph-name="dcaron" unicode="&#x10f;" horiz-adv-x="1443" 
d="M1606 1190h-224l29 479h336zM938 969v698h317v-1667h-309v139h-4q-108 -159 -340 -159q-233 0 -375 167q-145 171 -145 402q0 220 149 391q149 174 375 174q204 0 328 -145h4zM946 549q0 121 -77 198.5t-193 77.5t-193 -77.5t-77 -198.5q0 -123 77 -203q78 -78 193 -78
q114 0 192 78q78 81 78 203z" />
    <glyph glyph-name="Dcroat" unicode="&#x110;" horiz-adv-x="1718" 
d="M229 963v641h492q421 0 663 -211t242 -588q0 -363 -246 -584q-247 -221 -665 -221h-486v655h-194v308h194zM561 655v-342h164q255 0 408 129q153 132 153 363q0 230 -156 356q-156 129 -401 129h-168v-327h342v-308h-342z" />
    <glyph glyph-name="dslash" unicode="&#x111;" horiz-adv-x="1404" 
d="M1257 1485h136v-217h-136v-1268h-311v139h-4q-108 -159 -340 -159q-233 0 -375 167q-145 171 -145 402q0 220 149 391q149 174 375 174q204 0 328 -145h4v299h-326v217h326v184h319v-184zM946 549q0 121 -77 198.5t-193 77.5t-193 -77.5t-77 -198.5q0 -123 77 -203
q78 -78 193 -78q114 0 192 78q78 81 78 203z" />
    <glyph glyph-name="Emacron" unicode="&#x112;" horiz-adv-x="1357" 
d="M342 1778v237h745v-237h-745zM1237 1292h-723v-325h647v-312h-647v-346h727v-309h-1055v1604h1051v-312z" />
    <glyph glyph-name="emacron" unicode="&#x113;" horiz-adv-x="1284" 
d="M1032 1286h-745v240h745v-240zM1200 459h-794q13 -98 89 -156.5t181 -58.5q73 0 140.5 36t103.5 95l231 -152q-137 -248 -471 -248q-251 0 -428 160q-172 163 -172 414q0 233 170 403q171 168 409 168q243 0 394 -151t151 -396q0 -64 -4 -114zM414 670h471
q-6 78 -68.5 134t-165.5 56q-101 0 -164 -63q-64 -61 -73 -127z" />
    <glyph glyph-name="Edotaccent" unicode="&#x116;" horiz-adv-x="1357" 
d="M518 1929q0 81 57.5 139t137.5 58q82 0 140 -57.5t58 -139.5q0 -80 -58 -137t-140 -57q-80 0 -137.5 57.5t-57.5 136.5zM514 967h647v-312h-647v-346h727v-309h-1055v1604h1051v-312h-723v-325z" />
    <glyph glyph-name="edotaccent" unicode="&#x117;" horiz-adv-x="1284" 
d="M467 1460q0 80 57.5 137.5t137.5 57.5q81 0 138.5 -57.5t57.5 -137.5q0 -82 -57 -139t-139 -57q-80 0 -137.5 57.5t-57.5 138.5zM1200 459h-794q13 -98 89 -156.5t181 -58.5q73 0 140.5 36t103.5 95l231 -152q-137 -248 -471 -248q-251 0 -428 160q-172 163 -172 414
q0 233 170 403q171 168 409 168q243 0 394 -151t151 -396q0 -64 -4 -114zM414 670h471q-6 78 -68.5 134t-165.5 56q-101 0 -164 -63q-64 -61 -73 -127z" />
    <glyph glyph-name="Eogonek" unicode="&#x118;" horiz-adv-x="1357" 
d="M514 309h727v-309q-199 -126 -199 -229q0 -53 45.5 -83t102.5 -30q27 0 45 2v-184q-65 -21 -158 -21q-128 0 -223 62q-94 58 -94 172q0 156 227 311h-801v1604h1051v-312h-723v-325h647v-312h-647v-346z" />
    <glyph glyph-name="eogonek" unicode="&#x119;" horiz-adv-x="1284" 
d="M1204 573q0 -64 -4 -114h-794q13 -98 89 -156.5t181 -58.5q73 0 140.5 36t103.5 95l231 -152q-46 -79 -137 -155l-146 -121q-47 -41 -82.5 -90.5t-35.5 -85.5q0 -53 45 -83t102 -30q27 0 45 2v-184q-61 -21 -158 -21q-128 0 -223 62q-94 58 -94 172q0 139 182 286
q-242 9 -409 168q-160 160 -160 406q0 233 170 403q171 168 409 168q243 0 394 -151t151 -396zM414 670h471q-6 78 -68.5 134t-165.5 56q-101 0 -164 -63q-64 -61 -73 -127z" />
    <glyph glyph-name="Ecaron" unicode="&#x11a;" horiz-adv-x="1357" 
d="M715 1919l125 186h270l-246 -356h-301l-246 356h273zM514 967h647v-312h-647v-346h727v-309h-1055v1604h1051v-312h-723v-325z" />
    <glyph glyph-name="ecaron" unicode="&#x11b;" horiz-adv-x="1284" 
d="M535 1634l122 -186l127 186h271l-246 -356h-301l-248 356h275zM1200 459h-794q13 -98 89 -156.5t181 -58.5q73 0 140.5 36t103.5 95l231 -152q-137 -248 -471 -248q-251 0 -428 160q-172 163 -172 414q0 233 170 403q171 168 409 168q243 0 394 -151t151 -396
q0 -64 -4 -114zM414 670h471q-6 78 -68.5 134t-165.5 56q-101 0 -164 -63q-64 -61 -73 -127z" />
    <glyph glyph-name="Gcircumflex" unicode="&#x11c;" horiz-adv-x="1757" 
d="M528 1749l248 356h299l248 -356h-270l-127 186l-123 -186h-275zM426 803q0 -212 139 -363q137 -149 355 -149q159 0 270.5 74t142.5 196h-487v301h833v-125q0 -241 -110 -418q-106 -172 -274 -258t-375 -86q-366 0 -601 238q-231 240 -231 588q0 347 244 588
q245 239 592 239q278 0 467 -139q186 -137 251 -313l-292 -144q-48 118 -152 197q-106 86 -278 86q-206 0 -351 -148q-143 -146 -143 -364z" />
    <glyph glyph-name="gcircumflex" unicode="&#x11d;" horiz-adv-x="1396" 
d="M295 1278l246 356h301l245 -356h-270l-127 186l-123 -186h-272zM104 -233l261 149q91 -184 290 -184q128 0 201.5 65.5t73.5 190.5v166h-4q-116 -146 -316 -146q-232 0 -381 158q-147 156 -147 391q0 220 143 385q143 168 373 168q207 0 332 -149h4v133h313v-1098
q0 -255 -166 -399q-163 -144 -424 -144q-406 0 -553 314zM938 557q0 118 -75 193t-191 75q-114 0 -190 -75.5t-76 -192.5q0 -121 75 -195.5t191 -74.5q114 0 190 75t76 195z" />
    <glyph glyph-name="Gbreve" unicode="&#x11e;" horiz-adv-x="1755" 
d="M924 1759q-156 0 -265 103t-124 264h239q12 -69 51 -109.5t99 -40.5q62 0 101 40.5t50 109.5h240q-15 -162 -125 -266q-107 -101 -266 -101zM426 803q0 -212 139 -363q137 -149 355 -149q159 0 270.5 74t142.5 196h-487v301h833v-125q0 -241 -110 -418
q-106 -172 -274 -258t-375 -86q-366 0 -601 238q-231 240 -231 588q0 347 244 588q245 239 592 239q278 0 467 -139q186 -137 251 -313l-292 -144q-48 118 -152 197q-106 86 -278 86q-206 0 -351 -148q-143 -146 -143 -364z" />
    <glyph glyph-name="gbreve" unicode="&#x11f;" horiz-adv-x="1396" 
d="M692 1270q-158 0 -264 100q-110 104 -125 264h240q24 -147 149 -147q62 0 102.5 39.5t51.5 107.5h237q-15 -160 -125 -264q-106 -100 -266 -100zM104 -233l261 149q91 -184 290 -184q128 0 201.5 65.5t73.5 190.5v166h-4q-116 -146 -316 -146q-232 0 -381 158
q-147 156 -147 391q0 220 143 385q143 168 373 168q207 0 332 -149h4v133h313v-1098q0 -255 -166 -399q-163 -144 -424 -144q-406 0 -553 314zM938 557q0 118 -75 193t-191 75q-114 0 -190 -75.5t-76 -192.5q0 -121 75 -195.5t191 -74.5q114 0 190 75t76 195z" />
    <glyph glyph-name="Gdotaccent" unicode="&#x120;" horiz-adv-x="1755" 
d="M729 1929q0 81 57.5 139t137.5 58q82 0 139 -57.5t57 -139.5q0 -80 -57.5 -137t-138.5 -57q-80 0 -137.5 57.5t-57.5 136.5zM426 803q0 -212 139 -363q137 -149 355 -149q159 0 270.5 74t142.5 196h-487v301h833v-125q0 -241 -110 -418q-106 -172 -274 -258t-375 -86
q-366 0 -601 238q-231 240 -231 588q0 347 244 588q245 239 592 239q278 0 467 -139q186 -137 251 -313l-292 -144q-48 118 -152 197q-106 86 -278 86q-206 0 -351 -148q-143 -146 -143 -364z" />
    <glyph glyph-name="gdotaccent" unicode="&#x121;" horiz-adv-x="1396" 
d="M469 1460q0 80 57.5 137.5t137.5 57.5q81 0 138.5 -57.5t57.5 -137.5q0 -82 -57 -139t-139 -57q-80 0 -137.5 57.5t-57.5 138.5zM104 -233l261 149q91 -184 290 -184q128 0 201.5 65.5t73.5 190.5v166h-4q-116 -146 -316 -146q-232 0 -381 158q-147 156 -147 391
q0 220 143 385q143 168 373 168q207 0 332 -149h4v133h313v-1098q0 -255 -166 -399q-163 -144 -424 -144q-406 0 -553 314zM938 557q0 118 -75 193t-191 75q-114 0 -190 -75.5t-76 -192.5q0 -121 75 -195.5t191 -74.5q114 0 190 75t76 195z" />
    <glyph glyph-name="Gcommaaccent" unicode="&#x122;" horiz-adv-x="1755" 
d="M426 803q0 -212 139 -363q137 -149 355 -149q159 0 270.5 74t142.5 196h-487v301h833v-125q0 -241 -110 -418q-106 -172 -274 -258t-375 -86q-366 0 -601 238q-231 240 -231 588q0 347 244 588q245 239 592 239q278 0 467 -139q186 -137 251 -313l-292 -144
q-48 118 -152 197q-106 86 -278 86q-206 0 -351 -148q-143 -146 -143 -364zM1079 -336v-10q0 -107 -64 -210.5t-171 -176.5l-99 94q120 80 179 203q-29 -13 -60 -13q-63 0 -105 44.5t-42 111.5q0 73 50 123.5t122 50.5q83 0 136.5 -60t53.5 -157z" />
    <glyph glyph-name="gcommaaccent" unicode="&#x123;" horiz-adv-x="1396" 
d="M481 1479v8q0 108 63 211t171 176l100 -94q-121 -75 -178 -201q33 10 59 10q62 0 105 -44t43 -111q0 -72 -51 -122t-123 -50q-83 0 -136 60t-53 157zM104 -233l261 149q91 -184 290 -184q128 0 201.5 65.5t73.5 190.5v166h-4q-116 -146 -316 -146q-232 0 -381 158
q-147 156 -147 391q0 220 143 385q143 168 373 168q207 0 332 -149h4v133h313v-1098q0 -255 -166 -399q-163 -144 -424 -144q-406 0 -553 314zM938 557q0 118 -75 193t-191 75q-114 0 -190 -75.5t-76 -192.5q0 -121 75 -195.5t191 -74.5q114 0 190 75t76 195z" />
    <glyph glyph-name="Hbar" unicode="&#x126;" horiz-adv-x="1748" 
d="M539 1606v-187h671v187h330v-187h168v-225h-168v-1194h-330v649h-671v-649h-332v1194h-168v225h168v187h332zM1210 1194h-671v-223h671v223z" />
    <glyph glyph-name="hbar" unicode="&#x127;" horiz-adv-x="1308" 
d="M1171 0h-319v606q0 97 -48.5 155t-139.5 58q-94 0 -145.5 -59t-51.5 -150v-610h-320v1268h-137v217h137v184h320v-184h326v-217h-326v-303h2q55 79 137.5 114t163.5 35q196 0 299 -127q102 -126 102 -307v-680z" />
    <glyph glyph-name="Itilde" unicode="&#x128;" horiz-adv-x="706" 
d="M209 2087q65 0 126 -31.5t102.5 -62.5t60.5 -31q69 0 69 119h199q8 -156 -63 -245t-205 -89q-62 0 -123.5 31.5t-104.5 62.5t-61 31q-67 0 -70 -119h-196q-11 155 60 244.5t206 89.5zM180 0v1604h332v-1604h-332z" />
    <glyph glyph-name="itilde" unicode="&#x129;" horiz-adv-x="616" 
d="M162 1616q51 0 101 -19.5t81 -43t61 -43t46 -19.5q69 0 69 119h199q8 -156 -63 -245t-205 -89q-49 0 -98.5 19.5t-81.5 43t-63 43t-46 19.5q-67 0 -70 -119h-196q-11 155 60 244.5t206 89.5zM463 0h-322v1094h322v-1094z" />
    <glyph glyph-name="Imacron" unicode="&#x12a;" horiz-adv-x="706" 
d="M-12 1778v237h731v-237h-731zM186 0v1604h332v-1604h-332z" />
    <glyph glyph-name="imacron" unicode="&#x12b;" horiz-adv-x="616" 
d="M-41 1286v240h700v-240h-700zM469 0h-322v1094h322v-1094z" />
    <glyph glyph-name="Ibreve" unicode="&#x12c;" horiz-adv-x="706" 
d="M352 1759q-154 0 -266 103q-110 104 -125 264h242q11 -69 49.5 -109.5t99.5 -40.5t101 40.5t51 109.5h239q-15 -162 -125 -266q-107 -101 -266 -101zM186 0v1604h332v-1604h-332z" />
    <glyph glyph-name="ibreve" unicode="&#x12d;" horiz-adv-x="616" 
d="M307 1270q-157 0 -266 100q-110 104 -125 264h242q11 -69 49 -108t100 -39t102.5 39.5t51.5 107.5h237q-15 -160 -125 -264q-106 -100 -266 -100zM469 0h-322v1094h322v-1094z" />
    <glyph glyph-name="Iogonek" unicode="&#x12e;" horiz-adv-x="706" 
d="M186 1604h332v-1604q-199 -126 -199 -229q0 -53 45.5 -83t102.5 -30q27 0 45 2v-184q-64 -21 -156 -21q-130 0 -225 62q-94 58 -94 172q0 156 227 311h-78v1604z" />
    <glyph glyph-name="iogonek" unicode="&#x12f;" horiz-adv-x="616" 
d="M305 1278q-80 0 -138 58t-58 139t58 139.5t138 58.5q85 0 143 -57t58 -141q0 -82 -58.5 -139.5t-142.5 -57.5zM147 1094h322v-1094q-85 -51 -142 -113t-57 -116q0 -53 45.5 -83t102.5 -30q27 0 45 2v-184q-61 -21 -158 -21q-128 0 -225 60q-92 59 -92 174q0 155 225 311
h-66v1094z" />
    <glyph glyph-name="Idot" unicode="&#x130;" horiz-adv-x="706" 
d="M158 1929q0 82 57 139.5t137 57.5q82 0 140.5 -57.5t58.5 -139.5q0 -80 -58.5 -137t-140.5 -57q-80 0 -137 57.5t-57 136.5zM520 1604v-1604h-334v1604h334z" />
    <glyph glyph-name="dotlessi" unicode="&#x131;" horiz-adv-x="616" 
d="M469 0h-322v1094h322v-1094z" />
    <glyph glyph-name="IJ" unicode="&#x132;" horiz-adv-x="1980" 
d="M518 1604v-1604h-332v1604h332zM1475 1604h331v-1117q0 -238 -151 -374q-151 -133 -375 -133q-376 0 -514 344l281 155q71 -182 227 -182q94 0 147.5 56.5t53.5 158.5v1092z" />
    <glyph glyph-name="ij" unicode="&#x133;" horiz-adv-x="1249" 
d="M305 1673q85 0 143 -57t58 -141q0 -82 -58.5 -139.5t-142.5 -57.5q-80 0 -138 58t-58 139t58 139.5t138 58.5zM938 1673q84 0 142.5 -58t58.5 -140t-58.5 -139.5t-142.5 -57.5q-82 0 -139.5 57.5t-57.5 139.5t57.5 140t139.5 58zM469 0h-322v1094h322v-1094zM780 1094
h320v-1176q0 -234 -115.5 -346.5t-353.5 -112.5q-67 0 -113 15v268q27 -6 55 -6q107 0 157 46t50 152v1160z" />
    <glyph glyph-name="Kcommaaccent" unicode="&#x136;" horiz-adv-x="1507" 
d="M186 1604h330v-699l551 699h414l-613 -766l654 -838h-428l-578 762v-762h-330v1604zM963 -336v-10q0 -107 -64 -210.5t-172 -176.5l-98 94q119 79 178 203q-29 -13 -59 -13q-63 0 -105.5 44.5t-42.5 111.5q0 73 50 123.5t122 50.5q83 0 137 -60t54 -157z" />
    <glyph glyph-name="kcommaaccent" unicode="&#x137;" horiz-adv-x="1267" 
d="M147 0v1669h320v-1005l379 430h407l-440 -504l453 -590h-404l-387 518h-8v-518h-320zM819 -336v-10q0 -107 -64 -210.5t-171 -176.5l-99 94q120 80 179 203q-29 -13 -60 -13q-63 0 -105 44.5t-42 111.5q0 73 50 123.5t122 50.5q83 0 136.5 -60t53.5 -157z" />
    <glyph glyph-name="Lacute" unicode="&#x139;" horiz-adv-x="1236" 
d="M506 1751h-262l219 383h366zM518 315h686v-315h-1018v1604h332v-1289z" />
    <glyph glyph-name="lacute" unicode="&#x13a;" horiz-adv-x="616" 
d="M436 1817h-262l219 385h369zM147 0v1669h322v-1669h-322z" />
    <glyph glyph-name="Lcommaaccent" unicode="&#x13b;" horiz-adv-x="1236" 
d="M516 315h686v-315h-1016v1604h330v-1289zM872 -336v-10q0 -107 -64 -210.5t-171 -176.5l-98 94q119 79 178 203q-29 -13 -60 -13q-63 0 -105 44.5t-42 111.5q0 73 50 123.5t122 50.5q83 0 136.5 -60t53.5 -157z" />
    <glyph glyph-name="lcommaaccent" unicode="&#x13c;" horiz-adv-x="616" 
d="M147 0v1669h322v-1669h-322zM483 -336v-10q0 -107 -64 -210.5t-171 -176.5l-98 94q119 79 178 203q-29 -13 -60 -13q-63 0 -105 44.5t-42 111.5q0 73 50 123.5t122 50.5q83 0 136.5 -60t53.5 -157z" />
    <glyph glyph-name="Lcaron" unicode="&#x13d;" horiz-adv-x="1257" 
d="M1063 1169h-223l28 480h334zM516 315h686v-315h-1016v1604h330v-1289z" />
    <glyph glyph-name="lcaron" unicode="&#x13e;" horiz-adv-x="655" 
d="M147 0v1669h322v-1669h-322zM817 1190h-223l29 479h333z" />
    <glyph glyph-name="Ldot" unicode="&#x13f;" horiz-adv-x="1257" 
d="M516 315h686v-315h-1016v1604h330v-1289zM1001 997q82 0 141.5 -58.5t59.5 -139.5q0 -82 -58.5 -140.5t-142.5 -58.5q-80 0 -138 58.5t-58 140.5q0 81 58 139.5t138 58.5z" />
    <glyph glyph-name="ldot" unicode="&#x140;" horiz-adv-x="970" 
d="M147 0v1669h322v-1669h-322zM784 956q85 0 143 -57t58 -141q0 -82 -58.5 -140.5t-142.5 -58.5q-80 0 -137 58.5t-57 140.5t57 140t137 58z" />
    <glyph glyph-name="Lslash" unicode="&#x141;" horiz-adv-x="1323" 
d="M61 791l211 96v717h330v-568l420 191v-305l-420 -193v-410h686v-319h-1016v582l-211 -97v306z" />
    <glyph glyph-name="lslash" unicode="&#x142;" horiz-adv-x="888" 
d="M291 801v868h317v-694l211 117v-308l-211 -112v-672h-317v494l-209 -113v307z" />
    <glyph glyph-name="Nacute" unicode="&#x143;" horiz-adv-x="1777" 
d="M1059 1751h-262l219 383h366zM514 1106v-1106h-328v1604h379l697 -1047v1047h327v-1604h-338z" />
    <glyph glyph-name="nacute" unicode="&#x144;" horiz-adv-x="1310" 
d="M760 1276h-262l219 383h366zM1174 0h-320v606q0 100 -48 156.5t-142 56.5t-145.5 -59.5t-51.5 -153.5v-606h-320v1094h318v-144h4q29 50 75 86.5t95 50.5q77 27 137 27q196 0 297 -125t101 -309v-680z" />
    <glyph glyph-name="Ncommaaccent" unicode="&#x145;" horiz-adv-x="1777" 
d="M514 1106v-1106h-328v1604h379l697 -1047v1047h327v-1604h-338zM1065 -336v-10q0 -107 -64 -210.5t-172 -176.5l-98 94q119 79 178 203q-29 -13 -59 -13q-63 0 -105.5 44.5t-42.5 111.5q0 73 50 123.5t122 50.5q83 0 137 -60t54 -157z" />
    <glyph glyph-name="ncommaaccent" unicode="&#x146;" horiz-adv-x="1308" 
d="M1171 0h-317v606q0 99 -49 156t-141 57q-94 0 -145.5 -59.5t-51.5 -153.5v-606h-320v1094h318v-144h2q41 69 108 107q99 57 201 57q197 0 295 -125q100 -124 100 -309v-680zM838 -336v-10q0 -107 -64 -210.5t-172 -176.5l-98 94q119 79 178 203q-29 -13 -59 -13
q-63 0 -105.5 44.5t-42.5 111.5q0 73 50 123.5t122 50.5q83 0 137 -60t54 -157z" />
    <glyph glyph-name="Ncaron" unicode="&#x147;" horiz-adv-x="1777" 
d="M938 1919l127 186h270l-245 -356h-302l-245 356h270zM514 1106v-1106h-328v1604h379l697 -1047v1047h327v-1604h-338z" />
    <glyph glyph-name="ncaron" unicode="&#x148;" horiz-adv-x="1310" 
d="M662 1448l124 186h273l-248 -356h-299l-248 356h273zM1174 0h-320v606q0 100 -48 156.5t-142 56.5t-145.5 -59.5t-51.5 -153.5v-606h-320v1094h318v-144h4q29 50 75 86.5t95 50.5q77 27 137 27q196 0 297 -125t101 -309v-680z" />
    <glyph glyph-name="Eng" unicode="&#x14a;" horiz-adv-x="1777" 
d="M186 0v1604h379l697 -1045v1045h327v-1686q0 -234 -115.5 -346.5t-351.5 -112.5q-68 0 -114 15v268q27 -6 55 -6q199 0 199 198v50l-748 1122v-1106h-328z" />
    <glyph glyph-name="eng" unicode="&#x14b;" horiz-adv-x="1308" 
d="M776 1114q197 0 295 -125q100 -124 100 -309v-762q0 -234 -115 -346.5t-351 -112.5q-67 0 -113 15v268q27 -6 55 -6q107 0 157 46t50 152v672q0 99 -49 156t-141 57q-94 0 -145.5 -59.5t-51.5 -153.5v-606h-320v1094h318v-144h2q41 69 108 107q99 57 201 57z" />
    <glyph glyph-name="Omacron" unicode="&#x14c;" horiz-adv-x="1841" 
d="M551 1778v237h745v-237h-745zM88 801q0 342 246 585q245 242 592 242q345 0 585 -237q242 -236 242 -582q0 -349 -246 -592q-242 -242 -589 -242q-345 0 -588 240q-242 239 -242 586zM571 1159q-143 -146 -143 -356t143 -359q144 -147 351 -147q206 0 350 147
q143 149 143 359t-143 356q-145 148 -350 148q-206 0 -351 -148z" />
    <glyph glyph-name="omacron" unicode="&#x14d;" horiz-adv-x="1353" 
d="M305 1286v240h746v-240h-746zM80 545q0 245 174 407q175 166 426 166q249 0 422 -164q172 -163 172 -403q0 -247 -174 -412q-176 -164 -424 -164q-253 0 -424 162q-172 163 -172 408zM408 549q0 -123 77 -203q78 -78 193 -78q116 0 192 79t76 202q0 121 -78 199
q-76 79 -192 79q-115 0 -191 -79q-77 -77 -77 -199z" />
    <glyph glyph-name="Ohungarumlaut" unicode="&#x150;" horiz-adv-x="1841" 
d="M821 1745h-252l219 385h359zM1274 1745h-252l219 385h358zM88 801q0 342 246 585q245 242 592 242q345 0 585 -237q242 -236 242 -582q0 -349 -246 -592q-242 -242 -589 -242q-345 0 -588 240q-242 239 -242 586zM571 1159q-143 -146 -143 -356t143 -359
q144 -147 351 -147q206 0 350 147q143 149 143 359t-143 356q-145 148 -350 148q-206 0 -351 -148z" />
    <glyph glyph-name="ohungarumlaut" unicode="&#x151;" horiz-adv-x="1353" 
d="M569 1276h-254l222 383h356zM1022 1276h-254l219 383h359zM80 545q0 245 174 407q175 166 426 166q249 0 422 -164q172 -163 172 -403q0 -247 -174 -412q-176 -164 -424 -164q-253 0 -424 162q-172 163 -172 408zM408 549q0 -123 77 -203q78 -78 193 -78q116 0 192 79
t76 202q0 121 -78 199q-76 79 -192 79q-115 0 -191 -79q-77 -77 -77 -199z" />
    <glyph glyph-name="OE" unicode="&#x152;" horiz-adv-x="2586" 
d="M2470 0h-1055v170q-214 -190 -500 -190q-349 0 -587 235q-240 237 -240 582q0 344 246 587q247 244 592 244q279 0 489 -192v168h1049v-312h-725v-325h651v-312h-651v-346h731v-309zM428 803q0 -206 145 -357q144 -147 351 -147q204 0 348 147q145 151 145 357
q0 208 -145 356q-144 150 -348 150q-207 0 -351 -150q-145 -148 -145 -356z" />
    <glyph glyph-name="oe" unicode="&#x153;" horiz-adv-x="2152" 
d="M2068 459h-794q12 -93 86 -154t184 -61q73 0 140.5 36t103.5 95l231 -152q-137 -248 -471 -248q-269 0 -438 175q-178 -175 -434 -175q-253 0 -424 162q-172 163 -172 408t174 407q175 166 426 166q264 0 432 -174q170 176 416 176q244 0 395 -151q152 -152 152 -396
q0 -49 -7 -114zM1282 670h469q-5 78 -66 134t-165 56q-101 0 -164 -63q-65 -62 -74 -127zM946 549q0 121 -78 199q-76 79 -192 79q-115 0 -191 -79q-77 -77 -77 -199q0 -123 77 -203q78 -78 193 -78q116 0 192 79t76 202z" />
    <glyph glyph-name="Racute" unicode="&#x154;" horiz-adv-x="1497" 
d="M1147 2134l-326 -383h-262l219 383h369zM1419 0h-368l-332 575h-201v-575h-332v1604h633q245 0 406 -134q161 -130 161 -374q0 -349 -329 -469zM518 1290v-407h277q110 0 183 53.5t73 153.5q0 101 -71 150.5t-187 49.5h-275z" />
    <glyph glyph-name="racute" unicode="&#x155;" horiz-adv-x="870" 
d="M565 1276h-262l219 383h367zM840 1098v-316q-38 6 -76 6q-150 0 -223.5 -86t-73.5 -239v-463h-320v1094h318v-168h2q37 78 120.5 129t188.5 51q43 0 64 -8z" />
    <glyph glyph-name="Rcommaaccent" unicode="&#x156;" horiz-adv-x="1497" 
d="M1057 627l362 -627h-368l-332 575h-201v-575h-332v1604h633q245 0 406 -134q161 -130 161 -374q0 -349 -329 -469zM518 1290v-407h277q110 0 183 53.5t73 153.5q0 101 -71 150.5t-187 49.5h-275zM752 -119q83 0 136.5 -60t53.5 -157v-10q0 -107 -64 -210.5t-171 -176.5
l-99 94q119 79 178 203q-29 -13 -59 -13q-63 0 -105 44.5t-42 111.5q0 73 50 123.5t122 50.5z" />
    <glyph glyph-name="rcommaaccent" unicode="&#x157;" horiz-adv-x="870" 
d="M840 1098v-316q-38 6 -76 6q-150 0 -223.5 -86t-73.5 -239v-463h-320v1094h318v-168h2q37 78 120.5 129t188.5 51q43 0 64 -8zM489 -336v-10q0 -107 -64 -210.5t-171 -176.5l-98 94q119 79 178 203q-29 -13 -60 -13q-63 0 -105 44.5t-42 111.5q0 73 50 123.5t122 50.5
q83 0 136.5 -60t53.5 -157z" />
    <glyph glyph-name="Rcaron" unicode="&#x158;" horiz-adv-x="1497" 
d="M838 1749h-301l-246 356h272l123 -186l127 186h270zM1419 0h-368l-332 575h-201v-575h-332v1604h633q245 0 406 -134q161 -130 161 -374q0 -349 -329 -469zM518 1290v-407h277q110 0 183 53.5t73 153.5q0 101 -71 150.5t-187 49.5h-275z" />
    <glyph glyph-name="rcaron" unicode="&#x159;" horiz-adv-x="870" 
d="M485 1448l127 186h271l-246 -356h-301l-248 356h274zM840 1098v-316q-38 6 -76 6q-150 0 -223.5 -86t-73.5 -239v-463h-320v1094h318v-168h2q37 78 120.5 129t188.5 51q43 0 64 -8z" />
    <glyph glyph-name="Sacute" unicode="&#x15a;" horiz-adv-x="1335" 
d="M795 1751h-263l220 383h366zM692 969q296 -84 428.5 -197.5t132.5 -300.5q0 -221 -155 -358q-156 -138 -432 -138q-223 0 -388.5 101t-238.5 276l287 148q48 -106 139 -165t211 -59q106 0 175 48t69 122q0 71 -64 111q-62 43 -240 96q-278 82 -391 195q-123 120 -123 297
q0 211 164 346q162 137 396 137q201 0 347.5 -90t215.5 -256l-275 -149q-82 196 -303 196q-97 0 -155 -45.5t-58 -118.5q0 -70 59 -113.5t199 -82.5z" />
    <glyph glyph-name="sacute" unicode="&#x15b;" horiz-adv-x="1069" 
d="M668 1276h-262l219 383h366zM971 330q0 -160 -117.5 -257.5t-318.5 -97.5q-346 0 -478 252l236 140q69 -134 246 -134q59 0 96 23.5t37 56.5q0 35 -37.5 60t-136.5 47q-389 85 -389 354q0 154 122 248q125 98 297 98q148 0 257 -59t165 -162l-231 -137q-61 104 -199 104
q-49 0 -81.5 -23.5t-32.5 -56.5q0 -70 143 -100q211 -44 316.5 -130t105.5 -226z" />
    <glyph glyph-name="Scircumflex" unicode="&#x15c;" horiz-adv-x="1335" 
d="M266 1749l246 356h301l248 -356h-273l-124 186l-125 -186h-273zM692 969q296 -84 428.5 -197.5t132.5 -300.5q0 -221 -155 -358q-156 -138 -432 -138q-223 0 -388.5 101t-238.5 276l287 148q48 -106 139 -165t211 -59q106 0 175 48t69 122q0 71 -64 111q-62 43 -240 96
q-278 82 -391 195q-123 120 -123 297q0 211 164 346q162 137 396 137q201 0 347.5 -90t215.5 -256l-275 -149q-82 196 -303 196q-97 0 -155 -45.5t-58 -118.5q0 -70 59 -113.5t199 -82.5z" />
    <glyph glyph-name="scircumflex" unicode="&#x15d;" horiz-adv-x="1048" 
d="M160 1278l248 356h299l247 -356h-272l-125 186l-125 -186h-272zM971 330q0 -160 -117.5 -257.5t-318.5 -97.5q-346 0 -478 252l236 140q69 -134 246 -134q59 0 96 23.5t37 56.5q0 35 -37.5 60t-136.5 47q-389 85 -389 354q0 154 122 248q125 98 297 98q148 0 257 -59
t165 -162l-231 -137q-61 104 -199 104q-49 0 -81.5 -23.5t-32.5 -56.5q0 -70 143 -100q211 -44 316.5 -130t105.5 -226z" />
    <glyph glyph-name="Scedilla" unicode="&#x15e;" horiz-adv-x="1335" 
d="M1253 471q0 -186 -113.5 -315.5t-314.5 -165.5q39 -85 39 -197q0 -328 -387 -328q-85 0 -147 19v215q62 -10 106 -10q86 0 130 50.5t44 143.5q0 51 -16 94q-197 17 -343 116t-212 259l287 148q48 -106 139 -165t211 -59q106 0 175 48t69 122q0 71 -64 111q-62 43 -240 96
q-278 82 -391 195q-123 120 -123 297q0 211 164 346q162 137 396 137q201 0 347.5 -90t215.5 -256l-275 -149q-82 196 -303 196q-97 0 -155 -45.5t-58 -118.5q0 -70 59 -113.5t199 -82.5q296 -84 428.5 -197.5t132.5 -300.5z" />
    <glyph glyph-name="scedilla" unicode="&#x15f;" horiz-adv-x="1028" 
d="M971 330q0 -130 -81 -221.5t-226 -120.5q38 -75 38 -195q0 -328 -385 -328q-87 0 -149 19v215q62 -10 106 -10q87 0 132 51t45 143q0 50 -19 99q-261 30 -375 245l236 140q69 -134 246 -134q59 0 96 23.5t37 56.5q0 35 -37.5 60t-136.5 47q-389 85 -389 354
q0 154 122 248q125 98 297 98q148 0 257 -59t165 -162l-231 -137q-61 104 -199 104q-49 0 -81.5 -23.5t-32.5 -56.5q0 -70 143 -100q211 -44 316.5 -130t105.5 -226z" />
    <glyph glyph-name="Scaron" unicode="&#x160;" horiz-adv-x="1335" 
d="M664 1925l127 189h270l-246 -359h-301l-250 359h277zM692 969q296 -84 428.5 -197.5t132.5 -300.5q0 -221 -155 -358q-156 -138 -432 -138q-223 0 -388.5 101t-238.5 276l287 148q48 -106 139 -165t211 -59q106 0 175 48t69 122q0 71 -64 111q-62 43 -240 96
q-278 82 -391 195q-123 120 -123 297q0 211 164 346q162 137 396 137q201 0 347.5 -90t215.5 -256l-275 -149q-82 196 -303 196q-97 0 -155 -45.5t-58 -118.5q0 -70 59 -113.5t199 -82.5z" />
    <glyph glyph-name="scaron" unicode="&#x161;" horiz-adv-x="1048" 
d="M561 1452l125 186h272l-247 -356h-299l-252 356h276zM971 330q0 -160 -117.5 -257.5t-318.5 -97.5q-346 0 -478 252l236 140q69 -134 246 -134q59 0 96 23.5t37 56.5q0 35 -37.5 60t-136.5 47q-389 85 -389 354q0 154 122 248q125 98 297 98q148 0 257 -59t165 -162
l-231 -137q-61 104 -199 104q-49 0 -81.5 -23.5t-32.5 -56.5q0 -70 143 -100q211 -44 316.5 -130t105.5 -226z" />
    <glyph glyph-name="uni0162" unicode="&#x162;" horiz-adv-x="1378" 
d="M899 -207q0 -328 -385 -328q-87 0 -149 19v215q62 -10 106 -10q86 0 131 51t45 143q0 61 -24 117h-99v1282h-481v322h1292v-322h-481v-1282q45 -80 45 -207z" />
    <glyph glyph-name="uni0163" unicode="&#x163;" horiz-adv-x="921" 
d="M829 817h-270v-381q0 -92 47.5 -133t143.5 -41q42 0 73 8v-264q-67 -20 -149 -20h-19q39 -79 39 -193q0 -328 -387 -328q-60 0 -117 11v219q74 -6 76 -6q86 0 131 51t45 143q0 89 -51 178q-151 106 -151 336v420h-197v277h201v342h315v-342h270v-277z" />
    <glyph glyph-name="Tcaron" unicode="&#x164;" horiz-adv-x="1380" 
d="M690 1919l127 186h270l-245 -356h-301l-246 356h272zM526 0v1282h-483v322h1294v-322h-481v-1282h-330z" />
    <glyph glyph-name="tcaron" unicode="&#x165;" horiz-adv-x="921" 
d="M922 1200h-224l29 469h334zM823 270v-264q-67 -20 -149 -20q-211 0 -322.5 108t-111.5 303v420h-197v277h201v342h315v-342h270v-277h-270v-381q0 -92 47.5 -133t143.5 -41q42 0 73 8z" />
    <glyph glyph-name="Tbar" unicode="&#x166;" horiz-adv-x="1413" 
d="M274 809h267v473h-482v322h1295v-322h-482v-473h267v-270h-267v-539h-331v539h-267v270z" />
    <glyph glyph-name="tbar" unicode="&#x167;" horiz-adv-x="921" 
d="M829 817h-270v-170h211v-211h-211q0 -92 47.5 -133t143.5 -41q42 0 73 8v-264q-67 -20 -149 -20q-211 0 -322.5 108t-111.5 303v39h-187v211h187v170h-197v277h201v342h315v-342h270v-277z" />
    <glyph glyph-name="Utilde" unicode="&#x168;" horiz-adv-x="1628" 
d="M670 2087q51 0 100.5 -19.5t80.5 -43t61 -43t46 -19.5q70 0 70 119h199q8 -156 -63.5 -245t-205.5 -89q-62 0 -123 31.5t-104 62.5t-61 31q-67 0 -70 -119h-197q-11 155 60.5 244.5t206.5 89.5zM1130 1604h328v-957q0 -319 -165.5 -494.5t-481.5 -175.5
q-315 0 -478 174.5t-163 483.5v969h334l-2 -961q0 -166 85 -256t226 -90q151 0 234 90.5t83 247.5v969z" />
    <glyph glyph-name="utilde" unicode="&#x169;" horiz-adv-x="1310" 
d="M504 1616q51 0 101 -19.5t81 -43t61 -43t46 -19.5q69 0 69 119h199q8 -156 -63 -245t-205 -89q-49 0 -98.5 19.5t-81.5 43t-63 43t-46 19.5q-67 0 -70 -119h-196q-11 155 60 244.5t206 89.5zM137 1094h320v-611q0 -99 47 -154t141 -55t145.5 57.5t51.5 151.5v611h319
v-1094h-315v135h-2q-109 -158 -305 -158q-194 0 -299 123q-103 127 -103 308v686z" />
    <glyph glyph-name="Umacron" unicode="&#x16a;" horiz-adv-x="1628" 
d="M442 1778v237h746v-237h-746zM1130 1604h328v-957q0 -319 -165.5 -494.5t-481.5 -175.5q-315 0 -478 174.5t-163 483.5v969h334l-2 -961q0 -166 85 -256t226 -90q151 0 234 90.5t83 247.5v969z" />
    <glyph glyph-name="umacron" unicode="&#x16b;" horiz-adv-x="1310" 
d="M276 1286v240h746v-240h-746zM137 1094h320v-611q0 -99 47 -154t141 -55t145.5 57.5t51.5 151.5v611h319v-1094h-315v135h-2q-109 -158 -305 -158q-194 0 -299 123q-103 127 -103 308v686z" />
    <glyph glyph-name="Uring" unicode="&#x16e;" horiz-adv-x="1628" 
d="M1135 2005q0 -126 -95 -215q-91 -88 -225 -88q-129 0 -223 88q-92 89 -92 215q0 124 92 213q94 88 223 88q134 0 225 -88q95 -89 95 -213zM948 2005q0 50 -39 87.5t-94 37.5q-57 0 -94 -35.5t-37 -89.5q0 -51 38 -88t93 -37q56 0 94.5 36.5t38.5 88.5zM1130 1604h328
v-957q0 -319 -165.5 -494.5t-481.5 -175.5q-315 0 -478 174.5t-163 483.5v969h334l-2 -961q0 -166 85 -256t226 -90q151 0 234 90.5t83 247.5v969z" />
    <glyph glyph-name="uring" unicode="&#x16f;" horiz-adv-x="1308" 
d="M965 1536q0 -126 -95 -215q-91 -88 -223 -88q-129 0 -223 88q-92 89 -92 215q0 124 92 213q94 88 223 88q132 0 223 -88q95 -89 95 -213zM780 1536q0 50 -39.5 87.5t-93.5 37.5q-57 0 -95 -35.5t-38 -89.5q0 -51 39 -88t94 -37t94 37t39 88zM137 1094h320v-611
q0 -99 47 -154t141 -55t145.5 57.5t51.5 151.5v611h319v-1094h-315v135h-2q-109 -158 -305 -158q-194 0 -299 123q-103 127 -103 308v686z" />
    <glyph glyph-name="Uhungarumlaut" unicode="&#x170;" horiz-adv-x="1628" 
d="M717 1745h-254l219 385h358zM1167 1745h-252l220 385h358zM1130 1604h328v-957q0 -319 -165.5 -494.5t-481.5 -175.5q-315 0 -478 174.5t-163 483.5v969h334l-2 -961q0 -166 85 -256t226 -90q151 0 234 90.5t83 247.5v969z" />
    <glyph glyph-name="uhungarumlaut" unicode="&#x171;" horiz-adv-x="1308" 
d="M541 1276h-254l221 383h356zM991 1276h-252l219 383h359zM137 1094h320v-611q0 -99 47 -154t141 -55t145.5 57.5t51.5 151.5v611h319v-1094h-315v135h-2q-109 -158 -305 -158q-194 0 -299 123q-103 127 -103 308v686z" />
    <glyph glyph-name="Uogonek" unicode="&#x172;" horiz-adv-x="1628" 
d="M1130 1604h328v-963q0 -405 -280 -575q-123 -76 -200 -157.5t-77 -137.5q0 -53 45.5 -83t102.5 -30q27 0 45 2v-184q-62 -21 -158 -21q-128 0 -223 62q-95 59 -95 172q0 147 193 291q-314 0 -477.5 174t-163.5 483v967h334l-2 -961q0 -166 85 -256t226 -90
q151 0 234 90.5t83 247.5v969z" />
    <glyph glyph-name="uogonek" unicode="&#x173;" horiz-adv-x="1308" 
d="M842 1094h319v-1094q-198 -125 -198 -229q0 -53 45 -83t102 -30q2 0 20 1t23 1v-184q-61 -21 -156 -21q-128 0 -223 62q-94 58 -94 172q0 156 227 311h-61v135h-2q-109 -158 -305 -158q-194 0 -299 123q-103 127 -103 308v686h320v-611q0 -99 47 -154t141 -55t145.5 57.5
t51.5 151.5v611z" />
    <glyph glyph-name="Wcircumflex" unicode="&#x174;" horiz-adv-x="2439" 
d="M821 1749l250 356h301l248 -356h-272l-125 186l-125 -186h-277zM39 1604h354l305 -1139l346 1139h355l346 -1147l315 1147h342l-475 -1604h-358l-348 1163h-4l-351 -1163h-356z" />
    <glyph glyph-name="wcircumflex" unicode="&#x175;" horiz-adv-x="1828" 
d="M518 1278l248 356h301l246 -356h-271l-127 186l-122 -186h-275zM1794 1094l-344 -1094h-313l-224 698h-2l-225 -698h-309l-340 1094h328l196 -678h2l205 678h295l205 -684l207 684h319z" />
    <glyph glyph-name="Ycircumflex" unicode="&#x176;" horiz-adv-x="1562" 
d="M782 1919l125 186h273l-248 -356h-299l-248 356h272zM29 1604h383l370 -641l375 641h379l-588 -955v-649h-332v635z" />
    <glyph glyph-name="ycircumflex" unicode="&#x177;" horiz-adv-x="1271" 
d="M244 1278l245 356h302l245 -356h-270l-127 186l-123 -186h-272zM487 117l-460 977h352l272 -625l244 625h330l-664 -1633h-342z" />
    <glyph glyph-name="Ydieresis" unicode="&#x178;" horiz-adv-x="1562" 
d="M688 1911q0 -73 -52 -125.5t-126 -52.5q-73 0 -124.5 52t-51.5 126t51.5 126t124.5 52t125.5 -53t52.5 -125zM1143 1784q-51 -51 -125 -51t-125 51q-51 54 -51 127.5t51 124.5q51 54 125 54t125 -54q54 -51 54 -124.5t-54 -127.5zM29 1604h383l370 -641l375 641h379
l-588 -955v-649h-332v635z" />
    <glyph glyph-name="Zacute" unicode="&#x179;" horiz-adv-x="1402" 
d="M797 1751h-262l219 383h366zM883 1296h-764v308h1175v-285l-794 -1012h813v-307h-1231v293z" />
    <glyph glyph-name="zacute" unicode="&#x17a;" horiz-adv-x="1105" 
d="M639 1276h-262l219 383h367zM104 1094h906v-244l-516 -578h518v-272h-924v248l510 573h-494v273z" />
    <glyph glyph-name="Zdotaccent" unicode="&#x17b;" horiz-adv-x="1402" 
d="M504 1929q0 81 57 139t135 58q82 0 140.5 -57.5t58.5 -139.5q0 -80 -58.5 -137t-140.5 -57q-78 0 -135 57.5t-57 136.5zM883 1296h-764v308h1175v-285l-794 -1012h813v-307h-1229v293z" />
    <glyph glyph-name="zdotaccent" unicode="&#x17c;" horiz-adv-x="1107" 
d="M354 1460q0 80 58 137.5t137 57.5q81 0 138.5 -57.5t57.5 -137.5q0 -82 -57 -139t-139 -57q-80 0 -137.5 57.5t-57.5 138.5zM104 1094h906v-244l-516 -578h520v-272h-926v248l512 573h-496v273z" />
    <glyph glyph-name="Zcaron" unicode="&#x17d;" horiz-adv-x="1406" 
d="M702 1919l125 186h273l-248 -356h-299l-252 356h277zM887 1296h-770v308h1181v-285l-794 -1012h813v-307h-1233v293z" />
    <glyph glyph-name="zcaron" unicode="&#x17e;" horiz-adv-x="1107" 
d="M551 1448l127 186h270l-248 -356h-299l-247 356h272zM104 1094h906v-244l-516 -578h520v-272h-926v248l510 573h-494v273z" />
    <glyph glyph-name="florin" unicode="&#x192;" horiz-adv-x="1267" 
d="M311 1094h258l27 127q82 389 475 389q107 0 168 -21v-268q-82 16 -135 16q-167 0 -197 -161l-16 -82h252v-273h-305l-90 -450q-26 -148 -134 -265q-112 -124 -348 -124q-96 0 -170 22v268q75 -16 140 -16q163 0 198 160l80 405h-203v273z" />
    <glyph glyph-name="uni01B5" unicode="&#x1b5;" horiz-adv-x="1406" 
d="M387 668h-268v284h491l275 348h-766v304h1177v-281l-290 -371h290v-284h-512l-284 -363h813l2 -305h-1229v287z" />
    <glyph glyph-name="uni01B6" unicode="&#x1b6;" horiz-adv-x="1107" 
d="M88 233l199 230h-183v168h326l168 194h-494v269h906v-230l-203 -233h203v-168h-348l-168 -195h520v-268h-926v233z" />
    <glyph glyph-name="uni01CD" unicode="&#x1cd;" horiz-adv-x="1622" 
d="M805 1925l125 189h270l-246 -359h-301l-245 359h272zM332 0h-334l612 1604h400l614 -1604h-342l-121 324h-710zM807 1282l-242 -651h484z" />
    <glyph glyph-name="uni01CE" unicode="&#x1ce;" horiz-adv-x="1218" 
d="M608 1448l127 186h271l-246 -356h-301l-246 356h272zM455 -20q-155 0 -262 88t-107 237v4q0 95 43.5 165t118.5 106q138 65 325 65h109q86 0 86 80q0 59 -46.5 97t-129.5 38q-162 0 -244 -147l-244 145q140 260 502 260q221 0 348 -114t127 -326v-678h-295v135l-4 2
q-112 -157 -327 -157zM547 213q101 0 160 59t59 152v25h-193q-72 0 -118.5 -33t-46.5 -92q0 -54 38 -82.5t101 -28.5z" />
    <glyph glyph-name="uni01CF" unicode="&#x1cf;" horiz-adv-x="706" 
d="M352 1919l127 186h271l-246 -356h-301l-248 356h274zM518 1604v-1604h-332v1604h332z" />
    <glyph glyph-name="uni01D0" unicode="&#x1d0;" horiz-adv-x="616" 
d="M307 1448l127 186h271l-246 -356h-301l-246 356h272zM147 1094h322v-1094h-322v1094z" />
    <glyph glyph-name="uni01D1" unicode="&#x1d1;" horiz-adv-x="1841" 
d="M922 1919l125 186h272l-248 -356h-301l-246 356h273zM88 801q0 342 246 585q245 242 592 242q345 0 585 -237q242 -236 242 -582q0 -349 -246 -592q-242 -242 -589 -242q-345 0 -588 240q-242 239 -242 586zM571 1159q-143 -146 -143 -356t143 -359q144 -147 351 -147
q206 0 350 147q143 149 143 359t-143 356q-145 148 -350 148q-206 0 -351 -148z" />
    <glyph glyph-name="uni01D2" unicode="&#x1d2;" horiz-adv-x="1353" 
d="M678 1448l125 186h270l-246 -356h-301l-245 356h272zM80 545q0 245 174 407q175 166 426 166q249 0 422 -164q172 -163 172 -403q0 -247 -174 -412q-176 -164 -424 -164q-253 0 -424 162q-172 163 -172 408zM408 549q0 -123 77 -203q78 -78 193 -78q116 0 192 79t76 202
q0 121 -78 199q-76 79 -192 79q-115 0 -191 -79q-77 -77 -77 -199z" />
    <glyph glyph-name="uni01D3" unicode="&#x1d3;" horiz-adv-x="1628" 
d="M815 1919l125 186h272l-247 -356h-299l-248 356h272zM1130 1604h328v-957q0 -319 -165.5 -494.5t-481.5 -175.5q-315 0 -478 174.5t-163 483.5v969h334l-2 -961q0 -166 85 -256t226 -90q151 0 234 90.5t83 247.5v969z" />
    <glyph glyph-name="uni01D4" unicode="&#x1d4;" horiz-adv-x="1308" 
d="M649 1448l125 186h273l-248 -356h-299l-248 356h272zM137 1094h320v-611q0 -99 47 -154t141 -55t145.5 57.5t51.5 151.5v611h319v-1094h-315v135h-2q-109 -158 -305 -158q-194 0 -299 123q-103 127 -103 308v686z" />
    <glyph glyph-name="uni01D5" unicode="&#x1d5;" horiz-adv-x="1628" 
d="M442 2136v240h746v-240h-746zM686 1735q-51 -51 -125 -51t-125 51t-51 125t51 125q51 54 125 54t125 -54q54 -51 54 -125t-54 -125zM1069 1683q-72 0 -124 52t-52 125q0 74 51.5 126t124.5 52t125.5 -52t52.5 -126q0 -73 -52 -125t-126 -52zM1130 1604h328v-957
q0 -319 -165.5 -494.5t-481.5 -175.5q-315 0 -478 174.5t-163 483.5v969h334l-2 -961q0 -166 85 -256t226 -90q151 0 234 90.5t83 247.5v969z" />
    <glyph glyph-name="uni01D6" unicode="&#x1d6;" horiz-adv-x="1308" 
d="M276 1626v240h746v-240h-746zM406 1548q74 0 126 -52t52 -126q0 -73 -52 -124.5t-126 -51.5t-125.5 51.5t-51.5 124.5q0 74 51 126t126 52zM1018 1245q-51 -51 -125 -51t-125 51t-51 125t51 125q51 54 125 54t125 -54q54 -51 54 -125t-54 -125zM137 1094h320v-611
q0 -99 47 -154t141 -55t145.5 57.5t51.5 151.5v611h319v-1094h-315v135h-2q-109 -158 -305 -158q-194 0 -299 123q-103 127 -103 308v686z" />
    <glyph glyph-name="uni01D7" unicode="&#x1d7;" horiz-adv-x="1628" 
d="M938 2066h-262l207 363h362zM686 1714q-51 -51 -125 -51t-125 51t-51 125t51 125q51 54 125 54t125 -54q54 -51 54 -125t-54 -125zM1069 1663q-72 0 -124 51.5t-52 124.5q0 74 51.5 126t124.5 52t125.5 -52.5t52.5 -125.5t-52 -124.5t-126 -51.5zM1130 1604h328v-957
q0 -319 -165.5 -494.5t-481.5 -175.5q-315 0 -478 174.5t-163 483.5v969h332v-961q0 -166 85 -256t226 -90q151 0 234 90.5t83 247.5v969z" />
    <glyph glyph-name="uni01D8" unicode="&#x1d8;" horiz-adv-x="1308" 
d="M772 1595h-262l219 385h367zM406 1548q74 0 126 -52t52 -126q0 -73 -52 -124.5t-126 -51.5t-125.5 51.5t-51.5 124.5q0 74 51 126t126 52zM1018 1245q-51 -51 -125 -51t-125 51t-51 125t51 125q51 54 125 54t125 -54q54 -51 54 -125t-54 -125zM137 1094h320v-611
q0 -99 47 -154t141 -55t145.5 57.5t51.5 151.5v611h319v-1094h-315v135h-2q-109 -158 -305 -158q-194 0 -299 123q-103 127 -103 308v686z" />
    <glyph glyph-name="uni01D9" unicode="&#x1d9;" horiz-adv-x="1628" 
d="M815 2228l125 174h272l-247 -336h-299l-248 336h272zM686 1714q-51 -51 -125 -51t-125 51t-51 125t51 125q51 54 125 54t125 -54q54 -51 54 -125t-54 -125zM1069 1663q-72 0 -124 51.5t-52 124.5q0 74 51.5 126t124.5 52t125.5 -52.5t52.5 -125.5t-52 -124.5t-126 -51.5z
M1130 1604h328v-957q0 -319 -165.5 -494.5t-481.5 -175.5q-315 0 -478 174.5t-163 483.5v969h332v-961q0 -166 85 -256t226 -90q151 0 234 90.5t83 247.5v969z" />
    <glyph glyph-name="uni01DA" unicode="&#x1da;" horiz-adv-x="1308" 
d="M649 1765l125 189h273l-248 -359h-299l-248 359h272zM406 1548q74 0 126 -52t52 -126q0 -73 -52 -124.5t-126 -51.5t-125.5 51.5t-51.5 124.5q0 74 51 126t126 52zM1018 1245q-51 -51 -125 -51t-125 51t-51 125t51 125q51 54 125 54t125 -54q54 -51 54 -125t-54 -125z
M137 1094h320v-611q0 -99 47 -154t141 -55t145.5 57.5t51.5 151.5v611h319v-1094h-315v135h-2q-109 -158 -305 -158q-194 0 -299 123q-103 127 -103 308v686z" />
    <glyph glyph-name="uni01DB" unicode="&#x1db;" horiz-adv-x="1628" 
d="M389 2429h361l208 -363h-262zM436 1714q-51 51 -51 125t51 125q51 54 125 54t125 -54q54 -51 54 -125t-54 -125q-51 -51 -125 -51t-125 51zM1069 1663q-72 0 -124 51.5t-52 124.5q0 74 51.5 126t124.5 52t125.5 -52.5t52.5 -125.5t-52 -124.5t-126 -51.5zM1130 1604h328
v-957q0 -319 -165.5 -494.5t-481.5 -175.5q-315 0 -478 174.5t-163 483.5v969h334l-2 -961q0 -166 85 -256t226 -90q151 0 234 90.5t83 247.5v969z" />
    <glyph glyph-name="uni01DC" unicode="&#x1dc;" horiz-adv-x="1308" 
d="M535 1595l-324 385h367l219 -385h-262zM406 1548q74 0 126 -52t52 -126q0 -73 -52 -124.5t-126 -51.5t-125.5 51.5t-51.5 124.5q0 74 51 126t126 52zM1018 1245q-51 -51 -125 -51t-125 51t-51 125t51 125q51 54 125 54t125 -54q54 -51 54 -125t-54 -125zM137 1094h320
v-611q0 -99 47 -154t141 -55t145.5 57.5t51.5 151.5v611h319v-1094h-315v135h-2q-109 -158 -305 -158q-194 0 -299 123q-103 127 -103 308v686z" />
    <glyph glyph-name="Gcaron" unicode="&#x1e6;" horiz-adv-x="1757" 
d="M926 1919l127 186h270l-248 -356h-299l-248 356h275zM426 803q0 -212 139 -363q137 -149 355 -149q159 0 270.5 74t142.5 196h-487v301h833v-125q0 -241 -110 -418q-106 -172 -274 -258t-375 -86q-366 0 -601 238q-231 240 -231 588q0 347 244 588q245 239 592 239
q278 0 467 -139q186 -137 251 -313l-292 -144q-48 118 -152 197q-106 86 -278 86q-206 0 -351 -148q-143 -146 -143 -364z" />
    <glyph glyph-name="gcaron" unicode="&#x1e7;" horiz-adv-x="1396" 
d="M688 1448l127 186h270l-245 -356h-301l-246 356h272zM104 -233l261 149q91 -184 290 -184q128 0 201.5 65.5t73.5 190.5v166h-4q-116 -146 -316 -146q-232 0 -381 158q-147 156 -147 391q0 220 143 385q143 168 373 168q207 0 332 -149h4v133h313v-1098q0 -255 -166 -399
q-163 -144 -424 -144q-406 0 -553 314zM938 557q0 118 -75 193t-191 75q-114 0 -190 -75.5t-76 -192.5q0 -121 75 -195.5t191 -74.5q114 0 190 75t76 195z" />
    <glyph glyph-name="uni01E8" unicode="&#x1e8;" horiz-adv-x="1509" 
d="M815 1919l125 186h272l-247 -356h-299l-248 356h272zM518 1604v-699l549 699h416l-613 -766l652 -838h-426l-578 762v-762h-332v1604h332z" />
    <glyph glyph-name="uni01E9" unicode="&#x1e9;" horiz-adv-x="1267" 
d="M147 0v1669h320v-1005l379 430h407l-440 -504l453 -590h-404l-387 518h-8v-518h-320zM809 1278l-248 356h273l124 -186l125 186h273l-248 -356h-299z" />
    <glyph glyph-name="uni01F4" unicode="&#x1f4;" horiz-adv-x="1757" 
d="M1051 1751h-263l220 383h366zM426 803q0 -212 139 -363q137 -149 355 -149q159 0 270.5 74t142.5 196h-487v301h833v-125q0 -241 -110 -418q-106 -172 -274 -258t-375 -86q-366 0 -601 238q-231 240 -231 588q0 347 244 588q245 239 592 239q278 0 467 -139
q186 -137 251 -313l-292 -144q-48 118 -152 197q-106 86 -278 86q-206 0 -351 -148q-143 -146 -143 -364z" />
    <glyph glyph-name="uni01F5" unicode="&#x1f5;" horiz-adv-x="1396" 
d="M762 1276h-262l219 383h366zM104 -233l261 149q91 -184 290 -184q128 0 201.5 65.5t73.5 190.5v166h-4q-116 -146 -316 -146q-232 0 -381 158q-147 156 -147 391q0 220 143 385q143 168 373 168q207 0 332 -149h4v133h313v-1098q0 -255 -166 -399q-163 -144 -424 -144
q-406 0 -553 314zM938 557q0 118 -75 193t-191 75q-114 0 -190 -75.5t-76 -192.5q0 -121 75 -195.5t191 -74.5q114 0 190 75t76 195z" />
    <glyph glyph-name="Aringacute" unicode="&#x1fa;" horiz-adv-x="1622" 
d="M1047 1507l577 -1507h-342l-121 324h-710l-119 -324h-334l573 1505q-79 85 -79 203q0 125 94 213t223 88q49 0 92 -12l125 219h369l-308 -365q39 -65 39 -143q0 -116 -79 -201zM809 1831q-59 0 -96 -35.5t-37 -87.5t38.5 -89.5t94.5 -37.5q55 0 93 37.5t38 89.5
q0 47 -40 85t-91 38zM565 631h484l-242 651z" />
    <glyph glyph-name="aringacute" unicode="&#x1fb;" horiz-adv-x="1222" 
d="M874 1059q207 -109 207 -381v-678h-295v135l-4 2q-112 -157 -327 -157q-155 0 -262 88t-107 237v4q0 95 43.5 165t118.5 106q138 65 325 65h109q86 0 86 80q0 59 -46.5 97t-129.5 38q-162 0 -244 -147l-244 145q75 142 232 211q-45 68 -45 156q0 125 94 213t223 88
q46 0 105 -17l114 203h369l-301 -356q31 -60 31 -131q0 -93 -52 -166zM608 1350q-57 0 -95 -35.5t-38 -89.5q0 -52 38.5 -88.5t94.5 -36.5q55 0 93 37t38 88q0 50 -38.5 87.5t-92.5 37.5zM766 424v25h-193q-72 0 -118.5 -33t-46.5 -92q0 -54 38 -82.5t101 -28.5
q101 0 160 59t59 152z" />
    <glyph glyph-name="AEacute" unicode="&#x1fc;" horiz-adv-x="2158" 
d="M1294 1745h-262l219 385h369zM2036 1604v-312h-711v-325h637v-312h-637v-346h717v-309h-1045v322h-508l-157 -322h-359l813 1604h1250zM997 1294h-18l-336 -665h354v665z" />
    <glyph glyph-name="aeacute" unicode="&#x1fd;" horiz-adv-x="1957" 
d="M1090 1276h-263l220 383h366zM471 -20h-18q-153 0 -260 88t-107 237v12q0 76 29.5 134.5t77 94.5t113 59t130 31.5t135.5 8.5h111q86 0 86 80q0 59 -46.5 97t-129.5 38q-166 0 -242 -147l-244 145q137 260 500 260q237 0 359 -131q160 133 364 133q240 0 391 -151
q154 -151 154 -391q0 -78 -6 -119h-793q13 -98 89 -156.5t182 -58.5q73 0 140 35.5t103 95.5l232 -152q-140 -248 -473 -248q-279 0 -449 191q-171 -186 -428 -186zM1081 670h471q-5 78 -66.5 134t-164.5 56q-101 0 -164 -63q-67 -64 -76 -127zM766 424v25h-195
q-72 0 -117.5 -32.5t-45.5 -92.5q0 -54 37 -82.5t100 -28.5q103 0 162 60t59 151z" />
    <glyph glyph-name="Oslashacute" unicode="&#x1fe;" horiz-adv-x="1847" 
d="M1044 1751h-262l219 383h367zM1589 1669l166 -153l-180 -191q180 -223 180 -516q0 -348 -244 -592q-242 -242 -591 -242q-268 0 -482 152l-180 -186l-166 153l180 189q-182 226 -182 518q0 342 246 585q245 242 592 242q270 0 481 -147zM426 803q0 -147 80 -277l678 711
q-119 72 -258 72q-208 0 -355 -150q-145 -148 -145 -356zM926 297q206 0 350 147q145 151 145 359q0 151 -80 278l-677 -710q115 -74 262 -74z" />
    <glyph glyph-name="oslashacute" unicode="&#x1ff;" horiz-adv-x="1357" 
d="M801 1276h-262l219 383h366zM1157 1143l117 -115l-123 -123q125 -149 125 -354q0 -247 -174 -412q-176 -164 -424 -164q-197 0 -352 107l-129 -129l-117 115l125 125q-123 150 -123 352q0 242 174 407q175 166 426 166q196 0 346 -102zM408 549q0 -78 26 -129l379 377
q-57 32 -133 32q-116 0 -195 -79q-77 -77 -77 -201zM680 266q114 0 192 78q78 81 78 205q0 69 -26 131l-383 -379q65 -35 139 -35z" />
    <glyph glyph-name="Scommaaccent" unicode="&#x218;" horiz-adv-x="1335" 
d="M692 969q296 -84 428.5 -197.5t132.5 -300.5q0 -221 -155 -358q-156 -138 -432 -138q-223 0 -388.5 101t-238.5 276l287 148q48 -106 139 -165t211 -59q106 0 175 48t69 122q0 71 -64 111q-62 43 -240 96q-278 82 -391 195q-123 120 -123 297q0 211 164 346
q162 137 396 137q201 0 347.5 -90t215.5 -256l-275 -149q-82 196 -303 196q-97 0 -155 -45.5t-58 -118.5q0 -70 59 -113.5t199 -82.5zM858 -336v-10q0 -107 -64 -210.5t-171 -176.5l-99 94q119 79 178 203q-29 -13 -59 -13q-63 0 -105 44.5t-42 111.5q0 73 50 123.5
t122 50.5q83 0 136.5 -60t53.5 -157z" />
    <glyph glyph-name="scommaaccent" unicode="&#x219;" horiz-adv-x="1048" 
d="M971 330q0 -160 -117.5 -257.5t-318.5 -97.5q-346 0 -478 252l236 140q69 -134 246 -134q59 0 96 23.5t37 56.5q0 35 -37.5 60t-136.5 47q-389 85 -389 354q0 154 122 248q125 98 297 98q148 0 257 -59t165 -162l-231 -137q-61 104 -199 104q-49 0 -81.5 -23.5
t-32.5 -56.5q0 -70 143 -100q211 -44 316.5 -130t105.5 -226zM698 -336v-10q0 -107 -64 -210.5t-171 -176.5l-98 94q119 79 178 203q-29 -13 -60 -13q-63 0 -105 44.5t-42 111.5q0 73 50 123.5t122 50.5q83 0 136.5 -60t53.5 -157z" />
    <glyph glyph-name="uni021A" unicode="&#x21a;" horiz-adv-x="1378" 
d="M43 1282v322h1292v-322h-481v-1282h-330v1282h-481zM864 -336v-10q0 -107 -64 -210.5t-171 -176.5l-99 94q120 80 179 203q-29 -13 -60 -13q-63 0 -105 44.5t-42 111.5q0 73 50 123.5t122 50.5q83 0 136.5 -60t53.5 -157z" />
    <glyph glyph-name="uni021B" unicode="&#x21b;" horiz-adv-x="921" 
d="M823 270v-264q-67 -20 -149 -20q-211 0 -322.5 108t-111.5 303v420h-197v277h201v342h315v-342h270v-277h-270v-381q0 -92 47.5 -133t143.5 -41q42 0 73 8zM666 -336v-10q0 -107 -64 -210.5t-172 -176.5l-98 94q119 79 178 203q-29 -13 -59 -13q-63 0 -105.5 44.5
t-42.5 111.5q0 73 50 123.5t122 50.5q83 0 137 -60t54 -157z" />
    <glyph glyph-name="uni0237" unicode="&#x237;" horiz-adv-x="632" 
d="M164 1094h319v-1176q0 -234 -115.5 -346.5t-353.5 -112.5q-66 0 -112 15v268q27 -6 55 -6q107 0 157 46t50 152v1160z" />
    <glyph glyph-name="circumflex" unicode="&#x2c6;" horiz-adv-x="876" 
d="M41 1278l248 356h299l248 -356h-271l-127 186l-125 -186h-272z" />
    <glyph glyph-name="breve" unicode="&#x2d8;" horiz-adv-x="860" 
d="M41 1634h238q24 -147 151 -147q61 0 101 39.5t51 107.5h237q-15 -160 -125 -264q-106 -100 -264 -100q-160 0 -266 100q-108 102 -123 264z" />
    <glyph glyph-name="dotaccent" unicode="&#x2d9;" horiz-adv-x="475" 
d="M41 1460q0 80 57.5 137.5t137.5 57.5q82 0 140 -57.5t58 -137.5q0 -82 -58 -139t-140 -57q-80 0 -137.5 57.5t-57.5 138.5z" />
    <glyph glyph-name="tilde" unicode="&#x2dc;" horiz-adv-x="886" 
d="M299 1616q51 0 101 -19.5t81 -43t61 -43t46 -19.5q69 0 69 119h199q8 -156 -63 -245t-205 -89q-49 0 -98.5 19.5t-81.5 43t-63 43t-46 19.5q-67 0 -70 -119h-196q-11 155 60 244.5t206 89.5z" />
    <glyph glyph-name="hungarumlaut" unicode="&#x2dd;" horiz-adv-x="1110" 
d="M293 1276h-252l219 383h356zM745 1276h-251l219 383h356z" />
    <glyph glyph-name="gravecomb" unicode="&#x300;" horiz-adv-x="0" 
d="M-379 1659h367l219 -383h-262z" />
    <glyph glyph-name="acutecomb" unicode="&#x301;" horiz-adv-x="0" 
d="M-31 1276h-262l219 383h367z" />
    <glyph glyph-name="uni0302" unicode="&#x302;" horiz-adv-x="0" 
d="M-397 1278l247 356h300l247 -356h-270l-127 186l-125 -186h-272z" />
    <glyph glyph-name="tildecomb" unicode="&#x303;" horiz-adv-x="0" 
d="M-145 1616q51 0 100.5 -19.5t80.5 -43t61 -43t46 -19.5q70 0 70 119h199q8 -156 -63.5 -245t-205.5 -89q-49 0 -98.5 19.5t-81.5 43t-62.5 43t-45.5 19.5q-67 0 -70 -119h-197q-11 155 60.5 244.5t206.5 89.5z" />
    <glyph glyph-name="uni0304" unicode="&#x304;" horiz-adv-x="0" 
d="M-373 1286v240h746v-240h-746z" />
    <glyph glyph-name="uni0306" unicode="&#x306;" horiz-adv-x="0" 
d="M-389 1634h237q24 -147 152 -147q61 0 101 39.5t51 107.5h237q-15 -160 -125 -264q-106 -100 -264 -100t-264 100q-110 104 -125 264z" />
    <glyph glyph-name="uni0307" unicode="&#x307;" horiz-adv-x="0" 
d="M-197 1460q0 80 57.5 137.5t137.5 57.5q82 0 140.5 -57.5t58.5 -137.5q0 -81 -58.5 -138.5t-140.5 -57.5q-80 0 -137.5 57.5t-57.5 138.5z" />
    <glyph glyph-name="uni0308" unicode="&#x308;" horiz-adv-x="0" 
d="M-422 1442q0 73 51.5 125.5t124.5 52.5q74 0 126 -52t52 -126q0 -75 -52 -126.5t-126 -51.5q-73 0 -124.5 52t-51.5 126zM68 1442q0 73 51 125.5t125 52.5q73 0 125.5 -53t52.5 -125q0 -75 -52 -126.5t-126 -51.5t-125 51.5t-51 126.5z" />
    <glyph glyph-name="uni030A" unicode="&#x30a;" horiz-adv-x="0" 
d="M317 1536q0 -127 -94 -215q-91 -88 -223 -88q-129 0 -223 88t-94 215q0 125 94 213t223 88q132 0 223 -88q94 -88 94 -213zM131 1536q0 50 -38.5 87.5t-92.5 37.5q-57 0 -95 -35.5t-38 -89.5q0 -52 38.5 -88.5t94.5 -36.5q55 0 93 37t38 88z" />
    <glyph glyph-name="uni030B" unicode="&#x30b;" horiz-adv-x="0" 
d="M-262 1276h-252l219 383h356zM190 1276h-251l219 383h356z" />
    <glyph glyph-name="uni030C" unicode="&#x30c;" horiz-adv-x="0" 
d="M0 1448l127 186h270l-247 -356h-300l-247 356h272z" />
    <glyph glyph-name="uni0312" unicode="&#x312;" horiz-adv-x="0" 
d="M-180 1479v8q0 109 63 211.5t170 175.5l101 -94q-123 -76 -179 -201q33 10 60 10q62 0 104.5 -44t42.5 -111q0 -72 -51 -122t-123 -50q-83 0 -135.5 60t-52.5 157z" />
    <glyph glyph-name="uni0326" unicode="&#x326;" horiz-adv-x="0" 
d="M182 -336v-10q0 -107 -64 -210.5t-171 -176.5l-99 94q120 80 179 203q-29 -13 -60 -13q-63 0 -105 44.5t-42 111.5q0 73 50 123.5t122 50.5q83 0 136.5 -60t53.5 -157z" />
    <glyph glyph-name="uni0327" unicode="&#x327;" horiz-adv-x="0" 
d="M170 -207q0 -328 -387 -328q-88 0 -150 19v215q65 -10 109 -10q86 0 130 50.5t44 143.5q0 59 -25 117h234q45 -86 45 -207z" />
    <glyph glyph-name="uni0328" unicode="&#x328;" horiz-adv-x="0" 
d="M-12 0h254q-87 -55 -144 -115.5t-57 -113.5t45 -83t102 -30q27 0 45 2v-184q-62 -21 -155 -21q-130 0 -225 62q-95 59 -95 172q0 156 230 311z" />
    <glyph glyph-name="Theta" unicode="&#x398;" horiz-adv-x="1841" 
d="M88 801q0 342 246 585q245 242 592 242q345 0 585 -237q242 -236 242 -582q0 -349 -246 -592q-242 -242 -589 -242q-345 0 -588 240q-242 239 -242 586zM922 1307q-208 0 -353 -148q-143 -146 -143 -356t143 -359q144 -147 353 -147q206 0 350 147q145 151 145 359
t-145 356t-350 148zM553 655v312h739v-312h-739z" />
    <glyph glyph-name="uni03A9" unicode="&#x3a9;" horiz-adv-x="1808" 
d="M463 885q0 -138 84 -260q81 -118 272 -162v-463h-696v289h391v28q-120 53 -205.5 130t-124.5 163q-71 157 -71 285q0 322 229 526q233 207 563 207q336 0 563 -205q228 -205 228 -528q0 -123 -72 -283q-39 -86 -125 -164t-205 -131v-28h394v-289h-699v463q191 44 273 164
q86 121 86 258q0 174 -127 301q-125 125 -318 125q-190 0 -315 -125t-125 -301z" />
    <glyph glyph-name="theta" unicode="&#x3b8;" horiz-adv-x="1503" 
d="M88 825q0 319 162 574q81 127 213 200.5t293 73.5q156 0 284.5 -71.5t210.5 -196.5q164 -251 164 -571q0 -156 -42.5 -306t-121.5 -274q-82 -128 -213.5 -203.5t-287.5 -75.5q-158 0 -290 75.5t-212 203.5q-160 255 -160 571zM422 969h659q-18 167 -104 291
q-85 122 -225 122q-141 0 -226 -122q-83 -121 -104 -291zM1083 698h-663q15 -169 102 -301q88 -129 230 -129t227 129q89 130 104 301z" />
    <glyph glyph-name="pi" unicode="&#x3c0;" horiz-adv-x="1527" 
d="M1423 817h-227v-377q0 -178 180 -178q37 0 47 2v-266q-49 -12 -98 -12q-444 0 -444 448v383h-293v-817h-318v817h-221v277h1374v-277z" />
    <glyph glyph-name="uni0401" unicode="&#x401;" horiz-adv-x="1357" 
d="M455 2089q73 0 125.5 -52.5t52.5 -125.5t-52.5 -125.5t-125.5 -52.5t-124.5 52t-51.5 126t51 126t125 52zM963 2089q73 0 125.5 -52.5t52.5 -125.5t-52.5 -125.5t-125.5 -52.5t-125 52t-52 126t51 126t126 52zM1237 1292h-723v-325h647v-312h-647v-346h727v-309h-1055
v1604h1051v-312z" />
    <glyph glyph-name="uni0402" unicode="&#x402;" horiz-adv-x="1728" 
d="M1143 -25q-83 0 -178 21v309q46 -6 94 -6q282 0 282 209q0 201 -294 201q-84 0 -170.5 -27.5t-135.5 -75.5v-606h-327v1296h-371v308h1294v-308h-596v-381q183 115 408 115q239 0 383 -141q145 -139 145 -377q0 -253 -141 -395t-393 -142z" />
    <glyph glyph-name="uni0403" unicode="&#x403;" horiz-adv-x="1234" 
d="M750 1745h-263l220 385h366zM1194 1604v-314h-674v-1290h-334v1604h1008z" />
    <glyph glyph-name="uni0404" unicode="&#x404;" horiz-adv-x="1701" 
d="M1352 590l299 -137q-80 -219 -287 -349q-207 -127 -449 -127q-350 0 -589 236q-238 238 -238 588q0 346 242 585q242 242 590 242q243 0 444 -127q203 -128 281 -342l-297 -137q-51 134 -166 210.5t-264 76.5q-166 0 -297 -101q-131 -98 -175 -250h635v-296h-639
q41 -160 170 -265q132 -102 306 -102q147 0 262.5 80t171.5 215z" />
    <glyph glyph-name="uni0405" unicode="&#x405;" horiz-adv-x="1335" 
d="M692 969q296 -84 428.5 -197.5t132.5 -300.5q0 -221 -155 -358q-156 -138 -432 -138q-223 0 -388.5 101t-238.5 276l287 148q48 -106 139 -165t211 -59q106 0 175 48t69 122q0 71 -64 111q-62 43 -240 96q-278 82 -391 195q-123 120 -123 297q0 211 164 346
q162 137 396 137q201 0 347.5 -90t215.5 -256l-275 -149q-82 196 -303 196q-97 0 -155 -45.5t-58 -118.5q0 -70 59 -113.5t199 -82.5z" />
    <glyph glyph-name="uni0406" unicode="&#x406;" horiz-adv-x="706" 
d="M186 0v1604h332v-1604h-332z" />
    <glyph glyph-name="uni0407" unicode="&#x407;" horiz-adv-x="706" 
d="M115 1733q-73 0 -125.5 52.5t-52.5 125.5q0 74 51.5 126t126.5 52q73 0 125.5 -53t52.5 -125q0 -73 -53 -125.5t-125 -52.5zM594 1733q-74 0 -126 52.5t-52 125.5q0 74 51.5 126t126.5 52q73 0 124.5 -52t51.5 -126q0 -73 -52 -125.5t-124 -52.5zM186 0v1604h332v-1604
h-332z" />
    <glyph glyph-name="uni0408" unicode="&#x408;" horiz-adv-x="1273" 
d="M768 1604h332v-1117q0 -237 -152 -374q-151 -133 -375 -133q-376 0 -514 344l281 155q71 -182 227 -182q94 0 147.5 56.5t53.5 158.5v1092z" />
    <glyph glyph-name="uni0409" unicode="&#x409;" horiz-adv-x="2533" 
d="M1559 1604v-607h362q122 0 219 -29t158.5 -76.5t102.5 -112t58 -131.5t17 -140q0 -195 -125 -344q-65 -76 -181.5 -120t-266.5 -44h-674v1286h-481l-50 -549q-27 -330 -188 -538q-159 -205 -457 -205h-6v303q77 0 140.5 42.5t99.5 113.5q72 141 84 297l75 854h1113z
M1559 696v-383h344q130 0 187.5 54.5t57.5 142.5q0 82 -59.5 134t-190.5 52h-339z" />
    <glyph glyph-name="uni040A" unicode="&#x40a;" horiz-adv-x="2496" 
d="M186 1604h332v-621h672v621h332v-621h374q140 0 250.5 -42.5t171.5 -115.5q121 -142 121 -327q0 -76 -17 -145t-59 -134.5t-105.5 -113t-163 -76.5t-224.5 -29h-680v680h-672v-680h-332v1604zM1522 684v-371h348q133 0 186 49.5t53 141.5q0 180 -241 180h-346z" />
    <glyph glyph-name="uni040B" unicode="&#x40b;" horiz-adv-x="1771" 
d="M1677 0h-327v410q0 299 -281 299q-189 0 -328 -109v-600h-327v1296h-371v308h1294v-308h-596v-381q183 115 408 115q238 0 383 -133t145 -360v-537z" />
    <glyph glyph-name="uni040C" unicode="&#x40c;" horiz-adv-x="1511" 
d="M936 1751h-262l219 383h367zM186 1604h334v-699l549 699h416l-613 -766l652 -838h-428l-576 762v-762h-334v1604z" />
    <glyph glyph-name="uni040E" unicode="&#x40e;" horiz-adv-x="1492" 
d="M377 2130l186 33q59 -189 211 -189q153 0 209 189l184 -33q-27 -176 -129 -276.5t-264 -100.5t-266 101t-131 276zM6 1604h365l405 -822l383 822h359l-627 -1258q-96 -193 -213.5 -279.5t-278.5 -86.5q-212 0 -362 112l182 270q83 -65 170 -65q127 0 203 149z" />
    <glyph glyph-name="uni040F" unicode="&#x40f;" horiz-adv-x="1695" 
d="M686 -336v336h-500v1604h330v-1287h662v1287h329v-1604h-499v-336h-322z" />
    <glyph glyph-name="uni0410" unicode="&#x410;" horiz-adv-x="1622" 
d="M332 0h-334l612 1604h400l614 -1604h-342l-121 324h-710zM807 1282l-242 -651h484z" />
    <glyph glyph-name="uni0411" unicode="&#x411;" horiz-adv-x="1533" 
d="M516 1290v-323h399q276 0 410 -140q131 -137 131 -338q0 -76 -17 -144t-59 -132.5t-105.5 -110.5t-164 -74t-227.5 -28h-697v1604h1170v-314h-840zM516 672v-359h371q239 0 239 187q0 172 -243 172h-367z" />
    <glyph glyph-name="uni0412" unicode="&#x412;" horiz-adv-x="1523" 
d="M1434 442q0 -95 -33 -171t-87.5 -126t-129 -83t-154.5 -47.5t-168 -14.5h-676v1604h666q210 0 360 -111q152 -112 152 -313q0 -225 -225 -342v-4q152 -57 223.5 -149t71.5 -243zM1038 1128q0 88 -63 129t-168 41h-297v-346h274q254 0 254 176zM1110 485q0 181 -262 181
h-338v-359h348q252 0 252 178z" />
    <glyph glyph-name="uni0413" unicode="&#x413;" horiz-adv-x="1230" 
d="M1192 1604v-314h-674v-1290h-332v1604h1006z" />
    <glyph glyph-name="uni0414" unicode="&#x414;" horiz-adv-x="1855" 
d="M111 -336v643h8q111 0 200 99q89 96 141 233t66 293l68 672h1001v-1297h168v-643h-321v336h-1010v-336h-321zM1266 1300h-373l-43 -403q-46 -419 -260 -588h676v991z" />
    <glyph glyph-name="uni0415" unicode="&#x415;" horiz-adv-x="1357" 
d="M1237 1292h-723v-325h647v-312h-647v-346h727v-309h-1055v1604h1051v-312z" />
    <glyph glyph-name="uni0416" unicode="&#x416;" horiz-adv-x="2273" 
d="M600 825l-577 779h405l533 -752l10 2v750h332v-752h10l530 752h408l-580 -779l604 -825h-409l-553 778h-10v-778h-332v778h-10l-553 -778h-410z" />
    <glyph glyph-name="uni0417" unicode="&#x417;" horiz-adv-x="1347" 
d="M1245 461q0 -210 -166 -348q-167 -138 -417 -138q-216 0 -377 89t-232 253l291 150q41 -87 127 -135.5t199 -48.5q107 0 173 50.5t66 135.5q0 92 -61.5 140t-177.5 48h-211v308h192q107 0 168.5 49.5t61.5 130.5q0 77 -64 125.5t-172 48.5q-188 0 -270 -178l-297 141
q67 164 221.5 255t357.5 91q250 0 404 -127q153 -126 153 -334q0 -220 -219 -338v-2q132 -55 191 -143t59 -223z" />
    <glyph glyph-name="uni0418" unicode="&#x418;" horiz-adv-x="1765" 
d="M1251 1116l-714 -1116h-351v1604h328v-1067l688 1067h377v-1604h-328v1116z" />
    <glyph glyph-name="uni0419" unicode="&#x419;" horiz-adv-x="1765" 
d="M498 2130l186 33q59 -189 211 -189q153 0 209 189l184 -33q-27 -176 -129 -276.5t-264 -100.5t-266 101t-131 276zM1251 1116l-714 -1116h-351v1604h328v-1067l688 1067h377v-1604h-328v1116z" />
    <glyph glyph-name="uni041A" unicode="&#x41a;" horiz-adv-x="1507" 
d="M186 1604h330v-699l551 699h414l-613 -766l654 -838h-428l-578 762v-762h-330v1604z" />
    <glyph glyph-name="uni041B" unicode="&#x41b;" horiz-adv-x="1705" 
d="M1190 1290h-449l-57 -553q-76 -743 -629 -743h-6v303q102 0 174 78q67 74 95 161t42 218l89 850h1071v-1604h-330v1290z" />
    <glyph glyph-name="uni041C" unicode="&#x41c;" horiz-adv-x="2142" 
d="M1626 1059l-446 -1059h-222l-444 1051h-2v-1051h-326v1604h428l455 -1076l447 1076h440v-1604h-328v1059h-2z" />
    <glyph glyph-name="uni041D" unicode="&#x41d;" horiz-adv-x="1708" 
d="M186 0v1604h332v-633h672v633h332v-1604h-332v649h-672v-649h-332z" />
    <glyph glyph-name="uni041E" unicode="&#x41e;" horiz-adv-x="1841" 
d="M88 801q0 342 246 585q245 242 592 242q345 0 585 -237q242 -236 242 -582q0 -349 -246 -592q-242 -242 -589 -242q-345 0 -588 240q-242 239 -242 586zM571 1159q-143 -146 -143 -356t143 -359q144 -147 351 -147q206 0 350 147q143 149 143 359t-143 356
q-145 148 -350 148q-206 0 -351 -148z" />
    <glyph glyph-name="uni041F" unicode="&#x41f;" horiz-adv-x="1695" 
d="M186 0v1604h1321v-1604h-329v1290h-660v-1290h-332z" />
    <glyph glyph-name="uni0420" unicode="&#x420;" horiz-adv-x="1415" 
d="M1356 1090q0 -258 -162 -392q-160 -133 -424 -133h-252v-565h-332v1604h596q252 0 412 -136q162 -131 162 -378zM1022 1081q0 104 -73 156.5t-195 52.5h-236v-416h238q116 0 191 53.5t75 153.5z" />
    <glyph glyph-name="uni0421" unicode="&#x421;" horiz-adv-x="1703" 
d="M88 801q0 346 242 585q242 242 590 242q243 0 444 -127q203 -126 283 -346l-304 -139q-51 134 -164 211.5t-261 77.5q-207 0 -347 -146q-139 -145 -139 -354q0 -215 137 -361q139 -145 349 -145q146 0 260.5 81t169.5 216l305 -141q-80 -222 -289 -351
q-207 -127 -451 -127q-351 0 -587 236q-238 238 -238 588z" />
    <glyph glyph-name="uni0422" unicode="&#x422;" horiz-adv-x="1374" 
d="M41 1282v322h1292v-322h-479v-1282h-332v1282h-481z" />
    <glyph glyph-name="uni0423" unicode="&#x423;" horiz-adv-x="1492" 
d="M6 1604h365l405 -822l383 822h359l-627 -1258q-96 -193 -213.5 -279.5t-278.5 -86.5q-212 0 -362 112l182 270q83 -65 170 -65q127 0 203 149z" />
    <glyph glyph-name="uni0424" unicode="&#x424;" horiz-adv-x="2070" 
d="M1200 -49h-330v168q-204 0 -364.5 63t-253.5 172q-174 210 -174 467q0 311 219 500q220 190 573 190v144h330v-144q354 0 572 -188q221 -188 221 -502q0 -98 -25.5 -193.5t-85.5 -188.5t-148.5 -163t-226 -113.5t-307.5 -43.5v-168zM870 426v780q-207 0 -331 -106
q-125 -104 -125 -283q0 -180 125 -287q125 -104 331 -104zM1200 1206v-780q210 0 334.5 105.5t124.5 285.5q0 178 -124.5 283.5t-334.5 105.5z" />
    <glyph glyph-name="uni0425" unicode="&#x425;" horiz-adv-x="1546" 
d="M575 825l-544 779h389l354 -521l359 521h387l-549 -777l577 -827h-387l-391 578l-397 -578h-375z" />
    <glyph glyph-name="uni0426" unicode="&#x426;" horiz-adv-x="1771" 
d="M1507 1604v-1289h168v-651h-321v336h-1168v1604h330v-1289h662v1289h329z" />
    <glyph glyph-name="uni0427" unicode="&#x427;" horiz-adv-x="1572" 
d="M1384 0h-329v623q-234 -117 -418 -117q-250 0 -389 135.5t-139 390.5v572h329v-474q0 -299 271 -299q215 0 346 101v672h329v-1604z" />
    <glyph glyph-name="uni0428" unicode="&#x428;" horiz-adv-x="2488" 
d="M1079 313v1291h330v-1291h559v1291h334v-1604h-2116v1604h332v-1291h561z" />
    <glyph glyph-name="uni0429" unicode="&#x429;" horiz-adv-x="2564" 
d="M1079 313v1291h330v-1291h559v1291h334v-1289h168v-651h-324v336h-1960v1604h332v-1291h561z" />
    <glyph glyph-name="uni042A" unicode="&#x42a;" horiz-adv-x="1732" 
d="M758 1604v-607h364q120 0 216.5 -29t158.5 -76.5t103 -112t58 -131.5t17 -140q0 -195 -125 -344q-65 -76 -181.5 -120t-266.5 -44h-676v1288h-381v316h713zM758 696v-383h344q130 0 188 54.5t58 142.5q0 82 -58.5 134t-189.5 52h-342z" />
    <glyph glyph-name="uni042B" unicode="&#x42b;" horiz-adv-x="2211" 
d="M518 1604v-607h365q120 0 216.5 -29t158.5 -76.5t103 -112t58 -131.5t17 -140q0 -195 -125 -344q-65 -76 -182 -120t-267 -44h-676v1604h332zM2023 1604v-1604h-331v1604h331zM518 696v-383h344q139 0 193 60q53 59 53 137q0 82 -59.5 134t-190.5 52h-340z" />
    <glyph glyph-name="uni042C" unicode="&#x42c;" horiz-adv-x="1492" 
d="M518 1604v-607h365q120 0 216.5 -29t158.5 -76.5t103 -112t58 -131.5t17 -140q0 -195 -125 -344q-65 -76 -182 -120t-267 -44h-676v1604h332zM518 696v-383h344q139 0 193 60q53 59 53 137q0 82 -59.5 134t-190.5 52h-340z" />
    <glyph glyph-name="uni042D" unicode="&#x42d;" horiz-adv-x="1705" 
d="M795 1628q358 0 587 -235q234 -237 234 -586q0 -352 -234 -592q-232 -238 -591 -238q-246 0 -453 127q-203 124 -287 349l301 137q55 -135 172.5 -215t268.5 -80q175 0 301 102q128 104 168 265h-639v296h632q-44 151 -170 250q-125 101 -292 101q-152 0 -269 -77
t-168 -210l-297 137q77 216 283 342q207 127 453 127z" />
    <glyph glyph-name="uni042E" unicode="&#x42e;" horiz-adv-x="2435" 
d="M1538 1628q348 0 578 -239q231 -237 231 -586q0 -351 -233 -590q-235 -238 -580 -238q-302 0 -528 191q-222 192 -271 487h-217v-653h-332v1604h332v-652h217q53 296 275 484q223 192 528 192zM2009 803q0 210 -137 356q-136 148 -338 148q-204 0 -336 -144
q-133 -145 -133 -360q0 -212 135 -359t338 -147q204 0 336 147q135 147 135 359z" />
    <glyph glyph-name="uni042F" unicode="&#x42f;" horiz-adv-x="1497" 
d="M432 0h-360l340 637q-301 120 -301 463q0 238 159 370q166 134 408 134h633v-1604h-332v575h-246zM979 885v405h-274q-116 0 -187.5 -51t-71.5 -156q0 -95 73 -146.5t183 -51.5h277z" />
    <glyph glyph-name="uni0430" unicode="&#x430;" horiz-adv-x="1218" 
d="M455 -20q-155 0 -262 88t-107 237v4q0 95 43.5 165t118.5 106q138 65 325 65h109q86 0 86 80q0 59 -46.5 97t-129.5 38q-162 0 -244 -147l-244 145q140 260 502 260q221 0 348 -114t127 -326v-678h-295v135l-4 2q-112 -157 -327 -157zM547 213q101 0 160 59t59 152v25
h-193q-72 0 -118.5 -33t-46.5 -92q0 -54 38 -82.5t101 -28.5z" />
    <glyph glyph-name="uni0431" unicode="&#x431;" horiz-adv-x="1380" 
d="M711 -23q-268 0 -435 179q-165 177 -165 503q0 76 4 170q17 211 71 332q33 77 91.5 152.5t132.5 128.5q180 128 460 178l320 57l55 -272l-375 -72q-133 -25 -236.5 -81t-156.5 -124q-92 -119 -102 -217l8 -2q73 86 168 133q61 31 111.5 46t72.5 16.5t66 1.5
q206 0 352 -152q143 -149 143 -387q0 -265 -166 -428q-162 -162 -419 -162zM440 549q0 -128 76.5 -205.5t194.5 -77.5q117 0 192.5 77t75.5 204q0 132 -82 205t-188 73q-108 0 -189 -75q-80 -74 -80 -201z" />
    <glyph glyph-name="uni0432" unicode="&#x432;" horiz-adv-x="1298" 
d="M147 0v1094h664q133 0 250 -66q113 -64 113 -205q0 -174 -175 -250v-2q211 -61 211 -272q0 -107 -63 -176q-112 -123 -342 -123h-658zM461 860v-196h274q62 0 92.5 29.5t30.5 74.5q0 40 -30.5 66t-88.5 26h-278zM461 455v-205h301q85 -3 119 50.5t-3.5 106.5t-123.5 48
h-293z" />
    <glyph glyph-name="uni0433" unicode="&#x433;" horiz-adv-x="1005" 
d="M967 1094v-277h-498v-817h-322v1094h820z" />
    <glyph glyph-name="uni0434" unicode="&#x434;" horiz-adv-x="1460" 
d="M57 -336v615h2q92 0 158.5 106.5t83.5 278.5l43 430h889v-818h137v-612h-297v336h-719v-336h-297zM913 817h-280l-15 -162q-27 -266 -176 -376l2 -3h469v541z" />
    <glyph glyph-name="uni0435" unicode="&#x435;" horiz-adv-x="1284" 
d="M1200 459h-794q13 -98 89 -156.5t181 -58.5q73 0 140.5 36t103.5 95l231 -152q-137 -248 -471 -248q-251 0 -428 160q-172 163 -172 414q0 233 170 403q171 168 409 168q243 0 394 -151t151 -396q0 -64 -4 -114zM414 670h471q-6 78 -68.5 134t-165.5 56q-101 0 -164 -63
q-64 -61 -73 -127z" />
    <glyph glyph-name="uni0436" unicode="&#x436;" horiz-adv-x="1880" 
d="M1473 1094h378l-391 -535l398 -559h-385l-367 530h-6v-530h-318v530h-8l-364 -530h-387l399 559l-391 535h379l364 -504h8v504h318v-504h8z" />
    <glyph glyph-name="uni0437" unicode="&#x437;" horiz-adv-x="1089" 
d="M664 756q0 39 -36 66.5t-96 27.5q-144 0 -227 -139l-242 135q143 272 484 272q196 0 313 -88t117 -237q0 -163 -152 -228v-2q170 -68 170 -241q0 -164 -121.5 -255.5t-326.5 -91.5q-365 0 -498 265l250 141q77 -135 246 -135q60 0 98.5 29t38.5 71q0 100 -137 100h-135
v211h131q123 0 123 99z" />
    <glyph glyph-name="uni0438" unicode="&#x438;" horiz-adv-x="1333" 
d="M147 0v1094h316v-637h2l401 637h320v-1094h-316v631h-2l-399 -631h-322z" />
    <glyph glyph-name="uni0439" unicode="&#x439;" horiz-adv-x="1333" 
d="M270 1640l189 33q58 -186 209 -186t209 186l186 -31q-30 -176 -132 -276t-263 -100q-162 0 -266.5 100t-131.5 274zM147 0v1094h316v-637h2l401 637h320v-1094h-316v631h-2l-399 -631h-322z" />
    <glyph glyph-name="uni043A" unicode="&#x43a;" horiz-adv-x="1275" 
d="M147 0v1094h320v-469h4l403 469h390l-469 -533l489 -561h-407l-404 477h-6v-477h-320z" />
    <glyph glyph-name="uni043B" unicode="&#x43b;" horiz-adv-x="1366" 
d="M899 817h-317l-29 -305q-49 -522 -483 -522l-15 2v270q149 0 176 264l62 568h926v-1094h-320v817z" />
    <glyph glyph-name="uni043C" unicode="&#x43c;" horiz-adv-x="1699" 
d="M737 0l-274 733h-2v-733h-314v1094h435l268 -715l264 715h436v-1094h-313v748h-4l-270 -748h-226z" />
    <glyph glyph-name="uni043D" unicode="&#x43d;" horiz-adv-x="1318" 
d="M147 0v1094h320v-412h385v412h319v-1094h-319v416h-385v-416h-320z" />
    <glyph glyph-name="uni043E" unicode="&#x43e;" horiz-adv-x="1353" 
d="M80 545q0 245 174 407q175 166 426 166q249 0 422 -164q172 -163 172 -403q0 -247 -174 -412q-176 -164 -424 -164q-253 0 -424 162q-172 163 -172 408zM408 549q0 -123 77 -203q78 -78 193 -78q116 0 192 79t76 202q0 121 -78 199q-76 79 -192 79q-115 0 -191 -79
q-77 -77 -77 -199z" />
    <glyph glyph-name="uni043F" unicode="&#x43f;" horiz-adv-x="1312" 
d="M147 0v1094h1018v-1094h-319v817h-377v-817h-322z" />
    <glyph glyph-name="uni0440" unicode="&#x440;" horiz-adv-x="1404" 
d="M465 1094v-136h4q114 156 334 156q231 0 375 -172q145 -174 145 -393q0 -223 -149 -397q-150 -172 -379 -172q-207 0 -324 141h-4v-662h-320v1635h318zM459 549q0 -122 78 -203q78 -78 192 -78q115 0 193 78q77 80 77 203t-79 199q-77 77 -193 77q-113 0 -190 -77
q-78 -78 -78 -199z" />
    <glyph glyph-name="uni0441" unicode="&#x441;" horiz-adv-x="1259" 
d="M670 -25q-257 0 -422 162q-166 163 -166 408q0 241 172 407t418 166q185 0 324 -89.5t192 -248.5l-281 -116q-69 161 -235 161q-113 0 -187.5 -75.5t-74.5 -200.5q0 -123 72.5 -201t189.5 -78q171 0 241 162l283 -117q-62 -165 -201 -252.5t-325 -87.5z" />
    <glyph glyph-name="uni0442" unicode="&#x442;" horiz-adv-x="1064" 
d="M43 817v277h981v-277h-332v-817h-321v817h-328z" />
    <glyph glyph-name="uni0443" unicode="&#x443;" horiz-adv-x="1251" 
d="M487 117l-460 977h352l272 -625l244 625h330l-664 -1633h-342z" />
    <glyph glyph-name="uni0444" unicode="&#x444;" horiz-adv-x="1896" 
d="M1108 -500h-322v576q-33 -37 -102 -63.5t-137 -26.5q-220 0 -340 166q-121 171 -121 395t121 395q119 168 346 168q67 0 132.5 -28.5t102.5 -71.5l-2 594h322v-594q37 43 103.5 71.5t134.5 28.5q151 0 260 -86q204 -159 204 -479q0 -227 -120 -393t-340 -166
q-68 0 -138.5 27t-103.5 63v-576zM637 825q-106 0 -166 -84q-55 -82 -55 -194q0 -107 53 -193t168 -86q78 0 151 49v459q-82 49 -151 49zM1262 825q-72 0 -154 -49v-459q73 -49 152 -49q114 0 167 86q54 91 54 197q0 108 -58 190q-57 84 -161 84z" />
    <glyph glyph-name="uni0445" unicode="&#x445;" horiz-adv-x="1177" 
d="M416 551l-381 543h358l197 -310l203 310h352l-385 -537l395 -557h-358l-209 322l-211 -322h-354z" />
    <glyph glyph-name="uni0446" unicode="&#x446;" horiz-adv-x="1394" 
d="M1008 0h-861v1094h322v-818h377v818h319v-818h140v-612h-297v336z" />
    <glyph glyph-name="uni0447" unicode="&#x447;" horiz-adv-x="1247" 
d="M1100 0h-320v375q-151 -74 -303 -74q-165 0 -280 92q-111 95 -111 275v426h322v-336q0 -183 155 -183q111 0 217 56v463h320v-1094z" />
    <glyph glyph-name="uni0448" unicode="&#x448;" horiz-adv-x="1970" 
d="M825 276v818h320v-818h358v818h320v-1094h-1676v1094h322v-818h356z" />
    <glyph glyph-name="uni0449" unicode="&#x449;" horiz-adv-x="2052" 
d="M1665 0h-1518v1094h322v-818h356v818h320v-818h358v818h320v-820h139v-612h-297v338z" />
    <glyph glyph-name="uni044A" unicode="&#x44a;" horiz-adv-x="1466" 
d="M705 1094v-328h245q217 0 340 -98t123 -281q0 -182 -118 -284.5t-326 -102.5h-586v817h-340v277h662zM705 526v-274h219q168 0 168 141q0 63 -42.5 98t-125.5 35h-219z" />
    <glyph glyph-name="uni044B" unicode="&#x44b;" horiz-adv-x="1847" 
d="M467 1094v-328h248q217 0 340 -98.5t123 -280.5t-118.5 -284.5t-326.5 -102.5h-586v1094h320zM1700 0h-320v1094h320v-1094zM467 526v-274h219q168 0 168 141q0 63 -42.5 98t-125.5 35h-219z" />
    <glyph glyph-name="uni044C" unicode="&#x44c;" horiz-adv-x="1230" 
d="M467 1094v-328h248q217 0 340 -98.5t123 -280.5t-118.5 -284.5t-326.5 -102.5h-586v1094h320zM467 526v-274h219q168 0 168 141q0 63 -42.5 98t-125.5 35h-219z" />
    <glyph glyph-name="uni044D" unicode="&#x44d;" horiz-adv-x="1255" 
d="M594 1118q248 0 414 -166q166 -163 166 -407q0 -241 -168 -406q-167 -164 -416 -164q-188 0 -328.5 87t-200.5 251l275 113q73 -162 256 -162q91 0 157.5 48.5t90.5 129.5h-361v220h355q-26 79 -91.5 124t-150.5 45q-180 0 -250 -159l-274 112q53 160 198 246
q143 88 328 88z" />
    <glyph glyph-name="uni044E" unicode="&#x44e;" horiz-adv-x="1845" 
d="M1190 1118q250 0 412 -162q163 -163 163 -405q0 -249 -166 -412q-164 -164 -411 -164q-213 0 -367 121q-151 118 -198 318h-154v-414h-322v1094h322v-414h154q44 197 198 315q156 123 369 123zM1190 268q110 0 179 78t69 203q0 123 -69 200.5t-181 77.5
q-113 0 -182.5 -75.5t-69.5 -202.5q0 -124 70.5 -202.5t183.5 -78.5z" />
    <glyph glyph-name="uni044F" unicode="&#x44f;" horiz-adv-x="1318" 
d="M416 0h-359l258 410q-209 89 -209 317q0 166 116.5 266.5t328.5 100.5h620v-1094h-317v348h-221zM854 578v266h-256q-24 2 -50.5 -3t-54 -18t-46.5 -41.5t-21 -68.5q0 -59 46.5 -97t129.5 -38h252z" />
    <glyph glyph-name="uni0451" unicode="&#x451;" horiz-adv-x="1284" 
d="M236 1442q0 73 51 125.5t125 52.5t126 -52t52 -126q0 -75 -52 -126.5t-126 -51.5t-125 51.5t-51 126.5zM723 1442q0 73 51.5 125.5t124.5 52.5t125.5 -52t52.5 -126q0 -75 -52 -126.5t-126 -51.5t-125 51.5t-51 126.5zM1200 459h-794q13 -98 89 -156.5t181 -58.5
q73 0 140.5 36t103.5 95l231 -152q-137 -248 -471 -248q-251 0 -428 160q-172 163 -172 414q0 233 170 403q171 168 409 168q243 0 394 -151t151 -396q0 -64 -4 -114zM414 670h471q-6 78 -68.5 134t-165.5 56q-101 0 -164 -63q-64 -61 -73 -127z" />
    <glyph glyph-name="uni0452" unicode="&#x452;" horiz-adv-x="1275" 
d="M776 1114q197 0 295 -125q100 -124 100 -309v-762q0 -234 -115 -346.5t-351 -112.5q-67 0 -113 15v268q27 -6 55 -6q107 0 157 46t50 152v672q0 99 -49 156t-141 57q-94 0 -145.5 -59.5t-51.5 -153.5v-606h-320v1268h-137v217h137v184h318v-184h328v-217h-328v-318h2
q41 69 108 107q99 57 201 57z" />
    <glyph glyph-name="uni0453" unicode="&#x453;" horiz-adv-x="1007" 
d="M666 1276h-263l220 383h366zM967 1094v-277h-498v-817h-322v1094h820z" />
    <glyph glyph-name="uni0454" unicode="&#x454;" horiz-adv-x="1257" 
d="M920 426l274 -113q-62 -165 -200 -251.5t-324 -86.5q-257 0 -422 162q-166 163 -166 408q0 241 172 407t420 166q182 0 319 -88q142 -86 195 -246l-275 -112q-70 159 -241 159q-87 0 -155.5 -45.5t-94.5 -123.5h354v-220h-358q26 -82 94 -130t160 -48q175 0 248 162z" />
    <glyph glyph-name="uni0455" unicode="&#x455;" horiz-adv-x="1048" 
d="M971 330q0 -160 -117.5 -257.5t-318.5 -97.5q-346 0 -478 252l236 140q69 -134 246 -134q59 0 96 23.5t37 56.5q0 35 -37.5 60t-136.5 47q-389 85 -389 354q0 154 122 248q125 98 297 98q148 0 257 -59t165 -162l-231 -137q-61 104 -199 104q-49 0 -81.5 -23.5
t-32.5 -56.5q0 -70 143 -100q211 -44 316.5 -130t105.5 -226z" />
    <glyph glyph-name="uni0456" unicode="&#x456;" horiz-adv-x="616" 
d="M305 1673q85 0 143 -57t58 -141q0 -82 -58.5 -139.5t-142.5 -57.5q-80 0 -138 58t-58 139t58 139.5t138 58.5zM147 1094h322v-1094h-322v1094z" />
    <glyph glyph-name="uni0457" unicode="&#x457;" horiz-adv-x="616" 
d="M-109 1442q0 73 51.5 125.5t125.5 52.5t126 -52t52 -126q0 -75 -52 -126.5t-126 -51.5t-125.5 51.5t-51.5 126.5zM369 1442q0 73 52 125.5t126 52.5q73 0 125.5 -53t52.5 -125q0 -74 -52.5 -126t-125.5 -52q-74 0 -126 51.5t-52 126.5zM469 0h-322v1094h322v-1094z" />
    <glyph glyph-name="uni0458" unicode="&#x458;" horiz-adv-x="632" 
d="M322 1673q84 0 142 -58t58 -140t-58 -139.5t-142 -57.5q-82 0 -139.5 57.5t-57.5 139.5t57.5 140t139.5 58zM164 1094h319v-1176q0 -234 -115.5 -346.5t-353.5 -112.5q-66 0 -112 15v268q27 -6 55 -6q107 0 157 46t50 152v1160z" />
    <glyph glyph-name="uni0459" unicode="&#x459;" horiz-adv-x="1982" 
d="M897 817h-315l-29 -305q-52 -522 -485 -522l-13 2v270q146 0 176 264l62 568h924v-310h239q219 0 345 -101.5t126 -285.5q0 -185 -120 -291t-330 -106h-580v817zM1217 547v-295h213q176 0 176 151q0 65 -45.5 104.5t-130.5 39.5h-213z" />
    <glyph glyph-name="uni045A" unicode="&#x45a;" horiz-adv-x="1933" 
d="M467 0h-320v1094h320v-338h385v338h319v-338h246q218 0 340.5 -96.5t122.5 -278.5q0 -180 -117.5 -280.5t-324.5 -100.5h-586v512h-385v-512zM1171 516v-264h220q168 0 168 135q0 129 -168 129h-220z" />
    <glyph glyph-name="uni045B" unicode="&#x45b;" horiz-adv-x="1308" 
d="M1171 0h-319v606q0 97 -48.5 155t-139.5 58q-94 0 -145.5 -59t-51.5 -150v-610h-320v1268h-137v217h137v184h320v-184h326v-217h-326v-303h2q55 79 137.5 114t163.5 35q196 0 299 -127q102 -126 102 -307v-680z" />
    <glyph glyph-name="uni045C" unicode="&#x45c;" horiz-adv-x="1277" 
d="M797 1276h-262l219 383h366zM147 0v1094h322v-469h4l404 469h387l-467 -533l489 -561h-407l-404 477h-6v-477h-322z" />
    <glyph glyph-name="uni045E" unicode="&#x45e;" horiz-adv-x="1271" 
d="M629 1266q-164 0 -267.5 99.5t-130.5 274.5l187 33q58 -186 211 -186q151 0 209 186l184 -31q-30 -179 -130.5 -277.5t-262.5 -98.5zM487 117l-460 977h352l272 -625l244 625h330l-664 -1633h-342z" />
    <glyph glyph-name="uni045F" unicode="&#x45f;" horiz-adv-x="1314" 
d="M508 -336v336h-361v1094h322v-818h377v818h319v-1094h-360v-336h-297z" />
    <glyph glyph-name="uni0490" unicode="&#x490;" horiz-adv-x="1230" 
d="M870 1604v331h322v-645h-674v-1290h-332v1604h684z" />
    <glyph glyph-name="uni0491" unicode="&#x491;" horiz-adv-x="1005" 
d="M670 1094v342h297v-619h-498v-817h-322v1094h523z" />
    <glyph glyph-name="uni0496" unicode="&#x496;" horiz-adv-x="2328" 
d="M1954 0h-88l-553 778h-10v-778h-332v778h-10l-553 -778h-410l602 825l-577 779h405l533 -752l10 2v750h332v-752h10l530 752h408l-580 -779l375 -510h229v-651h-321v336z" />
    <glyph glyph-name="uni0497" unicode="&#x497;" horiz-adv-x="1925" 
d="M1563 0h-90l-367 530h-6v-530h-318v530h-8l-364 -530h-387l399 559l-391 535h379l364 -504h8v504h318v-504h8l365 504h378l-391 -535l203 -283h195v-612h-297z" />
    <glyph glyph-name="uni0498" unicode="&#x498;" horiz-adv-x="1347" 
d="M1245 461q0 -172 -115 -299q-116 -128 -301 -168v-330h-321v324q-336 59 -455 329l291 150q41 -87 127 -135.5t199 -48.5q107 0 173 50.5t66 135.5q0 92 -61.5 140t-177.5 48h-211v308h192q107 0 168.5 49.5t61.5 130.5q0 77 -64 125.5t-172 48.5q-188 0 -270 -178
l-297 141q67 164 221.5 255t357.5 91q250 0 404 -127q153 -126 153 -334q0 -220 -219 -338v-2q132 -55 191 -143t59 -223z" />
    <glyph glyph-name="uni0499" unicode="&#x499;" horiz-adv-x="1089" 
d="M995 322q0 -134 -83 -221t-232 -113v-324h-297v326q-228 46 -334 250l250 141q77 -135 246 -135q60 0 98.5 29t38.5 71q0 100 -137 100h-135v211h131q123 0 123 99q0 39 -36 66.5t-96 27.5q-144 0 -227 -139l-242 135q143 272 484 272q196 0 313 -88t117 -237
q0 -163 -152 -228v-2q170 -68 170 -241z" />
    <glyph glyph-name="uni049A" unicode="&#x49a;" horiz-adv-x="1566" 
d="M1198 0h-104l-578 762v-762h-330v1604h330v-699l551 699h414l-613 -766l408 -523h246v-651h-324v336z" />
    <glyph glyph-name="uni049B" unicode="&#x49b;" horiz-adv-x="1327" 
d="M989 0h-112l-404 477h-6v-477h-320v1094h320v-469h4l403 469h390l-469 -533l249 -285h240v-612h-297z" />
    <glyph glyph-name="uni04A2" unicode="&#x4a2;" horiz-adv-x="1783" 
d="M1366 0h-176v649h-672v-649h-332v1604h332v-633h672v633h332v-1289h166v-651h-322v336z" />
    <glyph glyph-name="uni04A3" unicode="&#x4a3;" horiz-adv-x="1400" 
d="M1014 0h-162v416h-385v-416h-320v1094h320v-412h385v412h319v-818h140v-612h-297v336z" />
    <glyph glyph-name="uni04AA" unicode="&#x4aa;" horiz-adv-x="1703" 
d="M1348 596l305 -141q-66 -181 -221 -302.5t-357 -160.5v-328h-321v328q-294 53 -480 276t-186 533q0 346 242 585q242 242 590 242q243 0 444 -127q203 -126 283 -346l-304 -139q-51 134 -164 211.5t-261 77.5q-207 0 -347 -146q-139 -145 -139 -354q0 -215 137 -361
q139 -145 349 -145q146 0 260.5 81t169.5 216z" />
    <glyph glyph-name="uni04AB" unicode="&#x4ab;" horiz-adv-x="1259" 
d="M913 432l283 -117q-102 -265 -379 -323v-328h-297v328q-200 47 -317 194q-121 151 -121 359q0 241 172 407t418 166q185 0 324 -89.5t192 -248.5l-281 -116q-69 161 -235 161q-113 0 -187.5 -75.5t-74.5 -200.5q0 -123 72.5 -201t189.5 -78q171 0 241 162z" />
    <glyph glyph-name="uni04AC" unicode="&#x4ac;" horiz-adv-x="1386" 
d="M700 0h-178v1282h-481v322h1292v-322h-479v-967h168v-651h-322v336z" />
    <glyph glyph-name="uni04AD" unicode="&#x4ad;" horiz-adv-x="1075" 
d="M535 0h-164v817h-328v277h981v-277h-332v-541h139v-612h-296v336z" />
    <glyph glyph-name="uni04B2" unicode="&#x4b2;" horiz-adv-x="1601" 
d="M1227 0h-66l-391 578l-397 -578h-375l577 825l-544 779h389l354 -521l359 521h387l-549 -777l356 -512h221v-651h-321v336z" />
    <glyph glyph-name="uni04B3" unicode="&#x4b3;" horiz-adv-x="1222" 
d="M858 0h-61l-209 322l-211 -322h-354l393 551l-381 543h358l197 -310l203 310h352l-385 -537l198 -281h197v-612h-297v336z" />
    <glyph glyph-name="uni04B6" unicode="&#x4b6;" horiz-adv-x="1648" 
d="M1231 0h-176v623q-234 -117 -418 -117q-250 0 -389 135.5t-139 390.5v572h329v-474q0 -299 271 -299q215 0 346 101v672h329v-1289h168v-651h-321v336z" />
    <glyph glyph-name="uni04B7" unicode="&#x4b7;" horiz-adv-x="1329" 
d="M940 0h-160v375q-151 -74 -303 -74q-165 0 -280 92q-111 95 -111 275v426h322v-336q0 -183 155 -183q111 0 217 56v463h320v-818h137v-612h-297v336z" />
    <glyph glyph-name="uni04C0" unicode="&#x4c0;" horiz-adv-x="706" 
d="M186 0v1604h332v-1604h-332z" />
    <glyph glyph-name="uni04C1" unicode="&#x4c1;" horiz-adv-x="2273" 
d="M1139 1753q-164 0 -267.5 100.5t-130.5 276.5l187 33q56 -189 211 -189q153 0 209 189l184 -33q-30 -180 -130.5 -278.5t-262.5 -98.5zM600 825l-577 779h405l533 -752l10 2v750h332v-752h10l530 752h408l-580 -779l604 -825h-409l-553 778h-10v-778h-332v778h-10
l-553 -778h-410z" />
    <glyph glyph-name="uni04C2" unicode="&#x4c2;" horiz-adv-x="1880" 
d="M545 1640l186 33q61 -186 211 -186q151 0 209 186l184 -31q-27 -176 -129 -276t-264 -100t-266 100t-131 274zM1473 1094h378l-391 -535l398 -559h-385l-367 530h-6v-530h-318v530h-8l-364 -530h-387l399 559l-391 535h379l364 -504h8v504h318v-504h8z" />
    <glyph glyph-name="uni04CF" unicode="&#x4cf;" horiz-adv-x="616" 
d="M469 0h-322v1094h322v-1094z" />
    <glyph glyph-name="uni04D0" unicode="&#x4d0;" horiz-adv-x="1622" 
d="M416 2130l186 33q59 -189 211 -189q153 0 209 189l184 -33q-27 -176 -129 -276.5t-264 -100.5t-266 101t-131 276zM332 0h-334l612 1604h400l614 -1604h-342l-121 324h-710zM807 1282l-242 -651h484z" />
    <glyph glyph-name="uni04D1" unicode="&#x4d1;" horiz-adv-x="1218" 
d="M211 1640l186 33q58 -186 209 -186q150 0 211 186l184 -31q-30 -176 -132 -276t-263 -100q-162 0 -265 99.5t-130 274.5zM455 -20q-155 0 -262 88t-107 237v4q0 95 43.5 165t118.5 106q138 65 325 65h109q86 0 86 80q0 59 -46.5 97t-129.5 38q-162 0 -244 -147l-244 145
q140 260 502 260q221 0 348 -114t127 -326v-678h-295v135l-4 2q-112 -157 -327 -157zM547 213q101 0 160 59t59 152v25h-193q-72 0 -118.5 -33t-46.5 -92q0 -54 38 -82.5t101 -28.5z" />
    <glyph glyph-name="uni04D2" unicode="&#x4d2;" horiz-adv-x="1622" 
d="M735 1911q0 -73 -52.5 -125.5t-125.5 -52.5t-124.5 52t-51.5 126t51.5 126t124.5 52t125.5 -53t52.5 -125zM1190 1784q-51 -51 -125 -51t-125 51q-51 54 -51 127.5t51 124.5q51 54 125 54t125 -54q54 -51 54 -124.5t-54 -127.5zM332 0h-334l612 1604h400l614 -1604h-342
l-121 324h-710zM807 1282l-242 -651h484z" />
    <glyph glyph-name="uni04D3" unicode="&#x4d3;" horiz-adv-x="1218" 
d="M186 1442q0 73 51.5 125.5t124.5 52.5q74 0 126.5 -52.5t52.5 -125.5q0 -75 -52.5 -126.5t-126.5 -51.5t-125 51.5t-51 126.5zM676 1442q0 73 51 125.5t125 52.5q73 0 125.5 -53t52.5 -125q0 -74 -52 -126t-126 -52t-125 51.5t-51 126.5zM455 -20q-155 0 -262 88
t-107 237v4q0 95 43.5 165t118.5 106q138 65 325 65h109q86 0 86 80q0 59 -46.5 97t-129.5 38q-162 0 -244 -147l-244 145q140 260 502 260q221 0 348 -114t127 -326v-678h-295v135l-4 2q-112 -157 -327 -157zM547 213q101 0 160 59t59 152v25h-193q-72 0 -118.5 -33
t-46.5 -92q0 -54 38 -82.5t101 -28.5z" />
    <glyph glyph-name="uni04D4" unicode="&#x4d4;" horiz-adv-x="2158" 
d="M2036 1604v-312h-711v-325h637v-312h-637v-346h717v-309h-1045v322h-508l-157 -322h-359l813 1604h1250zM997 1294h-18l-336 -665h354v665z" />
    <glyph glyph-name="uni04D5" unicode="&#x4d5;" horiz-adv-x="1953" 
d="M471 -20h-18q-153 0 -260 88t-107 237v12q0 76 29.5 134.5t77 94.5t113 59t130 31.5t135.5 8.5h111q86 0 86 80q0 59 -46.5 97t-129.5 38q-166 0 -242 -147l-244 145q137 260 500 260q237 0 359 -131q160 133 364 133q240 0 391 -151q154 -151 154 -391q0 -78 -6 -119
h-793q13 -98 89 -156.5t182 -58.5q73 0 140 35.5t103 95.5l232 -152q-140 -248 -473 -248q-279 0 -449 191q-171 -186 -428 -186zM1081 670h471q-5 78 -66.5 134t-164.5 56q-101 0 -164 -63q-67 -64 -76 -127zM766 424v25h-195q-72 0 -117.5 -32.5t-45.5 -92.5
q0 -54 37 -82.5t100 -28.5q103 0 162 60t59 151z" />
    <glyph glyph-name="uni04D6" unicode="&#x4d6;" horiz-adv-x="1357" 
d="M717 1753q-164 0 -267.5 100.5t-130.5 276.5l187 33q56 -189 211 -189q150 0 209 189l184 -33q-30 -176 -132 -276.5t-261 -100.5zM1237 1292h-723v-325h647v-312h-647v-346h727v-309h-1055v1604h1051v-312z" />
    <glyph glyph-name="uni04D7" unicode="&#x4d7;" horiz-adv-x="1284" 
d="M268 1640l189 33q58 -186 209 -186q150 0 208 186l187 -31q-30 -176 -132 -276t-263 -100q-162 0 -266.5 100t-131.5 274zM1200 459h-794q13 -98 89 -156.5t181 -58.5q73 0 140.5 36t103.5 95l231 -152q-137 -248 -471 -248q-251 0 -428 160q-172 163 -172 414
q0 233 170 403q171 168 409 168q243 0 394 -151t151 -396q0 -64 -4 -114zM414 670h471q-6 78 -68.5 134t-165.5 56q-101 0 -164 -63q-64 -61 -73 -127z" />
    <glyph glyph-name="uni04DC" unicode="&#x4dc;" horiz-adv-x="2273" 
d="M883 2089q73 0 125.5 -53t52.5 -125q4 -55 -29 -100t-81 -64.5t-102.5 -11.5t-90.5 49q-40 37 -48.5 91.5t10 102.5t63 81t100.5 30zM1391 2089q73 0 125.5 -52.5t52.5 -125.5t-52.5 -125.5t-125.5 -52.5t-125 52t-52 126t51 126t126 52zM600 825l-577 779h405l533 -752
l10 2v750h332v-752h10l530 752h408l-580 -779l604 -825h-409l-553 778h-10v-778h-332v778h-10l-553 -778h-410z" />
    <glyph glyph-name="uni04DD" unicode="&#x4dd;" horiz-adv-x="1880" 
d="M520 1442q0 73 51.5 125.5t124.5 52.5q74 0 126 -52t52 -126q0 -75 -52 -126.5t-126 -51.5t-125 51.5t-51 126.5zM1008 1442q0 73 51.5 125.5t124.5 52.5q74 0 126 -52t52 -126q0 -75 -52 -126.5t-126 -51.5t-125 51.5t-51 126.5zM1473 1094h378l-391 -535l398 -559h-385
l-367 530h-6v-530h-318v530h-8l-364 -530h-387l399 559l-391 535h379l364 -504h8v504h318v-504h8z" />
    <glyph glyph-name="uni04DE" unicode="&#x4de;" horiz-adv-x="1347" 
d="M397 1733q-72 0 -124 52.5t-52 125.5q0 74 51.5 126t124.5 52t125.5 -52.5t52.5 -125.5t-52.5 -125.5t-125.5 -52.5zM905 1733q-72 0 -123 52t-51 126t50.5 126t123.5 52t125.5 -52.5t52.5 -125.5t-52.5 -125.5t-125.5 -52.5zM1245 461q0 -210 -166 -348
q-167 -138 -417 -138q-216 0 -377 89t-232 253l291 150q41 -87 127 -135.5t199 -48.5q107 0 173 50.5t66 135.5q0 92 -61.5 140t-177.5 48h-211v308h192q107 0 168.5 49.5t61.5 130.5q0 77 -64 125.5t-172 48.5q-188 0 -270 -178l-297 141q67 164 221.5 255t357.5 91
q250 0 404 -127q153 -126 153 -334q0 -220 -219 -338v-2q132 -55 191 -143t59 -223z" />
    <glyph glyph-name="uni04DF" unicode="&#x4df;" horiz-adv-x="1089" 
d="M125 1442q0 73 51.5 125.5t124.5 52.5t125.5 -52t52.5 -126q0 -75 -52 -126.5t-126 -51.5t-125 51.5t-51 126.5zM612 1442q0 73 51.5 125.5t124.5 52.5q74 0 126.5 -52.5t52.5 -125.5q0 -75 -52.5 -126.5t-126.5 -51.5t-125 51.5t-51 126.5zM664 756q0 39 -36 66.5
t-96 27.5q-144 0 -227 -139l-242 135q143 272 484 272q196 0 313 -88t117 -237q0 -163 -152 -228v-2q170 -68 170 -241q0 -164 -121.5 -255.5t-326.5 -91.5q-365 0 -498 265l250 141q77 -135 246 -135q60 0 98.5 29t38.5 71q0 100 -137 100h-135v211h131q123 0 123 99z" />
    <glyph glyph-name="uni04E2" unicode="&#x4e2;" horiz-adv-x="1765" 
d="M508 1778v237h745v-237h-745zM1251 1116l-714 -1116h-351v1604h328v-1067l688 1067h377v-1604h-328v1116z" />
    <glyph glyph-name="uni04E3" unicode="&#x4e3;" horiz-adv-x="1333" 
d="M293 1286v240h745v-240h-745zM147 0v1094h316v-637h2l401 637h320v-1094h-316v631h-2l-399 -631h-322z" />
    <glyph glyph-name="uni04E4" unicode="&#x4e4;" horiz-adv-x="1765" 
d="M627 2089q73 0 125.5 -53t52.5 -125q4 -55 -29 -100t-81 -64.5t-102.5 -11.5t-90.5 49q-40 37 -48.5 91.5t10 102.5t63 81t100.5 30zM1135 2089q73 0 125.5 -52.5t52.5 -125.5t-52.5 -125.5t-125.5 -52.5t-125 52t-52 126t51 126t126 52zM1251 1116l-714 -1116h-351v1604
h328v-1067l688 1067h377v-1604h-328v1116z" />
    <glyph glyph-name="uni04E5" unicode="&#x4e5;" horiz-adv-x="1333" 
d="M246 1442q0 73 51.5 125.5t124.5 52.5q74 0 126 -52t52 -126q0 -75 -52 -126.5t-126 -51.5t-125 51.5t-51 126.5zM733 1442q0 73 51.5 125.5t124.5 52.5t125.5 -52t52.5 -126q0 -75 -52 -126.5t-126 -51.5t-125 51.5t-51 126.5zM147 0v1094h316v-637h2l401 637h320v-1094
h-316v631h-2l-399 -631h-322z" />
    <glyph glyph-name="uni04E6" unicode="&#x4e6;" horiz-adv-x="1841" 
d="M670 2089q73 0 125.5 -53t52.5 -125q4 -55 -29 -100t-81 -64.5t-102.5 -11.5t-90.5 49q-40 37 -48.5 91.5t10 102.5t63 81t100.5 30zM1178 2089q74 0 126 -52.5t52 -125.5t-52 -125.5t-126 -52.5q-73 0 -125 52t-52 126t51 126t126 52zM88 801q0 342 246 585
q245 242 592 242q345 0 585 -237q242 -236 242 -582q0 -349 -246 -592q-242 -242 -589 -242q-345 0 -588 240q-242 239 -242 586zM571 1159q-143 -146 -143 -356t143 -359q144 -147 351 -147q206 0 350 147q143 149 143 359t-143 356q-145 148 -350 148q-206 0 -351 -148z
" />
    <glyph glyph-name="uni04E7" unicode="&#x4e7;" horiz-adv-x="1353" 
d="M258 1442q0 73 51.5 125.5t124.5 52.5q74 0 126 -52t52 -126q0 -75 -52 -126.5t-126 -51.5t-125 51.5t-51 126.5zM745 1442q0 72 52 125t125 53q74 0 126 -52t52 -126q0 -75 -52 -126.5t-126 -51.5t-125.5 51.5t-51.5 126.5zM80 545q0 245 174 407q175 166 426 166
q249 0 422 -164q172 -163 172 -403q0 -247 -174 -412q-176 -164 -424 -164q-253 0 -424 162q-172 163 -172 408zM408 549q0 -123 77 -203q78 -78 193 -78q116 0 192 79t76 202q0 121 -78 199q-76 79 -192 79q-115 0 -191 -79q-77 -77 -77 -199z" />
    <glyph glyph-name="uni04E8" unicode="&#x4e8;" horiz-adv-x="1841" 
d="M88 801q0 342 246 585q245 242 592 242q345 0 585 -237q242 -236 242 -582q0 -349 -246 -592q-242 -242 -589 -242q-345 0 -588 240q-242 239 -242 586zM438 948h967q-41 160 -176 262q-134 107 -307 107t-310 -107t-174 -262zM1407 662h-971q40 -160 176 -269
q132 -106 310 -106q176 0 311 106q136 106 174 269z" />
    <glyph glyph-name="uni04E9" unicode="&#x4e9;" horiz-adv-x="1353" 
d="M80 545q0 245 174 407q175 166 426 166q249 0 422 -164q172 -163 172 -403q0 -247 -174 -412q-176 -164 -424 -164q-253 0 -424 162q-172 163 -172 408zM399 649h555q-26 91 -103 146t-175 55q-97 0 -174 -55.5t-103 -145.5zM952 438h-551q26 -87 102.5 -139.5
t174.5 -52.5q97 0 172.5 53t101.5 139z" />
    <glyph glyph-name="uni04EA" unicode="&#x4ea;" horiz-adv-x="1841" 
d="M670 2089q73 0 125.5 -53t52.5 -125q4 -55 -29 -100t-81 -64.5t-102.5 -11.5t-90.5 49q-40 37 -48.5 91.5t10 102.5t63 81t100.5 30zM1178 2089q74 0 126 -52.5t52 -125.5t-52 -125.5t-126 -52.5q-73 0 -125 52t-52 126t51 126t126 52zM88 801q0 342 246 585
q245 242 592 242q345 0 585 -237q242 -236 242 -582q0 -349 -246 -592q-242 -242 -589 -242q-345 0 -588 240q-242 239 -242 586zM1405 948q-41 160 -176 262q-134 107 -307 107t-310 -107t-174 -262h967zM436 662q40 -160 176 -269q132 -106 310 -106q176 0 311 106
q136 106 174 269h-971z" />
    <glyph glyph-name="uni04EB" unicode="&#x4eb;" horiz-adv-x="1353" 
d="M258 1442q0 73 51.5 125.5t124.5 52.5q74 0 126 -52t52 -126q0 -75 -52 -126.5t-126 -51.5t-125 51.5t-51 126.5zM745 1442q0 72 52 125t125 53q74 0 126 -52t52 -126q0 -75 -52 -126.5t-126 -51.5t-125.5 51.5t-51.5 126.5zM80 545q0 245 174 407q175 166 426 166
q249 0 422 -164q172 -163 172 -403q0 -247 -174 -412q-176 -164 -424 -164q-253 0 -424 162q-172 163 -172 408zM954 649q-26 91 -103 146t-175 55q-97 0 -174 -55.5t-103 -145.5h555zM401 438q26 -87 102.5 -139.5t174.5 -52.5q97 0 172.5 53t101.5 139h-551z" />
    <glyph glyph-name="uni04EC" unicode="&#x4ec;" horiz-adv-x="1716" 
d="M682 1784q-51 -51 -125 -51t-125 51q-51 54 -51 127.5t51 124.5q51 54 125 54t125 -54q54 -51 54 -124.5t-54 -127.5zM1065 1733q-72 0 -124 52.5t-52 125.5q0 74 51.5 126t124.5 52t125.5 -52.5t52.5 -125.5t-52.5 -125.5t-125.5 -52.5zM795 1628q358 0 587 -235
q234 -237 234 -586q0 -352 -234 -592q-232 -238 -591 -238q-246 0 -453 127q-203 124 -287 349l301 137q55 -135 172.5 -215t268.5 -80q175 0 301 102q128 104 168 265h-639v296h632q-44 151 -170 250q-125 101 -292 101q-152 0 -269 -77t-168 -210l-297 137q77 216 283 342
q207 127 453 127z" />
    <glyph glyph-name="uni04ED" unicode="&#x4ed;" horiz-adv-x="1255" 
d="M168 1442q0 73 51 125.5t125 52.5t126 -52t52 -126q0 -75 -52 -126.5t-126 -51.5t-125 51.5t-51 126.5zM655 1442q0 73 51.5 125.5t124.5 52.5q74 0 126.5 -52.5t52.5 -125.5q0 -75 -52.5 -126.5t-126.5 -51.5t-125 51.5t-51 126.5zM594 1118q248 0 414 -166
q166 -163 166 -407q0 -241 -168 -406q-167 -164 -416 -164q-188 0 -328.5 87t-200.5 251l275 113q73 -162 256 -162q91 0 157.5 48.5t90.5 129.5h-361v220h355q-26 79 -91.5 124t-150.5 45q-180 0 -250 -159l-274 112q53 160 198 246q143 88 328 88z" />
    <glyph glyph-name="uni04EE" unicode="&#x4ee;" horiz-adv-x="1492" 
d="M395 1778v237h746v-237h-746zM6 1604h365l405 -822l383 822h359l-627 -1258q-96 -193 -213.5 -279.5t-278.5 -86.5q-212 0 -362 112l182 270q83 -65 170 -65q127 0 203 149z" />
    <glyph glyph-name="uni04EF" unicode="&#x4ef;" horiz-adv-x="1271" 
d="M256 1286v240h745v-240h-745zM487 117l-460 977h352l272 -625l244 625h330l-664 -1633h-342z" />
    <glyph glyph-name="uni04F0" unicode="&#x4f0;" horiz-adv-x="1492" 
d="M643 1784q-51 -51 -125 -51t-125 51q-51 54 -51 127.5t51 124.5q51 54 125 54t125 -54q54 -51 54 -124.5t-54 -127.5zM1026 1733q-72 0 -124 52.5t-52 125.5q0 74 51.5 126t124.5 52q74 0 126 -52.5t52 -125.5t-52 -125.5t-126 -52.5zM6 1604h365l405 -822l383 822h359
l-627 -1258q-96 -193 -213.5 -279.5t-278.5 -86.5q-212 0 -362 112l182 270q83 -65 170 -65q127 0 203 149z" />
    <glyph glyph-name="uni04F1" unicode="&#x4f1;" horiz-adv-x="1271" 
d="M383 1264q-72 0 -123 51.5t-51 126.5q0 73 50.5 125.5t123.5 52.5t125.5 -52t52.5 -126q0 -75 -52 -126.5t-126 -51.5zM696 1442q0 73 51 125.5t125 52.5t126.5 -52.5t52.5 -125.5q0 -75 -52.5 -126.5t-126.5 -51.5t-125 51.5t-51 126.5zM487 117l-460 977h352l272 -625
l244 625h330l-664 -1633h-342z" />
    <glyph glyph-name="uni04F2" unicode="&#x4f2;" horiz-adv-x="1492" 
d="M657 1745h-251l219 385h356zM1110 1745h-252l219 385h359zM6 1604h365l405 -822l383 822h359l-627 -1258q-96 -193 -213.5 -279.5t-278.5 -86.5q-212 0 -362 112l182 270q83 -65 170 -65q127 0 203 149z" />
    <glyph glyph-name="uni04F3" unicode="&#x4f3;" horiz-adv-x="1271" 
d="M516 1276h-254l221 383h357zM969 1276h-252l219 383h356zM487 117l-460 977h352l272 -625l244 625h330l-664 -1633h-342z" />
    <glyph glyph-name="uni04F4" unicode="&#x4f4;" horiz-adv-x="1572" 
d="M616 1784q-51 -51 -124.5 -51t-124.5 51q-51 54 -51 127.5t51 124.5q51 54 124.5 54t124.5 -54q54 -51 54 -124.5t-54 -127.5zM999 1733q-72 0 -124 52.5t-52 125.5q0 74 51.5 126t124.5 52q74 0 126.5 -52.5t52.5 -125.5t-52.5 -125.5t-126.5 -52.5zM1384 0h-329v623
q-234 -117 -418 -117q-250 0 -389 135.5t-139 390.5v572h329v-474q0 -299 271 -299q215 0 346 101v672h329v-1604z" />
    <glyph glyph-name="uni04F5" unicode="&#x4f5;" horiz-adv-x="1247" 
d="M172 1442q0 73 51.5 125.5t124.5 52.5q74 0 126 -52t52 -126q0 -75 -52 -126.5t-126 -51.5t-125 51.5t-51 126.5zM659 1442q0 72 52 125t125 53q74 0 126 -52t52 -126q0 -75 -52 -126.5t-126 -51.5t-125.5 51.5t-51.5 126.5zM1100 0h-320v375q-151 -74 -303 -74
q-165 0 -280 92q-111 95 -111 275v426h322v-336q0 -183 155 -183q111 0 217 56v463h320v-1094z" />
    <glyph glyph-name="uni04F8" unicode="&#x4f8;" horiz-adv-x="2211" 
d="M846 1733q-73 0 -124.5 52t-51.5 126t51 126t125 52q73 0 125.5 -53t52.5 -125q0 -73 -53 -125.5t-125 -52.5zM1354 1733q-73 0 -124.5 52t-51.5 126t51 126t125 52q73 0 125.5 -53t52.5 -125q0 -73 -53 -125.5t-125 -52.5zM518 1604v-607h365q120 0 216.5 -29
t158.5 -76.5t103 -112t58 -131.5t17 -140q0 -195 -125 -344q-65 -76 -182 -120t-267 -44h-676v1604h332zM2023 1604v-1604h-331v1604h331zM518 696v-383h344q139 0 193 60q53 59 53 137q0 82 -59.5 134t-190.5 52h-340z" />
    <glyph glyph-name="uni04F9" unicode="&#x4f9;" horiz-adv-x="1847" 
d="M504 1442q0 73 51 125.5t125 52.5q55 3 99 -30t63.5 -81t11.5 -102.5t-49 -91.5q-36 -40 -90.5 -48t-101.5 11t-80 63.5t-29 100.5zM991 1442q0 73 51.5 125.5t124.5 52.5q74 0 126.5 -52.5t52.5 -125.5q0 -75 -52.5 -126.5t-126.5 -51.5t-125 51.5t-51 126.5zM467 1094
v-328h248q217 0 340 -98.5t123 -280.5t-118.5 -284.5t-326.5 -102.5h-586v1094h320zM1700 0h-320v1094h320v-1094zM467 526v-274h219q168 0 168 141q0 63 -42.5 98t-125.5 35h-219z" />
    <glyph glyph-name="uni0E3F" unicode="&#xe3f;" horiz-adv-x="1531" 
d="M1141 838v-4q151 -58 222 -150t71 -242q0 -95 -32 -171t-86 -126t-128.5 -83t-155.5 -47.5t-170 -14.5h-8v-209h-170v209h-496v1604h496v221h170v-221q210 0 360 -111q152 -112 152 -313q0 -225 -225 -342zM512 1298v-348h176v348h-176zM1040 1126q0 157 -188 172v-344
q188 21 188 172zM512 668v-363h176v363h-176zM852 668v-363h10q112 0 180 44t68 136q0 183 -258 183z" />
    <glyph glyph-name="uni1E20" unicode="&#x1e20;" horiz-adv-x="1757" 
d="M553 1757v240h745v-240h-745zM426 803q0 -212 139 -363q137 -149 355 -149q159 0 270.5 74t142.5 196h-487v301h833v-125q0 -241 -110 -418q-106 -172 -274 -258t-375 -86q-366 0 -601 238q-231 240 -231 588q0 347 244 588q245 239 592 239q278 0 467 -139
q186 -137 251 -313l-292 -144q-48 118 -152 197q-106 86 -278 86q-206 0 -351 -148q-143 -146 -143 -364z" />
    <glyph glyph-name="uni1E21" unicode="&#x1e21;" horiz-adv-x="1396" 
d="M307 1286v240h746v-240h-746zM104 -233l261 149q91 -184 290 -184q128 0 201.5 65.5t73.5 190.5v166h-4q-116 -146 -316 -146q-232 0 -381 158q-147 156 -147 391q0 220 143 385q143 168 373 168q207 0 332 -149h4v133h313v-1098q0 -255 -166 -399q-163 -144 -424 -144
q-406 0 -553 314zM938 557q0 118 -75 193t-191 75q-114 0 -190 -75.5t-76 -192.5q0 -121 75 -195.5t191 -74.5q114 0 190 75t76 195z" />
    <glyph glyph-name="uni1E30" unicode="&#x1e30;" horiz-adv-x="1511" 
d="M936 1751h-262l219 383h367zM186 1604h334v-699l549 699h416l-613 -766l652 -838h-428l-576 762v-762h-334v1604z" />
    <glyph glyph-name="uni1E31" unicode="&#x1e31;" horiz-adv-x="1267" 
d="M147 0v1669h320v-1005l379 430h407l-440 -504l453 -590h-404l-387 518h-8v-518h-320zM889 1276h-262l219 383h366z" />
    <glyph glyph-name="uni1E60" unicode="&#x1e60;" horiz-adv-x="1335" 
d="M467 1929q0 81 57.5 139t137.5 58q82 0 139 -57.5t57 -139.5q0 -80 -57.5 -137t-138.5 -57q-80 0 -137.5 57.5t-57.5 136.5zM692 969q296 -84 428.5 -197.5t132.5 -300.5q0 -221 -155 -358q-156 -138 -432 -138q-223 0 -388.5 101t-238.5 276l287 148q48 -106 139 -165
t211 -59q106 0 175 48t69 122q0 71 -64 111q-62 43 -240 96q-278 82 -391 195q-123 120 -123 297q0 211 164 346q162 137 396 137q201 0 347.5 -90t215.5 -256l-275 -149q-82 196 -303 196q-97 0 -155 -45.5t-58 -118.5q0 -70 59 -113.5t199 -82.5z" />
    <glyph glyph-name="uni1E61" unicode="&#x1e61;" horiz-adv-x="1048" 
d="M360 1460q0 79 57.5 137t135.5 58q82 0 140.5 -57.5t58.5 -137.5q0 -81 -58.5 -138.5t-140.5 -57.5q-79 0 -136 57.5t-57 138.5zM971 330q0 -160 -117.5 -257.5t-318.5 -97.5q-346 0 -478 252l236 140q69 -134 246 -134q59 0 96 23.5t37 56.5q0 35 -37.5 60t-136.5 47
q-389 85 -389 354q0 154 122 248q125 98 297 98q148 0 257 -59t165 -162l-231 -137q-61 104 -199 104q-49 0 -81.5 -23.5t-32.5 -56.5q0 -70 143 -100q211 -44 316.5 -130t105.5 -226z" />
    <glyph glyph-name="Wgrave" unicode="&#x1e80;" horiz-adv-x="2439" 
d="M1094 1751l-324 383h367l219 -383h-262zM39 1604h354l305 -1139l346 1139h355l346 -1147l315 1147h342l-475 -1604h-358l-348 1163h-4l-351 -1163h-356z" />
    <glyph glyph-name="wgrave" unicode="&#x1e81;" horiz-adv-x="1828" 
d="M463 1659h366l220 -383h-263zM1794 1094l-344 -1094h-313l-224 698h-2l-225 -698h-309l-340 1094h328l196 -678h2l205 678h295l205 -684l207 684h319z" />
    <glyph glyph-name="Wacute" unicode="&#x1e82;" horiz-adv-x="2439" 
d="M1356 1751h-262l219 383h366zM39 1604h354l305 -1139l346 1139h355l346 -1147l315 1147h342l-475 -1604h-358l-348 1163h-4l-351 -1163h-356z" />
    <glyph glyph-name="wacute" unicode="&#x1e83;" horiz-adv-x="1828" 
d="M1042 1276h-262l219 383h367zM1794 1094l-344 -1094h-313l-224 698h-2l-225 -698h-309l-340 1094h328l196 -678h2l205 678h295l205 -684l207 684h319z" />
    <glyph glyph-name="Wdieresis" unicode="&#x1e84;" horiz-adv-x="2439" 
d="M967 2089q73 0 125.5 -52.5t52.5 -125.5t-52.5 -125.5t-125.5 -52.5t-124.5 52t-51.5 126t51 126t125 52zM1475 2089q73 0 125.5 -52.5t52.5 -125.5t-52.5 -125.5t-125.5 -52.5t-125 52t-52 126t51 126t126 52zM39 1604h354l305 -1139l346 1139h355l346 -1147l315 1147
h342l-475 -1604h-358l-348 1163h-4l-351 -1163h-356z" />
    <glyph glyph-name="wdieresis" unicode="&#x1e85;" horiz-adv-x="1828" 
d="M496 1442q0 73 51 125.5t125 52.5q73 0 125.5 -53t52.5 -125q0 -74 -52 -126t-126 -52t-125 51.5t-51 126.5zM983 1442q0 73 51.5 125.5t124.5 52.5t125.5 -52t52.5 -126q0 -75 -52 -126.5t-126 -51.5t-125 51.5t-51 126.5zM1794 1094l-344 -1094h-313l-224 698h-2
l-225 -698h-309l-340 1094h328l196 -678h2l205 678h295l205 -684l207 684h319z" />
    <glyph glyph-name="uni1E90" unicode="&#x1e90;" horiz-adv-x="1402" 
d="M301 1749l248 356h299l248 -356h-273l-125 186l-125 -186h-272zM883 1296h-764v308h1175v-285l-794 -1012h813v-307h-1231v293z" />
    <glyph glyph-name="uni1E91" unicode="&#x1e91;" horiz-adv-x="1107" 
d="M154 1278l245 356h301l246 -356h-270l-125 186l-125 -186h-272zM104 1094h906v-244l-516 -578h520v-272h-926v248l510 573h-494v273z" />
    <glyph glyph-name="uni1EBC" unicode="&#x1ebc;" horiz-adv-x="1357" 
d="M569 2087q65 0 126 -31.5t102.5 -62.5t60.5 -31q70 0 70 119h198q8 -156 -63 -245t-205 -89q-62 0 -123.5 31.5t-104.5 62.5t-61 31q-66 0 -69 -119h-197q-11 155 60 244.5t206 89.5zM1237 1292h-723v-325h647v-312h-647v-346h727v-309h-1055v1604h1051v-312z" />
    <glyph glyph-name="uni1EBD" unicode="&#x1ebd;" horiz-adv-x="1284" 
d="M514 1616q51 0 101 -19.5t81 -43t61 -43t46 -19.5q69 0 69 119h199q8 -156 -63 -245t-205 -89q-49 0 -98.5 19.5t-81.5 43t-63 43t-46 19.5q-67 0 -70 -119h-196q-11 155 60 244.5t206 89.5zM1200 459h-794q13 -98 89 -156.5t181 -58.5q73 0 140.5 36t103.5 95l231 -152
q-137 -248 -471 -248q-251 0 -428 160q-172 163 -172 414q0 233 170 403q171 168 409 168q243 0 394 -151t151 -396q0 -64 -4 -114zM414 670h471q-6 78 -68.5 134t-165.5 56q-101 0 -164 -63q-64 -61 -73 -127z" />
    <glyph glyph-name="Ygrave" unicode="&#x1ef2;" horiz-adv-x="1562" 
d="M668 1751l-324 383h367l219 -383h-262zM29 1604h383l370 -641l375 641h379l-588 -955v-649h-332v635z" />
    <glyph glyph-name="ygrave" unicode="&#x1ef3;" horiz-adv-x="1271" 
d="M190 1659h367l219 -383h-262zM487 117l-460 977h352l272 -625l244 625h330l-664 -1633h-342z" />
    <glyph glyph-name="endash" unicode="&#x2013;" horiz-adv-x="1265" 
d="M131 512v307h1002v-307h-1002z" />
    <glyph glyph-name="emdash" unicode="&#x2014;" horiz-adv-x="2050" 
d="M131 512v307h1788v-307h-1788z" />
    <glyph glyph-name="quoteleft" unicode="&#x2018;" horiz-adv-x="641" 
d="M92 1128v11q0 135 78.5 262.5t210.5 216.5l121 -115q-149 -98 -217 -250q37 13 71 13q79 0 131 -54.5t52 -138.5q0 -88 -62.5 -150.5t-150.5 -62.5q-104 0 -169 73.5t-65 194.5z" />
    <glyph glyph-name="quoteright" unicode="&#x2019;" horiz-adv-x="643" 
d="M559 1346v-11q0 -133 -78 -260t-211 -219l-120 115q154 108 217 252q-30 -15 -72 -15q-78 0 -130 54.5t-52 138.5q0 90 62.5 152.5t150.5 62.5q104 0 168.5 -74t64.5 -196z" />
    <glyph glyph-name="quotesinglbase" unicode="&#x201a;" horiz-adv-x="657" 
d="M551 147v-10q0 -135 -77 -262t-212 -219l-121 117q149 98 217 250q-40 -15 -71 -15q-79 0 -131 54.5t-52 140.5q0 88 62.5 150.5t150.5 62.5q103 0 168.5 -74t65.5 -195z" />
    <glyph glyph-name="quotedblleft" unicode="&#x201c;" horiz-adv-x="1200" 
d="M92 1128v11q0 135 78.5 262.5t210.5 216.5l121 -115q-149 -98 -217 -250q37 13 71 13q79 0 131 -54.5t52 -138.5q0 -88 -62.5 -150.5t-150.5 -62.5q-104 0 -169 73.5t-65 194.5zM655 1128v11q0 135 77.5 262.5t209.5 216.5l123 -115q-153 -104 -219 -250q41 13 74 13
q79 0 129.5 -53.5t50.5 -139.5q0 -90 -62.5 -151.5t-150.5 -61.5q-101 0 -166.5 74t-65.5 194z" />
    <glyph glyph-name="quotedblright" unicode="&#x201d;" horiz-adv-x="1204" 
d="M559 1346v-11q0 -133 -78 -260t-211 -219l-120 115q154 108 217 252q-30 -15 -72 -15q-78 0 -130 54.5t-52 138.5q0 90 62.5 152.5t150.5 62.5q104 0 168.5 -74t64.5 -196zM1120 1346v-11q0 -133 -77 -260t-209 -219l-123 115q152 103 219 252q-30 -15 -72 -15
q-78 0 -130 54.5t-52 138.5q0 91 61 153t152 62q103 0 167 -74t64 -196z" />
    <glyph glyph-name="quotedblbase" unicode="&#x201e;" horiz-adv-x="1218" 
d="M549 147v-10q0 -135 -77 -262t-212 -219l-121 117q149 98 217 250q-40 -15 -71 -15q-79 0 -131 54.5t-52 140.5q0 88 62.5 150.5t150.5 62.5q103 0 168.5 -74t65.5 -195zM1110 147v-10q0 -134 -77 -261.5t-210 -219.5l-123 117q149 98 220 250q-40 -15 -72 -15
q-79 0 -130.5 54.5t-51.5 140.5q0 88 62.5 150.5t150.5 62.5q101 0 166 -74.5t65 -194.5z" />
    <glyph glyph-name="dagger" unicode="&#x2020;" horiz-adv-x="1435" 
d="M170 838v290h385v390h324v-390h387v-290h-387v-838h-324v838h-385z" />
    <glyph glyph-name="daggerdbl" unicode="&#x2021;" horiz-adv-x="1435" 
d="M121 0v293h434v510h-434v291h434v422h324v-422h436v-291h-436v-510h436v-293h-436v-424h-324v424h-434z" />
    <glyph glyph-name="bullet" unicode="&#x2022;" horiz-adv-x="987" 
d="M745 494q-105 -105 -251 -105q-147 0 -252 105q-105 108 -105 254q0 145 105 253q106 109 252 109q145 0 251 -109q105 -108 105 -253q0 -146 -105 -254z" />
    <glyph glyph-name="ellipsis" unicode="&#x2026;" horiz-adv-x="2052" 
d="M324 -25q-89 0 -158 66q-66 66 -66 156q0 92 66 157.5t158 65.5t156.5 -65.5t64.5 -157.5q0 -90 -66 -156t-155 -66zM805 197q0 92 64.5 157.5t156.5 65.5t156.5 -65.5t64.5 -157.5t-64.5 -157t-156.5 -65t-158 66q-63 63 -63 156zM1729 -25q-90 0 -156 66t-66 156
q0 91 66 157t156 66q93 0 158 -65t65 -158q0 -90 -66 -156t-157 -66z" />
    <glyph glyph-name="perthousand" unicode="&#x2030;" horiz-adv-x="2603" 
d="M72 1257q0 153 106 259t256 106t256 -106q107 -107 107 -259q0 -149 -107 -256q-106 -106 -256 -106t-256 106t-106 256zM1569 1604l-1043 -1604h-278l1044 1604h277zM307 1257q0 -51 38 -87.5t89 -36.5t89 36.5t38 87.5q0 54 -36.5 90.5t-90.5 36.5t-90.5 -36.5
t-36.5 -90.5zM1024 352q0 152 106 258q107 107 256 107t256 -107t107 -258q0 -149 -107 -256q-107 -104 -256 -104t-256 104q-106 106 -106 256zM2173 -8q-151 0 -258 104q-107 107 -107 256q0 151 107 258t258 107q150 0 254 -107q106 -106 106 -258q0 -150 -106 -256
q-104 -104 -254 -104zM1260 352q0 -51 37.5 -88t88.5 -37t89 37t38 88q0 54 -36.5 90.5t-90.5 36.5t-90 -36.5t-36 -90.5zM2173 479q-54 0 -90.5 -36.5t-36.5 -90.5q0 -52 37 -88.5t90 -36.5q51 0 88 37t37 88q0 54 -37 90.5t-88 36.5z" />
    <glyph glyph-name="guilsinglleft" unicode="&#x2039;" horiz-adv-x="815" 
d="M403 618l308 -303l-176 -170l-478 471l480 474l172 -170z" />
    <glyph glyph-name="guilsinglright" unicode="&#x203a;" horiz-adv-x="815" 
d="M758 616l-477 -471l-175 170l306 301l-306 304l173 170z" />
    <glyph glyph-name="uni203D" unicode="&#x203d;" horiz-adv-x="1153" 
d="M647 1141l-4 -187h2q119 104 119 205q0 80 -63 133.5t-166 53.5q-152 0 -242 -134l-246 162q78 122 207.5 188t288.5 66q225 0 368 -119q146 -122 146 -315q0 -128 -58 -222t-192 -202q-79 -65 -115.5 -119.5t-36.5 -124.5v-24h-286l-23 639h301zM510 375q85 0 143 -58
t58 -143q0 -82 -58.5 -139.5t-142.5 -57.5q-80 0 -138.5 58t-58.5 139q0 82 58.5 141.5t138.5 59.5z" />
    <glyph glyph-name="uni2042" unicode="&#x2042;" horiz-adv-x="1884" 
d="M791 848l-152 113l145 204l-239 78l59 180l240 -77v258h194v-258l242 77l59 -180l-239 -78l147 -204l-153 -113l-154 207zM309 -35l-151 113l147 203l-242 79l62 181l237 -78v258h197v-258l240 78l61 -181l-239 -79l147 -203l-154 -113l-153 205zM1270 -35l-152 113
l148 203l-242 79l59 181l238 -78v258h199v-258l239 78l62 -181l-242 -79l147 -203l-151 -113l-154 205z" />
    <glyph glyph-name="fraction" unicode="&#x2044;" horiz-adv-x="1329" 
d="M1327 1604l-1042 -1604h-281l1047 1604h276z" />
    <glyph glyph-name="uni2051" unicode="&#x2051;" horiz-adv-x="997" 
d="M346 848l-151 113l147 204l-242 78l60 180l239 -77v258h197v-258l240 77l61 -180l-242 -78l148 -204l-152 -113l-153 207zM346 -35l-151 113l147 203l-242 79l60 181l239 -78v258h197v-258l240 78l61 -181l-242 -79l148 -203l-152 -113l-153 205z" />
    <glyph glyph-name="lira" unicode="&#x20a4;" horiz-adv-x="1388" 
d="M1104 381l225 -156q-43 -121 -144 -184.5t-239 -63.5q-104 0 -229 52q-127 53 -197 53q-108 0 -266 -94l-156 276q240 142 293 266h-274v183h270l-20 45q-3 6 -27 61l-18 35h-205v182h121q-19 59 -19 111q0 197 156 338q155 143 383 143q200 0 334 -93t182 -257
l-299 -139q-58 178 -213 178q-89 0 -145 -47.5t-56 -128.5q0 -47 21 -105h454v-182h-366q37 -88 45 -141h321v-183h-331q-34 -100 -136 -165q27 6 52 6q81 0 172 -39t157 -39q102 0 154 88z" />
    <glyph glyph-name="uni20A6" unicode="&#x20a6;" horiz-adv-x="1941" 
d="M1673 508v-508h-340l-735 1106v-1106h-328v508h-149v211h149v121h-149v211h149v553h377l699 -1047v1047h327v-553h148v-211h-148v-121h148v-211h-148z" />
    <glyph glyph-name="uni20A9" unicode="&#x20a9;" horiz-adv-x="2576" 
d="M2247 852l-35 -123h248v-211h-312l-151 -518h-361l-348 1163h-4l-350 -1163h-356l-152 518h-307v211h243l-34 123h-209v211h147l-160 541h355l307 -1139l344 1139h354l346 -1147l318 1147h340l-160 -541h150v-211h-213z" />
    <glyph glyph-name="uni20AA" unicode="&#x20aa;" horiz-adv-x="2105" 
d="M1448 430h-322v373q0 139 -59 198q-59 62 -242 62h-315v-1063h-322v1348h689q346 0 462 -142q60 -70 84.5 -160.5t24.5 -228.5v-387zM657 0v918h322v-633h315q170 0 235.5 57t65.5 203v803h322v-818q0 -138 -24.5 -228.5t-84.5 -162.5q-116 -139 -462 -139h-689z" />
    <glyph glyph-name="dong" unicode="&#x20ab;" horiz-adv-x="1476" 
d="M1253 1485h125v-217h-125v-1268h-311v139h-4q-108 -159 -340 -159q-231 0 -375 170q-145 171 -145 399q0 220 149 391q149 174 377 174q205 0 326 -145h4v299h-305v217h305v184h319v-184zM942 549q0 121 -78 199q-77 77 -190 77q-115 0 -195 -77q-78 -78 -78 -199
q0 -122 78 -203q78 -78 193 -78q114 0 192 78q78 81 78 203zM156 -418v277h1140v-277h-1140z" />
    <glyph glyph-name="Euro" unicode="&#x20ac;" horiz-adv-x="1882" 
d="M279 539h-197v204h160q-2 12 -2 58q0 51 2 65h-160v207h203q83 252 301 402q218 153 485 153q246 0 447 -127q203 -126 280 -346l-303 -139q-51 134 -163.5 211.5t-260.5 77.5q-129 0 -240 -62.5t-178 -169.5h559l-65 -207h-563q-7 -61 0 -123h528l-63 -204h-398
q64 -110 174.5 -174t245.5 -64q145 0 259 80t169 215l305 -141q-80 -222 -286 -351q-207 -127 -451 -127q-272 0 -492 152q-215 152 -296 410z" />
    <glyph glyph-name="uni20AE" unicode="&#x20ae;" horiz-adv-x="1472" 
d="M1298 903l-387 -129v-137l387 131v-217l-387 -129v-422h-327v311l-387 -131v217l387 129v138l-387 -129v217l387 129v401h-484v322h1295v-322h-484v-291l387 129v-217z" />
    <glyph glyph-name="uni20B1" unicode="&#x20b1;" horiz-adv-x="1660" 
d="M1593 1174v-185h-161q-30 -203 -185 -313.5t-393 -110.5h-252v-565h-332v989h-172v185h172v430h594q230 0 385 -113q158 -113 185 -317h159zM602 1292v-123h488q-46 123 -240 123h-248zM602 993v-123h250q182 0 235 123h-485z" />
    <glyph glyph-name="uni20B4" unicode="&#x20b4;" horiz-adv-x="1525" 
d="M1327 1092h88v-211h-1311v211h883q12 27 12 65q0 77 -67 123q-64 49 -150 49q-195 0 -305 -149l-250 188q167 258 559 258q240 0 390 -141q153 -138 153 -336q0 -45 -2 -57zM104 541v211h1311v-211h-880q-19 -40 -19 -86q0 -81 71.5 -131t178.5 -50q120 0 218.5 50.5
t156.5 138.5l254 -182q-100 -157 -252.5 -231.5t-388.5 -74.5q-274 0 -424 138q-152 140 -152 350q0 12 4 78h-78z" />
    <glyph glyph-name="uni20B8" unicode="&#x20b8;" horiz-adv-x="1484" 
d="M96 1604h1293v-318h-1293v318zM96 842v317h1293v-317h-482v-842h-329v842h-482z" />
    <glyph glyph-name="uni20B9" unicode="&#x20b9;" horiz-adv-x="1327" 
d="M1243 1604v-287h-291q55 -67 72 -135h219v-189h-217q-40 -253 -291 -356l330 -637h-365l-286 575h-299v306h366q157 0 203 112h-569v189h573q-49 110 -209 110h-364v312h1128z" />
    <glyph glyph-name="uni20BA" unicode="&#x20ba;" horiz-adv-x="1521" 
d="M1135 721l315 -35q-8 -334 -219 -510t-615 -176h-270v543l-225 -103v226l225 102v141l-225 -102v225l225 103v469h332v-322l477 215v-225l-477 -215v-142l477 215v-225l-477 -215v-385q253 3 356 121q49 56 72 125.5t29 169.5z" />
    <glyph glyph-name="uni20BD" unicode="&#x20bd;" horiz-adv-x="1531" 
d="M1004 244h-363v-244h-330v244h-190v200h190v121h-190v299h190v740h576q251 0 411 -136q162 -131 162 -378q0 -258 -162 -392q-165 -133 -424 -133h-233v-121h363v-200zM641 1290v-416h238q116 0 191 53.5t75 153.5q0 104 -73 156.5t-195 52.5h-236z" />
    <glyph glyph-name="uni2113" unicode="&#x2113;" horiz-adv-x="1026" 
d="M604 672l-57 -54v-143q0 -113 66.5 -170t183.5 -57q51 0 98 12v-254q-73 -20 -137 -20q-207 0 -329 104.5t-146 286.5l-88 -80l-172 188l253 228v540q0 164 91 269q90 106 258 106q163 0 254 -98q88 -94 88 -246q0 -280 -363 -612zM563 1337q-16 -32 -16 -71v-303
q153 169 153 321q0 90 -73 90q-43 0 -64 -37z" />
    <glyph glyph-name="uni2116" unicode="&#x2116;" horiz-adv-x="2742" 
d="M188 1604h385l691 -1086v1086h327v-1604h-377l-698 1104v-1104h-328v1604zM2628 1006q0 -164 -117 -281q-115 -115 -289 -115q-171 0 -289 115q-116 116 -116 281t116 278q118 115 289 115q170 0 287 -117q119 -113 119 -276zM2222 1151q-58 0 -100.5 -42t-42.5 -103
q0 -62 41.5 -105t101.5 -43q61 0 102 43t41 105q0 60 -43 102.5t-100 42.5zM2615 197h-784v247h784v-247z" />
    <glyph glyph-name="trademark" unicode="&#x2122;" horiz-adv-x="2179" 
d="M76 1403v201h747v-201h-262v-723h-221v723h-264zM1417 680l-225 610h-8v-610h-213v924h309l213 -582l203 582h321v-924h-217v618h-8l-223 -618h-152z" />
    <glyph glyph-name="estimated" unicode="&#x212e;" horiz-adv-x="1765" 
d="M897 -25q-367 0 -582 238q-213 242 -213 602q0 342 222 578q223 235 573 235q349 0 569 -233q224 -230 224 -576v-18h-1237v-520q79 -81 202 -131t242 -50q208 0 359 88t233 254l106 -59q-86 -188 -270.5 -298t-427.5 -110zM453 928h890v403q-77 80 -200 127t-248 47
q-264 0 -442 -172v-405z" />
    <glyph glyph-name="uni2153" unicode="&#x2153;" horiz-adv-x="2271" 
d="M430 887h373v-213h-719v200l358 291q63 51 87 82t24 66q0 40 -30.5 67t-82.5 27q-90 0 -127 -104l-217 90q31 109 125 171t230 62q176 0 276 -115q72 -84 72 -188q0 -94 -49 -158q-45 -60 -166 -155zM752 0h-281l1047 1604h276zM2017 473q68 -25 106 -79t38 -126
q0 -130 -102 -211.5t-267 -81.5q-277 0 -354 215l198 97q46 -101 152 -101q57 0 92 26t35 67q0 92 -127 92h-102v186h94q121 0 121 90t-121 90q-97 0 -140 -100l-198 96q37 100 128 156.5t222 56.5q157 0 254.5 -76t97.5 -202q0 -60 -35 -114.5t-92 -80.5z" />
    <glyph glyph-name="uni2154" unicode="&#x2154;" horiz-adv-x="2113" 
d="M381 1327l-213 -121l-107 195l353 203h237v-930h-270v653zM313 0l1045 1604h276l-1040 -1604h-281zM1860 473q67 -25 105 -79t38 -126q0 -130 -102 -211.5t-267 -81.5q-277 0 -354 215l199 97q46 -101 151 -101q57 0 92 26t35 67q0 92 -127 92h-102v186h94q121 0 121 90
t-121 90q-96 0 -139 -100l-199 96q37 100 128 156.5t222 56.5q157 0 255 -76t98 -202q0 -60 -35 -114.5t-92 -80.5z" />
    <glyph glyph-name="oneeighth" unicode="&#x215b;" horiz-adv-x="2070" 
d="M383 1327l-215 -121l-107 195l353 203h239v-928h-270v651zM322 0l1044 1604h276l-1042 -1604h-278zM1217 268q0 142 151 207q-127 65 -127 189q0 137 115 208q118 74 252 74q131 0 247 -72q115 -71 115 -208q0 -126 -127 -191q68 -27 110 -79t42 -126q0 -100 -64 -170
q-111 -125 -325 -125q-69 -2 -136 15t-124 51.5t-92.5 93.5t-36.5 133zM1518 717q-37 -26 -37 -65.5t37 -65.5t88 -26t88 26t37 65.5t-37 65.5t-88 26t-88 -26zM1460 283q0 -43 43 -73t103 -30t102.5 30t42.5 73q0 41 -41.5 69.5t-101.5 28.5q-62 0 -105 -28.5t-43 -69.5z
" />
    <glyph glyph-name="threeeighths" unicode="&#x215c;" horiz-adv-x="2146" 
d="M666 1153q67 -25 105 -79t38 -126q0 -130 -102 -211.5t-267 -81.5q-277 0 -354 215l199 97q46 -101 151 -101q57 0 92 25.5t35 66.5q0 93 -127 93h-102v186h94q121 0 121 90t-121 90q-96 0 -139 -100l-199 96q37 100 128 156.5t222 56.5q157 0 255 -76t98 -202
q0 -60 -35 -114.5t-92 -80.5zM395 0l1045 1604h278l-1044 -1604h-279zM1294 268q0 146 150 207q-127 65 -127 189q0 137 115 208q118 74 251 74q132 0 248 -72q117 -70 117 -208q0 -124 -129 -191q68 -27 110 -79t42 -126q0 -100 -64 -170q-111 -125 -326 -125
q-68 -2 -134.5 15t-123.5 51t-92.5 93.5t-36.5 133.5zM1593 717q-37 -26 -37 -65.5t37 -65.5t88 -26t88 26t37 65.5t-37 65.5t-88 26t-88 -26zM1536 283q0 -43 42.5 -73t102.5 -30q61 0 103.5 30t42.5 73q0 41 -42 69.5t-102 28.5q-62 0 -104.5 -28.5t-42.5 -69.5z" />
    <glyph glyph-name="fiveeighths" unicode="&#x215d;" horiz-adv-x="2134" 
d="M760 1393h-410l-20 -158q73 61 168 61q134 0 218.5 -80t84.5 -223q0 -154 -107 -245q-107 -93 -264 -93q-270 0 -350 201l194 109q48 -97 150 -97q61 0 97 34t36 89q0 52 -34.5 84.5t-96.5 32.5q-68 0 -127 -59l-195 77l68 478h588v-211zM383 0l1047 1604h276
l-1042 -1604h-281zM1280 268q0 142 150 207q-127 65 -127 189q0 138 116 208q118 74 250 74t248 -72q117 -70 117 -208q0 -126 -127 -191q66 -26 107.5 -79.5t41.5 -125.5q0 -101 -63 -170q-111 -125 -326 -125q-68 -2 -134.5 15t-123.5 51t-92.5 93.5t-36.5 133.5z
M1579 717q-37 -26 -37 -65.5t37 -65.5t88 -26t88 26t37 65.5t-37 65.5t-88 26t-88 -26zM1524 283q0 -43 41.5 -73t101.5 -30q61 0 103 30t42 73q0 41 -41.5 69.5t-101.5 28.5t-102.5 -28.5t-42.5 -69.5z" />
    <glyph glyph-name="seveneighths" unicode="&#x215e;" horiz-adv-x="1953" 
d="M532 1389h-450v215h729v-215l-391 -713h-283zM205 0l1042 1604h279l-1043 -1604h-278zM1102 268q0 146 149 207q-127 65 -127 189q0 137 115 208q118 74 252 74q132 0 248 -72q116 -70 116 -208q0 -124 -129 -191q152 -59 152 -205q0 -101 -63 -170q-111 -125 -326 -125
q-68 -2 -134.5 15t-123.5 51t-92.5 93.5t-36.5 133.5zM1489 559q54 0 90.5 27t36.5 65t-36.5 65t-90.5 27q-51 0 -88 -27t-37 -65t37 -65t88 -27zM1346 283q0 -43 41.5 -73t101.5 -30q61 0 103 30t42 73q0 41 -41.5 69.5t-101.5 28.5q-61 0 -103 -28.5t-42 -69.5z" />
    <glyph glyph-name="arrowleft" unicode="&#x2190;" horiz-adv-x="1359" 
d="M39 768l600 651l192 -186l-313 -334h770v-307h-770q45 -45 119 -123q22 -23 64 -70t49 -55q39 -43 84 -88l-195 -182l-600 649v45z" />
    <glyph glyph-name="arrowup" unicode="&#x2191;" horiz-adv-x="1359" 
d="M702 1370l650 -598l-187 -194q-232 216 -331 315v-770h-310v770q-52 -55 -334 -318l-184 197l649 598h47z" />
    <glyph glyph-name="arrowright" unicode="&#x2192;" horiz-adv-x="1359" 
d="M1321 723l-600 -649l-197 182l82 88q123 135 236 248h-770v307h770q-58 58 -316 334l195 186l600 -651v-45z" />
    <glyph glyph-name="arrowdown" unicode="&#x2193;" horiz-adv-x="1359" 
d="M657 123l-651 600l187 192q205 -187 331 -313v768h310v-768q109 109 202 195q130 120 131 121l185 -195l-650 -600h-45z" />
    <glyph glyph-name="uni2196" unicode="&#x2196;" horiz-adv-x="1359" 
d="M264 1192l885 35l4 -269q-273 -14 -457 -14l545 -543l-217 -219l-545 545q0 -51 -14 -461l-268 10l34 881z" />
    <glyph glyph-name="uni2197" unicode="&#x2197;" horiz-adv-x="1359" 
d="M1126 1157l35 -881l-268 -10q-12 396 -12 461l-545 -545l-217 219l543 543q-184 0 -457 14l6 269l883 -35z" />
    <glyph glyph-name="uni2198" unicode="&#x2198;" horiz-adv-x="1359" 
d="M1094 219l-885 -37l-4 269q273 14 457 14l-545 545l217 217l545 -545q0 51 14 461l268 -8l-35 -883z" />
    <glyph glyph-name="uni2199" unicode="&#x2199;" horiz-adv-x="1359" 
d="M233 252l-34 883l268 8q0 -29 6 -185q9 -156 6 -276l545 545l217 -217l-545 -545q186 0 459 -14l-6 -269l-885 37z" />
    <glyph glyph-name="uni21A9" unicode="&#x21a9;" horiz-adv-x="2310" 
d="M539 586h956q174 0 283 100q112 100 112 256q0 162 -108.5 260t-290.5 98h-401v304h419q314 0 512 -189q199 -187 199 -473q0 -287 -199 -477q-198 -189 -512 -189h-970q68 -66 196 -204l119 -129l-197 -185l-598 650v45l598 651l195 -186q-198 -217 -313 -332z" />
    <glyph glyph-name="uni21B0" unicode="&#x21b0;" horiz-adv-x="1761" 
d="M1647 0h-330v606q0 152 -98 234t-273 82h-407l315 -334l-195 -185l-600 650v47l600 649l195 -184l-82 -90q-143 -158 -231 -244h420q320 0 503 -160q183 -157 183 -438v-633z" />
    <glyph glyph-name="uni21B1" unicode="&#x21b1;" horiz-adv-x="1761" 
d="M444 0h-329v633q0 282 182 438q183 160 504 160h420q-64 61 -119 119q-67 75 -115 125l-82 90l197 184l600 -649v-47l-600 -650l-195 185q148 162 316 334h-410q-174 0 -271.5 -82t-97.5 -234v-606z" />
    <glyph glyph-name="uni21B2" unicode="&#x21b2;" horiz-adv-x="1759" 
d="M1317 1604h330v-631q0 -282 -182 -440t-504 -158h-420q58 -58 190 -201q101 -107 123 -133l-195 -184l-600 649v45l600 649l195 -184l-315 -334h407q175 0 273 81.5t98 233.5v607z" />
    <glyph glyph-name="uni21B3" unicode="&#x21b3;" horiz-adv-x="1759" 
d="M113 1604h329v-607q0 -152 98 -233.5t273 -81.5h408q-129 129 -314 334l195 184l598 -649v-45l-598 -649l-197 184l119 129q128 139 197 205h-420q-324 0 -506 158t-182 440v631z" />
    <glyph glyph-name="uni21B4" unicode="&#x21b4;" horiz-adv-x="1892" 
d="M84 1276v330h633q281 0 438 -183q160 -183 160 -505v-420q32 34 121 118l123 113l90 82l184 -195l-649 -598h-45l-652 598l187 195l332 -313v405q0 178 -80.5 275.5t-233.5 97.5h-608z" />
    <glyph glyph-name="partialdiff" unicode="&#x2202;" 
d="M649 -20q-243 0 -405 143q-160 145 -160 389q0 223 160 365q164 141 389 141q170 0 311 -84q-24 178 -123 286.5t-256 108.5q-68 0 -153 -25t-146 -65l-123 268q90 57 215 88q127 31 226 31q180 0 320.5 -72t223.5 -202q166 -244 166 -609q1 -125 -22 -236t-73 -208.5
t-124.5 -167.5t-183 -110.5t-242.5 -40.5zM700 737q-125 0 -202.5 -60t-77.5 -169q0 -96 72 -162q71 -65 172 -65q139 0 215.5 97.5t78.5 254.5q-47 44 -121 74t-137 30z" />
    <glyph glyph-name="uni2206" unicode="&#x2206;" horiz-adv-x="1753" 
d="M63 0l615 1604h397l615 -1604h-1627zM516 307h717l-359 965z" />
    <glyph glyph-name="product" unicode="&#x220f;" horiz-adv-x="1638" 
d="M659 1300v-1300h-327v1300h-254v304h1485v-304h-256v-1300h-328v1300h-320z" />
    <glyph glyph-name="summation" unicode="&#x2211;" horiz-adv-x="1378" 
d="M129 1305v299h1137v-304h-701l512 -481l-528 -516h717v-303h-1162v299l531 522z" />
    <glyph glyph-name="minus" unicode="&#x2212;" horiz-adv-x="1294" 
d="M1157 600h-1020v297h1020v-297z" />
    <glyph glyph-name="radical" unicode="&#x221a;" horiz-adv-x="1613" 
d="M850 377l489 1585h263l-607 -1962h-299l-379 1018h-282v256h508z" />
    <glyph glyph-name="infinity" unicode="&#x221e;" horiz-adv-x="2072" 
d="M1511 213q-93 0 -184 45q-89 44 -149 94q-34 29 -144 131q-153 -141 -227 -190q-127 -80 -270 -80q-194 0 -314 129q-121 133 -121 322q0 194 129 323q131 131 328 131q90 0 186 -47q103 -50 154 -94q49 -39 139 -129q150 139 228 190q127 80 270 80q194 0 313 -131
q121 -130 121 -323q0 -192 -133 -322q-132 -129 -326 -129zM772 571l90 91l-53 55q-144 141 -240 141q-79 0 -135.5 -56t-56.5 -134q0 -80 55 -137.5t133 -57.5q53 0 117 37q62 36 90 61zM1511 858q-53 0 -114 -37q-68 -38 -97 -67q-15 -13 -90 -88l47 -48l60 -55l53 -43
q66 -47 135 -47q78 0 134.5 57.5t56.5 135.5t-55 135t-130 57z" />
    <glyph glyph-name="integral" unicode="&#x222b;" horiz-adv-x="925" 
d="M797 1628h94v-297q-76 -2 -117 -9.5t-78 -29.5q-71 -43 -71 -190v-1145q0 -267 -119.5 -383.5t-376.5 -116.5h-94v295q144 3 203 47q61 43 61 185v1142q0 270 121 385q123 114 377 117z" />
    <glyph glyph-name="uni2236" unicode="&#x2236;" horiz-adv-x="720" 
d="M360 854q-88 0 -157 66q-66 66 -66 155q0 92 65.5 157.5t157.5 65.5t157 -65.5t65 -157.5q0 -89 -66 -155t-156 -66zM360 156q-89 0 -157 65q-66 66 -66 154q0 92 65.5 157.5t157.5 65.5t157 -65.5t65 -157.5q0 -90 -66 -156q-63 -63 -156 -63z" />
    <glyph glyph-name="approxequal" unicode="&#x2248;" horiz-adv-x="1343" 
d="M1042 1176l172 -160q-127 -219 -327 -219q-50 -2 -116 24.5t-119 59.5t-108.5 59.5t-86.5 24.5q-79 0 -158 -105l-170 160q127 219 328 219q55 2 125 -24.5t122.5 -59.5t105 -59.5t77.5 -24.5q79 0 155 105zM887 258q-50 -2 -116 24.5t-119 59.5t-108.5 59.5t-86.5 24.5
q-79 0 -158 -104l-170 159q127 219 328 219q56 3 125.5 -23t122 -58.5t105 -59t77.5 -24.5q79 0 155 104l172 -162q-127 -219 -327 -219z" />
    <glyph glyph-name="notequal" unicode="&#x2260;" horiz-adv-x="1296" 
d="M1167 319h-614l-174 -335l-203 108l121 227h-168v297h324l141 265h-465v295h616l168 315l203 -102l-112 -213h163v-295h-317l-139 -265h456v-297z" />
    <glyph glyph-name="lessequal" unicode="&#x2264;" horiz-adv-x="1349" 
d="M500 922v-7l694 -223v-303l-1067 389v277l1067 385v-299zM1198 285v-285h-1071v285h1071z" />
    <glyph glyph-name="greaterequal" unicode="&#x2265;" horiz-adv-x="1351" 
d="M156 1139v301l1069 -385v-277l-1069 -389v301l694 223v5zM1225 285v-285h-1073v285h1073z" />
    <glyph glyph-name="uni2318" unicode="&#x2318;" horiz-adv-x="1429" 
d="M1118 141q-102 0 -178 76q-74 74 -74 176v129h-303v-129q0 -102 -74 -176q-70 -76 -178 -76q-106 0 -176 76q-74 74 -74 176t74 176t176 74h127v303h-125q-106 0 -176 76q-76 70 -76 176t76 176q74 74 176 74t176 -74t74 -176v-129h303v129q0 102 74 176q77 74 178 74
q102 0 176 -74t74 -176t-74 -176q-70 -76 -176 -76h-127v-303h127q102 0 176 -74t74 -176t-74 -176q-70 -76 -176 -76zM313 1069h125v129q0 53 -37 90q-34 37 -88 37q-58 0 -92 -37q-37 -34 -37 -90q0 -53 37 -90q42 -39 92 -39zM1118 1325q-56 0 -90 -37q-37 -34 -37 -90
v-129h127q51 0 90 39q29 26 35 65t-8 73.5t-45.5 58t-71.5 20.5zM866 946h-303v-303h303v303zM438 393v129h-127q-57 0 -90 -39q-37 -34 -37 -90q0 -52 37 -92q41 -37 90 -37t90 37q37 40 37 92zM1118 522h-127v-129q0 -52 37 -92q37 -37 90 -37q50 0 90 37q37 40 37 92
q0 56 -37 90q-33 39 -90 39z" />
    <glyph glyph-name="filledbox" unicode="&#x25a0;" horiz-adv-x="1859" 
d="M207 1456h1452v-1456h-1452v1456z" />
    <glyph glyph-name="uni25A1" unicode="&#x25a1;" horiz-adv-x="1859" 
d="M207 0v1456h1452v-1456h-1452zM1432 1239h-1004v-1024h1004v1024z" />
    <glyph glyph-name="triagup" unicode="&#x25b2;" horiz-adv-x="1716" 
d="M0 0l862 1495l854 -1495h-1716z" />
    <glyph glyph-name="uni25B3" unicode="&#x25b3;" horiz-adv-x="1716" 
d="M858 1487l852 -1487h-1704zM387 217h938l-467 823z" />
    <glyph glyph-name="lozenge" unicode="&#x25ca;" horiz-adv-x="1509" 
d="M920 1604l573 -799l-573 -805h-340l-576 805l576 799h340zM750 1278l-340 -473l340 -475l340 475z" />
    <glyph glyph-name="circle" unicode="&#x25cb;" horiz-adv-x="1665" 
d="M1591 729q0 -315 -221 -536q-222 -222 -536 -222q-312 0 -539 222q-221 221 -221 536q0 313 221 539q223 223 539 223q317 0 536 -223q221 -221 221 -539zM834 1272q-224 0 -381 -160q-156 -156 -156 -383q0 -224 156 -383q158 -158 381 -158q216 0 374 158
q156 159 156 383q0 227 -156 383q-157 160 -374 160z" />
    <glyph glyph-name="uni25CF" unicode="&#x25cf;" horiz-adv-x="1665" 
d="M74 729q0 318 221 539q219 223 536 223q318 0 537 -223q223 -223 223 -539q0 -317 -223 -536q-222 -222 -537 -222q-314 0 -536 222q-221 221 -221 536z" />
    <glyph glyph-name="uni2605" unicode="&#x2605;" horiz-adv-x="1716" 
d="M1358 -43l-500 362l-502 -358l193 584l-500 362h619l190 588l191 -588h618l-500 -362z" />
    <glyph glyph-name="uni2611" unicode="&#x2611;" horiz-adv-x="1957" 
d="M207 1456h1255l267 463l202 -121l-272 -475v-1323h-1452v1456zM616 1036l357 -436l368 643h-917v-1032h563l-553 668zM1434 936l-418 -725h418v725z" />
    <glyph glyph-name="uni2612" unicode="&#x2612;" horiz-adv-x="1859" 
d="M1659 0h-1452v1456h1452v-1456zM1434 211v1032h-1010v-1032h1010zM774 727l-315 315l157 158l316 -313l311 313l158 -158l-314 -315l314 -311l-158 -160l-311 311l-318 -317l-155 158z" />
    <glyph glyph-name="uni2639" unicode="&#x2639;" horiz-adv-x="1665" 
d="M1591 729q0 -315 -221 -536q-222 -222 -536 -222q-312 0 -539 222q-221 221 -221 536q0 313 221 539q223 223 539 223q317 0 536 -223q221 -221 221 -539zM834 1307q-236 0 -406 -170q-168 -168 -168 -408q0 -239 168 -407t406 -168q234 0 399 168q166 169 166 407
q0 239 -166 408q-164 170 -399 170zM743 1026q38 -38 38 -96t-38 -96t-96 -38t-96 38t-38 96t38 96q38 41 96 41t96 -41zM1114 1026q38 -38 38 -96t-38 -96t-96 -38t-96 38t-38 96t38 96q38 41 96 41t96 -41zM1235 369h-160q-12 92 -86 151q-72 60 -155 60
q-91 0 -162.5 -58.5t-83.5 -152.5h-160q21 158 135 260q115 100 271 100q152 0 266 -102t135 -258z" />
    <glyph glyph-name="smileface" unicode="&#x263a;" horiz-adv-x="1665" 
d="M1591 729q0 -315 -221 -536q-222 -222 -536 -222q-312 0 -539 222q-221 221 -221 536q0 313 221 539q223 223 539 223q317 0 536 -223q221 -221 221 -539zM834 1307q-236 0 -406 -170q-168 -168 -168 -408q0 -239 168 -407t406 -168q234 0 399 168q166 169 166 407
q0 239 -166 408q-164 170 -399 170zM743 1026q38 -38 38 -96t-38 -96t-96 -38t-96 38t-38 96t38 96q38 41 96 41t96 -41zM1114 1026q38 -38 38 -96t-38 -96t-96 -38t-96 38t-38 96t38 96q38 41 96 41t96 -41zM1075 680h160q-21 -159 -137 -260q-115 -103 -264 -103
q-155 0 -271 101q-114 102 -135 262h160q12 -94 83.5 -152.5t162.5 -58.5q86 0 155 57q74 59 86 154z" />
    <glyph glyph-name="invsmileface" unicode="&#x263b;" horiz-adv-x="1665" 
d="M1591 729q0 -315 -221 -536q-222 -222 -536 -222q-312 0 -539 222q-221 221 -221 536q0 313 221 539q223 223 539 223q317 0 536 -223q221 -221 221 -539zM743 834q38 38 38 96t-38 96q-38 41 -96 41t-96 -41q-38 -38 -38 -96t38 -96t96 -38t96 38zM1114 834q38 38 38 96
t-38 96q-38 41 -96 41t-96 -41q-38 -38 -38 -96t38 -96t96 -38t96 38zM1235 680h-160q-12 -95 -86 -154q-69 -57 -155 -57q-91 0 -162.5 58.5t-83.5 152.5h-160q21 -160 135 -262q116 -101 271 -101q149 0 264 103q116 101 137 260z" />
    <glyph glyph-name="heart" unicode="&#x2665;" horiz-adv-x="1785" 
d="M6 983q0 198 133 334q135 135 334 135q120 0 218 -57.5t147 -159.5q49 104 147.5 160.5t222.5 56.5q197 0 328 -137q133 -139 133 -332q0 -121 -53 -249t-141 -236q-76 -97 -201 -209q-207 -184 -436 -318q-230 134 -439 318q-122 113 -198 209q-88 109 -141.5 237
t-53.5 248z" />
    <glyph glyph-name="uni2713" unicode="&#x2713;" horiz-adv-x="1929" 
d="M1700 1464l166 -161l-1233 -1336l-602 662l166 155l442 -477z" />
    <glyph glyph-name="uni2715" unicode="&#x2715;" horiz-adv-x="1546" 
d="M608 727l-567 569l162 160l567 -565l563 565l160 -160l-561 -569l573 -573l-159 -162l-576 571l-569 -571l-160 162z" />
    <glyph glyph-name="uni2E18" unicode="&#x2e18;" horiz-adv-x="1132" 
d="M631 719q-85 0 -143 58t-58 143q0 82 58 139t143 57q80 0 138 -57.5t58 -138.5q0 -82 -58 -141.5t-138 -59.5zM494 -47l4 186h-2q-119 -107 -119 -205q0 -80 62.5 -133t166.5 -53q153 0 242 133l246 -162q-78 -122 -207.5 -188t-288.5 -66q-228 0 -371 119t-143 316
q0 128 58 222t192 202q79 64 115 118.5t36 124.5v25h287l23 -639h-301z" />
    <glyph glyph-name="zero.slash" unicode="&#xe008;" horiz-adv-x="1574" 
d="M795 1628q221 0 376 -119q304 -225 304 -698q0 -161 -45 -310.5t-130 -267.5q-87 -120 -222 -189t-296 -69q-223 0 -383 121q-299 230 -299 707q0 128 27.5 248.5t85 225.5t139 183t195.5 123t248 45zM786 1311q-74 0 -135 -32t-100.5 -84t-67 -119t-39.5 -134.5
t-12 -134.5q0 -131 37 -238l477 699q-73 43 -160 43zM786 295q122 0 205 86q152 152 152 426q0 130 -37 237l-483 -702q71 -47 163 -47z" />
    <glyph glyph-name="uniE09D" unicode="&#xe09d;" horiz-adv-x="1714" 
d="M1622 821h-270v-385q0 -92 47 -133t143 -41q43 0 74 8v-264q-67 -20 -150 -20q-211 0 -322.5 108t-111.5 303v424h-463v-821h-319v821h-197v273h197v108q0 220 117.5 345.5t343.5 125.5q75 0 149 -22v-262q-41 12 -98 12q-93 0 -144 -50t-51 -143v-114h469v342h316v-342
h270v-273z" />
    <glyph glyph-name="at.case" unicode="&#xf633;" horiz-adv-x="1773" 
d="M1272 391q-73 0 -138.5 34t-91.5 87q-40 -54 -109 -88.5t-132 -34.5q-143 0 -238 109q-94 107 -94 241q0 193 119 330q121 139 299 139q57 0 111 -31t77 -81l21 104l235 -2l-86 -510q-18 -110 64 -110q84 0 159 100q76 101 76 248q0 238 -168 393q-171 160 -436 160
q-280 0 -483 -203t-203 -483q0 -279 180 -471q182 -191 492 -191q106 0 222.5 38.5t205.5 104.5l80 -122q-82 -73 -230 -123q-149 -47 -278 -47q-362 0 -596 231q-232 235 -232 578q0 347 248 589q250 244 592 244q326 0 543 -199q219 -198 219 -499q0 -234 -127 -385
q-126 -150 -301 -150zM907 983q-80 0 -139 -68q-56 -65 -53 -151q2 -62 39.5 -106t97.5 -44q78 0 133 70q57 69 57 158q0 63 -37 102t-98 39z" />
    <glyph glyph-name="dollar.lowercase" unicode="&#xf653;" horiz-adv-x="1075" 
d="M971 330q0 -124 -74.5 -214t-206.5 -122v-203h-262v191q-260 34 -371 245l236 140q69 -134 246 -134q59 0 96 23.5t37 56.5q0 35 -37.5 60t-136.5 47q-389 85 -389 354q0 126 89 217.5t230 118.5v195h262v-205q181 -52 260 -201l-231 -137q-61 104 -199 104
q-49 0 -81.5 -23.5t-32.5 -56.5q0 -70 143 -100q211 -44 316.5 -130t105.5 -226z" />
    <glyph glyph-name="commaaccent" unicode="&#xf6c3;" horiz-adv-x="0" 
d="M403 -336v-10q0 -107 -64 -210.5t-171 -176.5l-98 94q119 79 178 203q-29 -13 -60 -13q-63 0 -105 44.5t-42 111.5q0 73 50 123.5t122 50.5q83 0 136.5 -60t53.5 -157z" />
    <glyph glyph-name="uniF730" unicode="&#xf730;" horiz-adv-x="1351" 
d="M88 545q0 243 170 407q172 166 420 166t416 -162q170 -164 170 -405q0 -246 -172 -412q-170 -164 -418 -164q-250 0 -418 162t-168 408zM676 264q115 0 188.5 80t73.5 205q0 123 -74.5 202.5t-187.5 79.5q-116 0 -189 -79t-73 -203t74.5 -204.5t187.5 -80.5z" />
    <glyph glyph-name="uniF731" unicode="&#xf731;" horiz-adv-x="888" 
d="M25 854l413 240h283v-1094h-320v768l-251 -141z" />
    <glyph glyph-name="uniF732" unicode="&#xf732;" horiz-adv-x="1060" 
d="M92 0v229l393 308q102 81 137 124.5t35 92.5q0 44 -37.5 77t-93.5 33q-117 0 -176 -139l-256 102q46 144 162.5 218.5t271.5 74.5q191 0 303 -106q115 -106 115 -260q0 -123 -67 -205q-64 -81 -228 -205l-125 -94h426v-250h-860z" />
    <glyph glyph-name="uniF733" unicode="&#xf733;" horiz-adv-x="1050" 
d="M520 -16q-332 0 -446 262l239 123q65 -133 213 -133q62 0 99 27t37 69q0 98 -136 98h-104v254h90q61 0 95 26t34 66q0 39 -35 64.5t-98 25.5q-114 0 -172 -129l-246 117q55 131 165.5 198.5t260.5 67.5q177 0 293 -90q115 -89 115 -237q0 -146 -146 -224v-2
q166 -70 166 -241q0 -152 -123 -246q-122 -96 -301 -96z" />
    <glyph glyph-name="uniF734" unicode="&#xf734;" horiz-adv-x="1169" 
d="M74 197v313l483 584h350v-645h180v-252h-180v-197h-280v197h-553zM332 449h295v356z" />
    <glyph glyph-name="uniF735" unicode="&#xf735;" horiz-adv-x="1046" 
d="M899 846h-471l-29 -174q82 67 201 67q137 0 244 -96q104 -94 104 -266q0 -178 -125 -285q-125 -104 -311 -104q-310 0 -432 241l231 138q67 -125 205 -125q68 0 109 35t41 96q0 57 -41.5 93t-114.5 36q-70 0 -145 -66l-248 96l84 562h698v-248z" />
    <glyph glyph-name="uniF736" unicode="&#xf736;" horiz-adv-x="1087" 
d="M616 737q159 0 265 -106t106 -254q0 -176 -133 -285q-130 -106 -303 -106q-234 0 -361 157q-98 125 -98 375q0 266 135 432q134 168 389 168q187 0 349 -125l-144 -209q-110 84 -209 84q-97 0 -155 -61t-70 -176q87 106 229 106zM547 504q-69 0 -115.5 -37.5t-46.5 -97.5
q0 -57 48 -98.5t114 -41.5q67 0 112.5 41t45.5 99q0 60 -43 97.5t-115 37.5z" />
    <glyph glyph-name="uniF737" unicode="&#xf737;" horiz-adv-x="997" 
d="M74 1094h858v-252l-461 -842h-332l465 842h-530v252z" />
    <glyph glyph-name="uniF738" unicode="&#xf738;" horiz-adv-x="1099" 
d="M94 322q0 86 48.5 147t127.5 92q-147 77 -147 221q0 110 72 191q136 147 356 147q100 0 188 -33q99 -36 166 -112q74 -80 74 -191q0 -143 -152 -221q72 -25 127 -90q52 -58 52 -149q0 -90 -43 -160q-56 -94 -171 -140.5t-243 -46.5q-106 0 -211 31q-104 34 -174 118
t-70 196zM549 662q61 0 104 32t43 76t-42.5 76.5t-102.5 32.5q-61 0 -104.5 -32.5t-43.5 -76.5t43 -76t103 -32zM551 219q70 0 120 34t50 83t-50.5 84t-119.5 35t-119.5 -35t-50.5 -84q0 -50 49 -83.5t121 -33.5z" />
    <glyph glyph-name="uniF739" unicode="&#xf739;" horiz-adv-x="1081" 
d="M463 369q-159 0 -266 104q-105 108 -105 256q0 179 131 283q130 106 305 106q228 0 361 -157q98 -119 98 -373q0 -263 -133 -434q-131 -168 -383 -168q-200 0 -365 127l142 211q113 -88 227 -88q93 0 149 61t68 176q-88 -104 -229 -104zM532 600q69 0 114.5 37.5
t45.5 97.5q0 57 -48 98t-114 41q-67 0 -112 -40.5t-45 -96.5q0 -62 43.5 -99.5t115.5 -37.5z" />
    <glyph glyph-name="NULL" horiz-adv-x="0" 
 />
    <glyph glyph-name="CR" horiz-adv-x="681" 
 />
    <glyph glyph-name="Aring.alt" horiz-adv-x="1622" 
d="M1124 2005q0 -127 -94 -215q-91 -88 -223 -88q-129 0 -223 88q-92 89 -92 215q0 124 92 213q94 88 223 88q132 0 223 -88q94 -88 94 -213zM940 2005q0 50 -39.5 87.5t-93.5 37.5q-57 0 -94 -35.5t-37 -89.5q0 -51 38 -88t93 -37t94 37t39 88zM332 0h-334l612 1604h400
l614 -1604h-342l-121 324h-710zM807 1282l-242 -651h484z" />
    <glyph glyph-name="OE.alt" horiz-adv-x="2297" 
d="M2099 655h-624v-346h706v-309h-1177q-420 0 -668 219q-244 221 -244 586q0 373 242 584q244 215 663 215h1178v-312h-700v-325h624v-312zM1147 313v977h-162q-243 0 -399 -129q-156 -126 -156 -350q0 -232 154 -365t405 -133h158z" />
    <glyph glyph-name="Q.alt" horiz-adv-x="1843" 
d="M1835 289v-289h-907q-358 0 -600 236q-240 237 -240 579t242 578q241 235 583 235q344 0 580 -233q238 -232 238 -572q0 -355 -297 -530l2 -4h399zM909 1309q-200 0 -344 -144q-141 -144 -141 -348q0 -205 141 -352q142 -148 342 -148q199 0 344 148q144 150 144 354
t-142 346q-141 144 -344 144z" />
    <glyph glyph-name="O.slash" horiz-adv-x="1841" 
d="M926 1628q340 0 583 -237q244 -238 244 -582q0 -347 -246 -590q-242 -242 -589 -242q-344 0 -588 238q-242 239 -242 586q0 342 246 585q245 242 592 242zM922 1307q-207 0 -351 -150q-145 -148 -145 -354q0 -150 78 -275l631 732q-100 47 -213 47zM922 297
q206 0 350 147q145 151 145 359q0 149 -78 274l-632 -731q104 -49 215 -49z" />
    <glyph glyph-name="a.alt" horiz-adv-x="1404" 
d="M938 0v127h-2q-108 -147 -334 -147q-233 0 -375 167q-145 171 -145 402q0 219 147 391q149 174 377 174q207 0 330 -147h2v127h317v-1094h-317zM946 549q0 121 -77 198.5t-193 77.5t-193 -77.5t-77 -198.5q0 -123 77 -203q78 -78 193 -78q114 0 192 78q78 81 78 203z" />
    <glyph glyph-name="aacute.alt" horiz-adv-x="1404" 
d="M758 1276h-262l219 383h366zM1255 0h-317v127h-2q-108 -147 -334 -147q-233 0 -375 167q-145 171 -145 402q0 219 147 391q149 174 377 174q207 0 330 -147h2v127h317v-1094zM946 549q0 121 -77 198.5t-193 77.5t-193 -77.5t-77 -198.5q0 -123 77 -203q78 -78 193 -78
q114 0 192 78q78 81 78 203z" />
    <glyph glyph-name="abreve.alt" horiz-adv-x="1404" 
d="M281 1634h237q24 -147 152 -147q60 0 100 40t51 107h240q-19 -164 -126 -264t-265 -100q-161 0 -267 100q-107 101 -122 264zM938 967v127h317v-1094h-317v127h-2q-108 -147 -334 -147q-233 0 -375 167q-145 171 -145 402q0 219 147 391q149 174 377 174q207 0 330 -147
h2zM946 549q0 121 -77 198.5t-193 77.5t-193 -77.5t-77 -198.5q0 -123 77 -203q78 -78 193 -78q114 0 192 78q78 81 78 203z" />
    <glyph glyph-name="acaron.alt" horiz-adv-x="1404" 
d="M684 1448l127 186h270l-247 -356h-299l-248 356h272zM938 0v127h-2q-108 -147 -334 -147q-233 0 -375 167q-145 171 -145 402q0 219 147 391q149 174 377 174q207 0 330 -147h2v127h317v-1094h-317zM946 549q0 121 -77 198.5t-193 77.5t-193 -77.5t-77 -198.5
q0 -123 77 -203q78 -78 193 -78q114 0 192 78q78 81 78 203z" />
    <glyph glyph-name="acircumflex.alt" horiz-adv-x="1404" 
d="M307 1278l248 356h299l248 -356h-273l-124 186l-125 -186h-273zM938 0v127h-2q-108 -147 -334 -147q-233 0 -375 167q-145 171 -145 402q0 219 147 391q149 174 377 174q207 0 330 -147h2v127h317v-1094h-317zM946 549q0 121 -77 198.5t-193 77.5t-193 -77.5t-77 -198.5
q0 -123 77 -203q78 -78 193 -78q114 0 192 78q78 81 78 203z" />
    <glyph glyph-name="adieresis.alt" horiz-adv-x="1404" 
d="M260 1442q0 73 51.5 125.5t124.5 52.5q74 0 126 -52t52 -126q0 -75 -52 -126.5t-126 -51.5t-125 51.5t-51 126.5zM748 1442q0 73 51.5 125.5t124.5 52.5q74 0 126 -52t52 -126q0 -75 -52 -126.5t-126 -51.5t-125 51.5t-51 126.5zM938 967v127h317v-1094h-317v127h-2
q-108 -147 -334 -147q-233 0 -375 167q-145 171 -145 402q0 219 147 391q149 174 377 174q207 0 330 -147h2zM946 549q0 121 -77 198.5t-193 77.5t-193 -77.5t-77 -198.5q0 -123 77 -203q78 -78 193 -78q114 0 192 78q78 81 78 203z" />
    <glyph glyph-name="agrave.alt" horiz-adv-x="1404" 
d="M244 1659h366l219 -383h-262zM938 0v127h-2q-108 -147 -334 -147q-233 0 -375 167q-145 171 -145 402q0 219 147 391q149 174 377 174q207 0 330 -147h2v127h317v-1094h-317zM946 549q0 121 -77 198.5t-193 77.5t-193 -77.5t-77 -198.5q0 -123 77 -203q78 -78 193 -78
q114 0 192 78q78 81 78 203z" />
    <glyph glyph-name="amacron.alt" horiz-adv-x="1404" 
d="M311 1286v240h746v-240h-746zM938 967v127h317v-1094h-317v127h-2q-108 -147 -334 -147q-233 0 -375 167q-145 171 -145 402q0 219 147 391q149 174 377 174q207 0 330 -147h2zM946 549q0 121 -77 198.5t-193 77.5t-193 -77.5t-77 -198.5q0 -123 77 -203q78 -78 193 -78
q114 0 192 78q78 81 78 203z" />
    <glyph glyph-name="aogonek.alt" horiz-adv-x="1404" 
d="M938 1094h317v-1094q-198 -125 -198 -229q0 -53 45 -83t104 -30q29 0 43 2v-184q-61 -21 -155 -21q-131 0 -226 62q-94 58 -94 172q0 153 227 311h-63v127h-2q-108 -147 -334 -147q-233 0 -375 167q-145 171 -145 402q0 219 147 391q149 174 377 174q207 0 330 -147h2
v127zM946 549q0 121 -77 198.5t-193 77.5t-193 -77.5t-77 -198.5q0 -123 77 -203q78 -78 193 -78q114 0 192 78q78 81 78 203z" />
    <glyph glyph-name="aring.alt" horiz-adv-x="1404" 
d="M999 1536q0 -127 -94 -215q-91 -88 -223 -88q-129 0 -223 88t-94 215q0 125 94 213t223 88q132 0 223 -88q94 -88 94 -213zM813 1536q0 50 -38.5 87.5t-92.5 37.5q-57 0 -95 -35.5t-38 -89.5q0 -52 38.5 -88.5t94.5 -36.5q55 0 93 37t38 88zM938 967v127h317v-1094h-317
v127h-2q-108 -147 -334 -147q-233 0 -375 167q-145 171 -145 402q0 219 147 391q149 174 377 174q207 0 330 -147h2zM946 549q0 121 -77 198.5t-193 77.5t-193 -77.5t-77 -198.5q0 -123 77 -203q78 -78 193 -78q114 0 192 78q78 81 78 203z" />
    <glyph glyph-name="atilde.alt" horiz-adv-x="1404" 
d="M543 1616q51 0 101 -19.5t80.5 -43t60.5 -43t46 -19.5q70 0 70 119h199q8 -156 -63.5 -245t-205.5 -89q-49 0 -98.5 19.5t-81.5 43t-62.5 43t-45.5 19.5q-67 0 -70 -119h-197q-11 155 60.5 244.5t206.5 89.5zM938 967v127h317v-1094h-317v127h-2q-108 -147 -334 -147
q-233 0 -375 167q-145 171 -145 402q0 219 147 391q149 174 377 174q207 0 330 -147h2zM946 549q0 121 -77 198.5t-193 77.5t-193 -77.5t-77 -198.5q0 -123 77 -203q78 -78 193 -78q114 0 192 78q78 81 78 203z" />
    <glyph glyph-name="l.alt" horiz-adv-x="724" 
d="M139 1669h320v-1243q0 -164 172 -164q38 0 74 8v-264q-67 -20 -130 -20q-216 0 -326 110t-110 312v1261z" />
    <glyph glyph-name="lslash.alt" horiz-adv-x="917" 
d="M276 1669h320v-702l240 127v-301l-240 -125v-242q0 -164 172 -164q38 0 74 8v-264q-67 -20 -129 -20q-216 0 -326.5 110t-110.5 312v94l-208 -109v305l208 105v866z" />
    <glyph glyph-name="y.alt" horiz-adv-x="1271" 
d="M911 1094h334l-497 -1244q-78 -195 -198.5 -293t-316.5 -98q-80 0 -151 23v262q52 -10 106 -10q188 0 265 200l24 66l-448 1094h340l274 -738z" />
    <glyph glyph-name="aring.alt2" horiz-adv-x="1222" 
d="M930 1536q0 -127 -94 -215q-91 -88 -226 -88q-129 0 -223 88q-92 89 -92 215q0 124 92 213q94 88 223 88q135 0 226 -88q94 -88 94 -213zM743 1536q0 50 -39 87.5t-94 37.5q-57 0 -94 -35.5t-37 -89.5q0 -51 38 -88t93 -37q56 0 94.5 36.5t38.5 88.5zM455 -20
q-155 0 -262 88t-107 237v4q0 95 43.5 165t118.5 106q138 65 325 65h109q86 0 86 80q0 59 -46.5 97t-129.5 38q-162 0 -244 -147l-244 145q140 260 502 260q221 0 348 -114t127 -326v-678h-295v135l-4 2q-112 -157 -327 -157zM547 213q101 0 160 59t59 152v25h-193
q-72 0 -118.5 -33t-46.5 -92q0 -54 38 -82.5t101 -28.5z" />
    <glyph glyph-name="i.loclTRK" horiz-adv-x="616" 
d="M305 1673q85 0 143 -57t58 -141q0 -82 -58.5 -139.5t-142.5 -57.5q-80 0 -138 58t-58 139t58 139.5t138 58.5zM147 1094h322v-1094h-322v1094z" />
    <glyph glyph-name="uni0414.alt" horiz-adv-x="1853" 
d="M1468 0h-1085v-336h-330v643h137l539 1297h395l539 -1297h135v-643h-330v336zM541 307h764l-381 955z" />
    <glyph glyph-name="uni041B.alt" horiz-adv-x="1601" 
d="M799 1229l-445 -1229h-354l606 1604h391l607 -1604h-363z" />
    </font>
</defs>
</svg>
